<?xml version="1.0" encoding="iso-8859-1"?>
<!-- Generator: Adobe Illustrator 19.0.0, SVG Export Plug-In . SVG Version: 6.00 Build 0)  -->
<svg version="1.1" id="Capa_1" xmlns="http://www.w3.org/2000/svg" xmlns:xlink="http://www.w3.org/1999/xlink" x="0px" y="0px"
	 viewBox="0 0 512.017 512.017" style="enable-background:new 0 0 512.017 512.017;" xml:space="preserve">
<g>
	<g>
		<g>
			<path d="M299.196,490.675H74.769c-19.008,0-36.16-9.771-45.867-26.112c-9.685-16.341-10.048-36.075-0.555-53.568L187.857,49.118
				c9.493-17.387,27.008-27.776,46.827-27.776s37.333,10.389,46.4,26.987l98.731,223.936c2.389,5.397,8.725,7.872,14.059,5.461
				c5.397-2.368,7.829-8.683,5.461-14.059L300.22,38.942c-13.291-24.384-37.824-38.933-65.557-38.933s-52.245,14.549-65.941,39.723
				L9.212,401.609c-12.736,23.36-12.245,50.987,1.344,73.856c13.589,22.869,37.589,36.544,64.213,36.544h224.427
				c5.888,0,10.667-4.779,10.667-10.667C309.863,495.454,305.084,490.675,299.196,490.675z"/>
			<path d="M512.017,341.342c0-56.021-192-56.021-192,0c0,0.384,0.213,0.704,0.235,1.088c-0.043,0.405-0.235,0.768-0.235,1.195
				v123.435c0,30.891,49.771,44.949,96,44.949c46.229,0,96-14.059,96-44.949V343.625c0-0.427-0.192-0.789-0.235-1.195
				C511.804,342.046,512.017,341.726,512.017,341.342z M490.684,467.059c0,9.621-29.077,23.616-74.667,23.616
				s-74.667-13.995-74.667-23.616v-13.653c18.539,10.432,46.571,15.936,74.667,15.936c28.096,0,56.149-5.504,74.667-15.936V467.059z
				 M490.684,424.393c0,8.32-28.352,23.616-74.667,23.616c-46.315,0-74.667-15.296-74.667-23.616v-12.139
				c18.517,10.432,46.571,15.936,74.667,15.936c28.096,0,56.149-5.504,74.667-15.936V424.393z M490.684,383.241
				c0,8.32-28.352,23.616-74.667,23.616c-46.315,0-74.667-15.296-74.667-23.616v-14.379c18.539,9.92,46.571,15.147,74.667,15.147
				c28.096,0,56.149-5.227,74.667-15.125V383.241z M416.017,362.675c-48.491,0-74.667-15.147-74.667-21.333
				c0-6.187,26.176-21.333,74.667-21.333c48.491,0,74.667,15.147,74.667,21.333C490.684,347.529,464.508,362.675,416.017,362.675z"
				/>
			<path d="M202.684,416.009c0,17.643,14.357,32,32,32c17.643,0,32-14.357,32-32c0-17.643-14.357-32-32-32
				C217.041,384.009,202.684,398.345,202.684,416.009z M245.351,416.009c0,5.888-4.779,10.667-10.667,10.667
				s-10.667-4.779-10.667-10.667c0-5.888,4.779-10.667,10.667-10.667S245.351,410.121,245.351,416.009z"/>
			<path d="M264.06,141.065c-14.997-16.576-43.776-16.576-58.773,0c-7.488,8.277-11.157,19.392-10.048,30.507l18.155,181.483
				c0.555,5.461,5.141,9.621,10.624,9.621h21.333c5.483,0,10.069-4.16,10.603-9.6l18.155-181.483
				C275.217,160.457,271.548,149.342,264.06,141.065z M252.903,169.459l-17.195,171.883h-2.027l-17.152-171.883
				c-0.533-5.205,1.109-10.219,4.629-14.101c7.019-7.765,20.096-7.765,27.115,0C251.772,159.241,253.415,164.254,252.903,169.459z"
				/>
		</g>
	</g>
</g>
<g>
</g>
<g>
</g>
<g>
</g>
<g>
</g>
<g>
</g>
<g>
</g>
<g>
</g>
<g>
</g>
<g>
</g>
<g>
</g>
<g>
</g>
<g>
</g>
<g>
</g>
<g>
</g>
<g>
</g>
</svg>
