<?xml version="1.0" encoding="iso-8859-1"?>
<!-- Generator: Adobe Illustrator 19.0.0, SVG Export Plug-In . SVG Version: 6.00 Build 0)  -->
<svg version="1.1" id="Capa_1" xmlns="http://www.w3.org/2000/svg" xmlns:xlink="http://www.w3.org/1999/xlink" x="0px" y="0px"
	 viewBox="0 0 512.017 512.017" style="enable-background:new 0 0 512.017 512.017;" xml:space="preserve">
<g>
	<g>
		<g>
			<path d="M309.351,490.675H74.769c-19.008,0-36.139-9.771-45.867-26.112c-9.685-16.341-10.048-36.075-0.555-53.568L187.857,49.139
				c9.493-17.408,27.008-27.797,46.827-27.797s37.333,10.389,46.421,26.965l98.176,222.656c2.389,5.397,8.725,7.872,14.059,5.461
				c5.397-2.368,7.829-8.683,5.461-14.059l-98.56-223.445c-13.291-24.363-37.803-38.912-65.557-38.912
				c-27.755,0-52.267,14.549-65.963,39.744L9.212,401.609c-12.736,23.36-12.245,50.965,1.344,73.856
				c13.589,22.869,37.589,36.544,64.213,36.544h234.581c5.888,0,10.667-4.779,10.667-10.667
				C320.017,495.454,315.239,490.675,309.351,490.675z"/>
			<path d="M202.684,416.009c0,17.643,14.357,32,32,32c17.643,0,32-14.357,32-32c0-17.643-14.357-32-32-32
				C217.041,384.009,202.684,398.366,202.684,416.009z M245.351,416.009c0,5.888-4.779,10.667-10.667,10.667
				s-10.667-4.779-10.667-10.667c0-5.888,4.779-10.667,10.667-10.667S245.351,410.121,245.351,416.009z"/>
			<path d="M480.017,298.675H309.351c-17.643,0-32,14.357-32,32v106.667c0,17.643,14.357,32,32,32h74.667v21.333h-32
				c-5.888,0-10.667,4.779-10.667,10.667c0,5.888,4.779,10.667,10.667,10.667h85.333c5.888,0,10.667-4.779,10.667-10.667
				c0-5.888-4.779-10.667-10.667-10.667h-32v-21.333h74.667c17.643,0,32-14.357,32-32V330.675
				C512.017,313.033,497.66,298.675,480.017,298.675z M490.684,437.342c0,5.888-4.779,10.667-10.667,10.667H309.351
				c-5.888,0-10.667-4.779-10.667-10.667v-10.667h192V437.342z M490.684,405.342h-192v-74.667c0-5.888,4.779-10.667,10.667-10.667
				h170.667c5.888,0,10.667,4.779,10.667,10.667V405.342z"/>
			<path d="M264.06,141.065c-14.997-16.576-43.776-16.576-58.773,0c-7.488,8.277-11.157,19.413-10.048,30.528l18.155,181.483
				c0.555,5.44,5.141,9.6,10.624,9.6h21.333c5.483,0,10.069-4.16,10.603-9.6l18.155-181.483
				C275.217,160.478,271.548,149.342,264.06,141.065z M252.903,169.459l-17.195,171.883h-2.027l-17.152-171.883
				c-0.533-5.205,1.109-10.219,4.629-14.101c7.019-7.765,20.096-7.765,27.115,0C251.772,159.241,253.415,164.254,252.903,169.459z"
				/>
		</g>
	</g>
</g>
<g>
</g>
<g>
</g>
<g>
</g>
<g>
</g>
<g>
</g>
<g>
</g>
<g>
</g>
<g>
</g>
<g>
</g>
<g>
</g>
<g>
</g>
<g>
</g>
<g>
</g>
<g>
</g>
<g>
</g>
</svg>
