<?xml version="1.0" encoding="iso-8859-1"?>
<!-- Generator: Adobe Illustrator 19.0.0, SVG Export Plug-In . SVG Version: 6.00 Build 0)  -->
<svg version="1.1" id="Capa_1" xmlns="http://www.w3.org/2000/svg" xmlns:xlink="http://www.w3.org/1999/xlink" x="0px" y="0px"
	 viewBox="0 0 512 512" style="enable-background:new 0 0 512 512;" xml:space="preserve">
<g>
	<g>
		<g>
			<path d="M405.333,247.701V224c0-5.888-4.779-10.667-10.667-10.667S384,218.112,384,224v23.701
				c0,5.888,4.779,10.667,10.667,10.667S405.333,253.589,405.333,247.701z"/>
			<path d="M352,269.675c5.888,0,10.667-4.779,10.667-10.667V224c0-5.888-4.779-10.667-10.667-10.667
				c-5.888,0-10.667,4.779-10.667,10.667v35.008C341.333,264.896,346.112,269.675,352,269.675z"/>
			<path d="M309.333,213.333c-5.888,0-10.667,4.779-10.667,10.667v42.667c0,5.888,4.779,10.667,10.667,10.667
				S320,272.555,320,266.667V224C320,218.112,315.221,213.333,309.333,213.333z"/>
			<path d="M467.947,444.843l-32.021-8l-1.344-5.355c8.32-9.173,14.208-20.864,16.661-33.024c5.675-2.923,9.813-8.533,10.667-15.253
				l2.325-18.56c0.704-5.611-1.045-11.285-4.757-15.552c-1.152-1.323-2.475-2.475-3.904-3.435l0.555-11.307l1.963-1.963
				c5.504-5.845,12.949-18.325,1.152-36.331c-5.589-8.533-17.109-18.731-40.171-18.731c-6.784,0-22.123,0-37.035,9.323
				c-43.904,1.557-49.067,25.216-49.067,43.072c0,3.52,0.64,10.112,1.237,15.616c-1.579,1.003-3.029,2.219-4.288,3.648
				c-3.776,4.288-5.547,9.984-4.843,15.68l2.325,18.56c0.875,6.955,5.291,12.715,11.797,15.552
				c2.432,11.627,7.979,22.891,15.765,31.829l-1.557,6.272l-32.021,8c-25.941,6.485-44.053,29.696-44.053,56.448
				c0,2.837,1.109,5.568,3.115,7.552S285.163,512,288,512l213.333-0.021c5.888,0,10.667-4.779,10.667-10.667
				C512,474.581,493.888,451.371,467.947,444.843z M300.224,490.645c3.691-12.16,13.504-21.845,26.347-25.109l38.229-9.557
				c3.819-0.939,6.827-3.925,7.765-7.744l4.544-18.197c0.96-3.755-0.235-7.723-3.051-10.368c-8.299-7.787-13.803-19.2-14.699-30.528
				c-0.448-5.547-5.184-8.597-10.752-8.597l-2.731-16.981c3.072,0,5.973-1.301,8-3.605c2.027-2.283,2.965-5.333,2.581-8.384
				c-0.811-6.443-2.112-18.091-2.112-21.845c0-11.051,0-21.483,31.168-21.803c2.176-0.021,4.331-0.704,6.101-1.984
				c10.176-7.275,21.845-7.275,27.456-7.275c16.363,0,20.864,6.848,22.293,9.109c4.352,6.635,2.56,8.512,1.387,9.792l-4.651,4.629
				c-1.877,1.877-2.987,4.395-3.115,7.04l-1.131,23.211c-0.128,2.901,0.235,4.928,2.219,7.04c2.005,2.112,4.075,2.539,6.976,2.56
				l-1.387,17.344c-5.568,0-10.197,4.267-10.645,9.813c-0.896,11.499-6.805,23.424-15.381,31.104
				c-2.944,2.645-4.181,6.699-3.221,10.539l4.373,17.429c0.96,3.797,3.947,6.805,7.765,7.744l38.229,9.557
				c12.843,3.221,22.656,12.907,26.325,25.088L300.224,490.645z"/>
			<path d="M458.667,149.333C488.064,149.333,512,125.397,512,96V53.333C512,23.936,488.064,0,458.667,0H53.333
				C23.936,0,0,23.936,0,53.333V96c0,29.397,23.936,53.333,53.333,53.333H192v21.333H53.333C23.936,170.667,0,194.603,0,224v42.667
				C0,296.064,23.936,320,53.333,320H192v21.333h-10.667c-5.888,0-10.667,4.779-10.667,10.667v10.667H160
				c-5.888,0-10.667,4.779-10.667,10.667V384h-96c-5.888,0-10.667,4.779-10.667,10.667s4.779,10.667,10.667,10.667h96V416
				c0,5.888,4.779,10.667,10.667,10.667h85.333c5.888,0,10.667-4.779,10.667-10.667v-10.667h41.173
				c5.888,0,10.667-4.779,10.667-10.667S303.061,384,297.173,384H256v-10.667c0-5.888-4.779-10.667-10.667-10.667h-10.667V352
				c0-5.888-4.779-10.667-10.667-10.667h-10.667V320h89.984c5.909,0,10.667-4.779,10.667-10.667s-4.779-10.667-10.667-10.667H53.333
				c-17.643,0-32-14.357-32-32V224c0-17.643,14.357-32,32-32h405.333c17.643,0,32,14.357,32,32v42.667
				c0,6.784-2.219,13.355-6.443,18.987c-3.52,4.736-2.539,11.413,2.176,14.933c4.736,3.52,11.413,2.56,14.933-2.176
				C508.309,289.067,512,278.08,512,266.667V224c0-29.397-23.936-53.333-53.333-53.333H213.333v-21.333H458.667z M224,384h10.667
				v21.333h-64V384h10.667c5.888,0,10.667-4.779,10.667-10.667v-10.667h21.333v10.667C213.333,379.221,218.112,384,224,384z
				 M53.333,128c-17.643,0-32-14.357-32-32V53.333c0-17.643,14.357-32,32-32h405.333c17.643,0,32,14.357,32,32V96
				c0,17.643-14.357,32-32,32H53.333z"/>
			<path d="M448,247.211V224c0-5.888-4.779-10.667-10.667-10.667c-5.888,0-10.667,4.779-10.667,10.667v23.211
				c0,5.888,4.779,10.667,10.667,10.667C443.221,257.877,448,253.12,448,247.211z"/>
			<path d="M394.667,42.667c-5.888,0-10.667,4.779-10.667,10.667V96c0,5.888,4.779,10.667,10.667,10.667s10.667-4.779,10.667-10.667
				V53.333C405.333,47.445,400.555,42.667,394.667,42.667z"/>
			<path d="M42.667,245.333c0,17.643,14.357,32,32,32c17.643,0,32-14.357,32-32c0-17.643-14.357-32-32-32
				C57.024,213.333,42.667,227.691,42.667,245.333z M85.333,245.333c0,5.888-4.779,10.667-10.667,10.667S64,251.221,64,245.333
				s4.779-10.667,10.667-10.667S85.333,239.445,85.333,245.333z"/>
			<path d="M352,42.667c-5.888,0-10.667,4.779-10.667,10.667V96c0,5.888,4.779,10.667,10.667,10.667
				c5.888,0,10.667-4.779,10.667-10.667V53.333C362.667,47.445,357.888,42.667,352,42.667z"/>
			<path d="M437.333,42.667c-5.888,0-10.667,4.779-10.667,10.667V96c0,5.888,4.779,10.667,10.667,10.667
				c5.888,0,10.667-4.779,10.667-10.667V53.333C448,47.445,443.221,42.667,437.333,42.667z"/>
			<path d="M74.667,42.667c-17.643,0-32,14.357-32,32c0,17.643,14.357,32,32,32c17.643,0,32-14.357,32-32
				C106.667,57.024,92.309,42.667,74.667,42.667z M74.667,85.333C68.779,85.333,64,80.555,64,74.667S68.779,64,74.667,64
				s10.667,4.779,10.667,10.667S80.555,85.333,74.667,85.333z"/>
			<path d="M309.333,42.667c-5.888,0-10.667,4.779-10.667,10.667V96c0,5.888,4.779,10.667,10.667,10.667S320,101.888,320,96V53.333
				C320,47.445,315.221,42.667,309.333,42.667z"/>
		</g>
	</g>
</g>
<g>
</g>
<g>
</g>
<g>
</g>
<g>
</g>
<g>
</g>
<g>
</g>
<g>
</g>
<g>
</g>
<g>
</g>
<g>
</g>
<g>
</g>
<g>
</g>
<g>
</g>
<g>
</g>
<g>
</g>
</svg>
