<?xml version="1.0" encoding="iso-8859-1"?>
<!-- Generator: Adobe Illustrator 19.0.0, SVG Export Plug-In . SVG Version: 6.00 Build 0)  -->
<svg version="1.1" id="Capa_1" xmlns="http://www.w3.org/2000/svg" xmlns:xlink="http://www.w3.org/1999/xlink" x="0px" y="0px"
	 viewBox="0 0 512 512" style="enable-background:new 0 0 512 512;" xml:space="preserve">
<g>
	<g>
		<g>
			<path d="M244.715,489.515c-10.261,0.704-20.693,1.152-31.381,1.152c-113.152,0-192-39.36-192-74.667v-64.384
				c34.197,32.043,106.347,53.717,192,53.717c29.099,0,57.472-2.56,84.309-7.616c5.803-1.088,9.6-6.677,8.512-12.459
				c-1.067-5.781-6.656-9.536-12.437-8.491c-25.557,4.8-52.608,7.232-80.384,7.232c-113.152,0-192-39.36-192-74.667v-64.384
				c34.197,32.043,106.347,53.717,192,53.717s157.803-21.675,192-53.717v0.448c0,5.888,4.779,10.667,10.667,10.667
				c5.888,0,10.667-4.779,10.667-10.667V96c0-53.824-93.717-96-213.333-96S0,42.176,0,96v320c0,53.824,93.717,96,213.333,96
				c11.2,0,22.101-0.448,32.832-1.195c5.867-0.384,10.325-5.483,9.92-11.371S250.752,489.195,244.715,489.515z M213.333,21.333
				c113.152,0,192,39.36,192,74.667c0,35.307-78.848,74.667-192,74.667s-192-39.36-192-74.667
				C21.333,60.693,100.181,21.333,213.333,21.333z M21.333,138.283C55.531,170.325,127.68,192,213.333,192
				s157.803-21.675,192-53.717v64.384c0,35.307-78.848,74.667-192,74.667s-192-39.36-192-74.667V138.283z"/>
			<path d="M467.968,444.864l-32.021-7.979l-1.344-5.376c8.32-9.173,14.208-20.885,16.661-33.045
				c5.675-2.944,9.813-8.555,10.667-15.253l2.325-18.539c0.704-5.611-1.045-11.285-4.757-15.552
				c-1.152-1.323-2.475-2.475-3.904-3.435l0.555-11.307l1.963-1.984c5.483-5.824,12.928-18.325,1.152-36.309
				c-5.611-8.555-17.109-18.752-40.192-18.752c-6.784,0-22.123,0-37.056,9.365c-43.904,1.536-49.067,25.195-49.067,43.051
				c0,3.52,0.64,10.112,1.237,15.616c-1.6,1.003-3.029,2.24-4.288,3.648c-3.776,4.288-5.547,9.984-4.843,15.68l2.325,18.539
				c0.875,6.976,5.291,12.715,11.797,15.552c2.411,11.648,7.979,22.912,15.765,31.851l-1.557,6.272l-32.021,7.979
				c-25.92,6.485-44.032,29.696-44.032,56.448c0,2.837,1.109,5.568,3.115,7.552S285.163,512,288,512l213.333-0.021
				c5.888,0,10.667-4.779,10.667-10.667C512,474.581,493.888,451.371,467.968,444.864z M300.224,490.645
				c3.691-12.16,13.504-21.845,26.347-25.067l38.229-9.536c3.819-0.96,6.827-3.925,7.765-7.765l4.544-18.197
				c0.96-3.733-0.235-7.701-3.051-10.368c-8.299-7.787-13.803-19.2-14.699-30.549c-0.448-5.525-5.184-8.597-10.752-8.597
				l-2.731-16.96c3.072,0,5.973-1.323,8-3.605c2.027-2.325,2.965-5.355,2.581-8.405c-0.811-6.443-2.112-18.112-2.112-21.867
				c0-11.029,0-21.461,31.168-21.781c2.176-0.021,4.331-0.704,6.101-1.984c10.176-7.296,21.845-7.296,27.456-7.296
				c16.384,0,20.864,6.827,22.293,9.088c4.352,6.656,2.581,8.533,1.408,9.792l-4.651,4.629c-1.877,1.877-3.008,4.395-3.136,7.04
				l-1.131,23.232c-0.128,2.901,0.235,4.928,2.219,7.04c2.005,2.091,4.075,2.517,6.976,2.539l-1.387,17.344
				c-5.568,0-10.197,4.267-10.645,9.835c-0.917,11.499-6.805,23.445-15.381,31.125c-2.944,2.624-4.181,6.677-3.221,10.517
				l4.373,17.429c0.96,3.819,3.947,6.805,7.765,7.765l38.229,9.536c12.843,3.221,22.656,12.928,26.325,25.088L300.224,490.645z"/>
		</g>
	</g>
</g>
<g>
</g>
<g>
</g>
<g>
</g>
<g>
</g>
<g>
</g>
<g>
</g>
<g>
</g>
<g>
</g>
<g>
</g>
<g>
</g>
<g>
</g>
<g>
</g>
<g>
</g>
<g>
</g>
<g>
</g>
</svg>
