<?xml version="1.0" encoding="iso-8859-1"?>
<!-- Generator: Adobe Illustrator 19.0.0, SVG Export Plug-In . SVG Version: 6.00 Build 0)  -->
<svg version="1.1" id="Capa_1" xmlns="http://www.w3.org/2000/svg" xmlns:xlink="http://www.w3.org/1999/xlink" x="0px" y="0px"
	 viewBox="0 0 512.021 512.021" style="enable-background:new 0 0 512.021 512.021;" xml:space="preserve">
<g>
	<g>
		<path d="M501.344,341.355c0-25.92-41.152-39.701-85.333-41.621v-33.045c0-5.888-4.779-10.667-10.667-10.667H266.677v-21.355
			l96.021-0.021c5.888,0,10.667-4.779,10.667-10.667c0-26.752-18.112-49.941-44.053-56.427l-32.021-8l-1.344-5.355
			c8.299-9.173,14.208-20.885,16.661-33.045c5.696-2.944,9.813-8.533,10.667-15.253l2.304-18.56
			c0.704-5.632-1.024-11.307-4.757-15.573c-1.152-1.301-2.475-2.453-3.883-3.413l0.533-11.328l1.941-1.941
			c5.504-5.845,12.949-18.325,1.173-36.331C314.997,10.197,303.477,0,280.395,0c-6.784,0-22.123,0-37.013,9.344
			c-43.904,1.557-49.067,25.216-49.067,43.072c0,3.52,0.64,10.112,1.237,15.616c-1.579,1.003-3.029,2.24-4.288,3.669
			c-3.797,4.309-5.547,10.005-4.821,15.659l2.304,18.56c0.875,6.955,5.291,12.715,11.797,15.552
			c2.389,11.627,7.979,22.891,15.765,31.829l-1.557,6.272l-32.021,8c-25.92,6.507-44.053,29.696-44.053,56.448
			c0,2.837,1.109,5.568,3.115,7.552c2.005,1.984,4.715,3.115,7.552,3.115h96v21.333H106.677c-5.888,0-10.667,4.779-10.667,10.667
			v33.045c-44.181,1.941-85.333,15.701-85.333,41.621c0,0.384,0.213,0.704,0.235,1.088c-0.043,0.427-0.235,0.789-0.235,1.195
			v123.435c0,30.891,49.771,44.949,96,44.949c46.229,0,96-14.059,96-44.949V343.637c0-0.427-0.192-0.789-0.235-1.195
			c0.021-0.363,0.235-0.683,0.235-1.088c0-25.92-41.152-39.701-85.333-41.621v-22.379h277.333v22.379
			c-44.181,1.941-85.333,15.701-85.333,41.621c0,0.384,0.213,0.704,0.235,1.088c-0.043,0.405-0.235,0.768-0.235,1.195v123.435
			c0,30.891,49.771,44.949,96,44.949c46.229,0,96-14.059,96-44.949V343.637c0-0.427-0.192-0.789-0.235-1.195
			C501.131,342.08,501.344,341.76,501.344,341.355z M181.344,467.072c0,9.621-29.077,23.616-74.667,23.616
			c-45.589,0-74.667-13.995-74.667-23.616v-13.653c18.517,10.453,46.571,15.936,74.667,15.936s56.149-5.504,74.667-15.936V467.072z
			 M181.344,424.405c0,8.341-28.352,23.616-74.667,23.616c-46.315,0-74.667-15.296-74.667-23.616v-12.139
			c18.517,10.432,46.571,15.936,74.667,15.936s56.149-5.504,74.667-15.936V424.405z M181.344,383.253
			c0,8.32-28.352,23.616-74.667,23.616c-46.315,0-74.667-15.296-74.667-23.616v-14.357c18.517,9.92,46.571,15.125,74.667,15.125
			s56.149-5.227,74.667-15.125V383.253z M181.344,341.355c0,6.187-26.176,21.333-74.667,21.333s-74.667-15.147-74.667-21.333
			c0-6.187,26.176-21.333,74.667-21.333S181.344,335.189,181.344,341.355z M161.568,213.333
			c3.669-12.139,13.504-21.845,26.389-25.088l38.229-9.557c3.819-0.96,6.805-3.947,7.765-7.765l4.544-18.197
			c0.939-3.755-0.235-7.723-3.072-10.368c-8.299-7.808-13.803-19.221-14.699-30.528c-0.448-5.525-5.184-8.597-10.752-8.597
			l-2.752-16.981c3.072,0,5.973-1.301,8-3.605c2.027-2.283,2.965-5.333,2.581-8.384c-0.811-6.443-2.112-18.091-2.112-21.845
			c0-11.051,0-21.483,31.189-21.803c2.176-0.021,4.309-0.704,6.101-1.984c10.155-7.275,21.845-7.275,27.456-7.275
			c11.029,0,18.325,2.965,22.336,9.088c4.331,6.635,2.56,8.512,1.365,9.813l-4.629,4.629c-1.877,1.877-2.987,4.373-3.115,7.019
			l-1.131,23.232c-0.128,2.901,0.213,4.928,2.197,7.04c2.005,2.112,4.053,2.539,6.955,2.56l-1.365,17.344
			c-5.568,0-10.176,4.267-10.624,9.813c-0.939,11.499-6.848,23.424-15.424,31.125c-2.923,2.624-4.181,6.677-3.221,10.517
			l4.352,17.429c0.96,3.819,3.925,6.827,7.765,7.765l38.229,9.557c12.843,3.2,22.656,12.907,26.325,25.067L161.568,213.333z
			 M480.011,467.072c0,9.621-29.077,23.616-74.667,23.616c-45.589,0-74.667-13.995-74.667-23.616v-13.653
			c18.517,10.453,46.571,15.936,74.667,15.936c28.096,0,56.149-5.504,74.667-15.936V467.072z M480.011,424.405
			c0,8.341-28.352,23.616-74.667,23.616c-46.315,0-74.667-15.296-74.667-23.616v-12.139c18.517,10.432,46.571,15.936,74.667,15.936
			c28.096,0,56.149-5.504,74.667-15.936V424.405z M480.011,383.253c0,8.32-28.352,23.616-74.667,23.616
			c-46.315,0-74.667-15.296-74.667-23.616v-14.357c18.517,9.92,46.571,15.125,74.667,15.125c28.096,0,56.149-5.227,74.667-15.125
			V383.253z M405.344,362.688c-48.491,0-74.667-15.147-74.667-21.333c0-6.187,26.176-21.333,74.667-21.333
			c48.491,0,74.667,15.147,74.667,21.333C480.011,347.541,453.835,362.688,405.344,362.688z"/>
	</g>
</g>
<g>
</g>
<g>
</g>
<g>
</g>
<g>
</g>
<g>
</g>
<g>
</g>
<g>
</g>
<g>
</g>
<g>
</g>
<g>
</g>
<g>
</g>
<g>
</g>
<g>
</g>
<g>
</g>
<g>
</g>
</svg>
