<?xml version="1.0" encoding="iso-8859-1"?>
<!-- Generator: Adobe Illustrator 19.0.0, SVG Export Plug-In . SVG Version: 6.00 Build 0)  -->
<svg version="1.1" id="Capa_1" xmlns="http://www.w3.org/2000/svg" xmlns:xlink="http://www.w3.org/1999/xlink" x="0px" y="0px"
	 viewBox="0 0 512 512" style="enable-background:new 0 0 512 512;" xml:space="preserve">
<g>
	<g>
		<g>
			<path d="M448,224c0-5.888-4.779-10.667-10.667-10.667c-5.888,0-10.667,4.779-10.667,10.667v0.917
				c0,5.888,4.779,10.197,10.667,10.197C443.221,235.115,448,229.888,448,224z"/>
			<path d="M362.667,266.667V224c0-5.888-4.779-10.667-10.667-10.667c-5.888,0-10.667,4.779-10.667,10.667v42.667
				c0,5.888,4.779,10.667,10.667,10.667C357.888,277.333,362.667,272.555,362.667,266.667z"/>
			<path d="M448,341.333c23.531,0,42.667-19.136,42.667-42.667C490.667,275.136,471.531,256,448,256
				c-23.531,0-42.667,19.136-42.667,42.667c0,1.323,0.277,2.581,0.384,3.883l-99.883,49.941
				c-7.552-6.869-17.493-11.157-28.501-11.157c-23.531,0-42.667,19.136-42.667,42.667c0,23.531,19.136,42.667,42.667,42.667
				c11.008,0,20.949-4.288,28.523-11.157l99.883,49.941c-0.128,1.301-0.405,2.56-0.405,3.883C405.333,492.864,424.469,512,448,512
				c23.531,0,42.667-19.136,42.667-42.667c0-23.531-19.136-42.667-42.667-42.667c-14.549,0-27.392,7.339-35.115,18.496
				l-95.296-47.659C319.04,393.237,320,388.757,320,384s-0.96-9.259-2.411-13.525l95.296-47.637
				C420.587,333.995,433.451,341.333,448,341.333z M448,277.333c11.755,0,21.333,9.579,21.333,21.333
				c0,11.755-9.579,21.333-21.333,21.333c-11.755,0-21.333-9.579-21.333-21.333C426.667,286.912,436.245,277.333,448,277.333z
				 M277.333,405.333C265.579,405.333,256,395.755,256,384c0-11.755,9.579-21.333,21.333-21.333
				c11.755,0,21.333,9.579,21.333,21.333C298.667,395.755,289.088,405.333,277.333,405.333z M448,448
				c11.755,0,21.333,9.579,21.333,21.333c0,11.755-9.579,21.333-21.333,21.333c-11.755,0-21.333-9.579-21.333-21.333
				C426.667,457.579,436.245,448,448,448z"/>
			<path d="M405.333,246.869V224c0-5.888-4.779-10.667-10.667-10.667S384,218.112,384,224v22.869
				c0,5.888,4.779,10.667,10.667,10.667S405.333,252.779,405.333,246.869z"/>
			<path d="M437.333,42.667c-5.888,0-10.667,4.779-10.667,10.667V96c0,5.888,4.779,10.667,10.667,10.667
				c5.888,0,10.667-4.779,10.667-10.667V53.333C448,47.445,443.221,42.667,437.333,42.667z"/>
			<path d="M298.667,224v42.667c0,5.888,4.779,10.667,10.667,10.667S320,272.555,320,266.667V224
				c0-5.888-4.779-10.667-10.667-10.667S298.667,218.112,298.667,224z"/>
			<path d="M74.667,42.667c-17.643,0-32,14.357-32,32c0,17.643,14.357,32,32,32c17.643,0,32-14.357,32-32
				C106.667,57.024,92.309,42.667,74.667,42.667z M74.667,85.333C68.779,85.333,64,80.555,64,74.667S68.779,64,74.667,64
				s10.667,4.779,10.667,10.667S80.555,85.333,74.667,85.333z"/>
			<path d="M42.667,245.333c0,17.643,14.357,32,32,32c17.643,0,32-14.357,32-32c0-17.643-14.357-32-32-32
				C57.024,213.333,42.667,227.691,42.667,245.333z M85.333,245.333c0,5.888-4.779,10.667-10.667,10.667S64,251.221,64,245.333
				s4.779-10.667,10.667-10.667S85.333,239.445,85.333,245.333z"/>
			<path d="M458.667,149.333C488.064,149.333,512,125.397,512,96V53.333C512,23.936,488.064,0,458.667,0H53.333
				C23.936,0,0,23.936,0,53.333V96c0,29.397,23.936,53.333,53.333,53.333H192v21.333H53.333C23.936,170.667,0,194.603,0,224v42.667
				C0,296.064,23.936,320,53.333,320H192v21.333h-10.667c-5.888,0-10.667,4.779-10.667,10.667v10.667H160
				c-5.888,0-10.667,4.779-10.667,10.667V384h-96c-5.888,0-10.667,4.779-10.667,10.667s4.779,10.667,10.667,10.667h96V416
				c0,5.888,4.779,10.667,10.667,10.667h50.155c5.888,0,10.667-4.779,10.667-10.667c0-5.888-4.779-10.667-10.667-10.667h-39.488V384
				h10.667c5.888,0,10.667-4.779,10.667-10.667v-10.667h18.155c5.888,0,10.667-4.779,10.667-10.667
				c0-4.757-3.179-8.661-7.488-10.027V320h107.243c5.909,0,10.667-4.779,10.667-10.667s-4.779-10.667-10.667-10.667H53.333
				c-17.643,0-32-14.357-32-32V224c0-17.643,14.357-32,32-32h405.333c17.643,0,32,14.357,32,32v22.571
				c0,5.888,4.779,10.667,10.667,10.667c5.888,0,10.667-4.779,10.667-10.667V224c0-29.397-23.936-53.333-53.333-53.333H213.333
				v-21.333H458.667z M53.333,128c-17.643,0-32-14.357-32-32V53.333c0-17.643,14.357-32,32-32h405.333c17.643,0,32,14.357,32,32V96
				c0,17.643-14.357,32-32,32H53.333z"/>
			<path d="M309.333,42.667c-5.888,0-10.667,4.779-10.667,10.667V96c0,5.888,4.779,10.667,10.667,10.667S320,101.888,320,96V53.333
				C320,47.445,315.221,42.667,309.333,42.667z"/>
			<path d="M394.667,42.667c-5.888,0-10.667,4.779-10.667,10.667V96c0,5.888,4.779,10.667,10.667,10.667s10.667-4.779,10.667-10.667
				V53.333C405.333,47.445,400.555,42.667,394.667,42.667z"/>
			<path d="M352,42.667c-5.888,0-10.667,4.779-10.667,10.667V96c0,5.888,4.779,10.667,10.667,10.667
				c5.888,0,10.667-4.779,10.667-10.667V53.333C362.667,47.445,357.888,42.667,352,42.667z"/>
		</g>
	</g>
</g>
<g>
</g>
<g>
</g>
<g>
</g>
<g>
</g>
<g>
</g>
<g>
</g>
<g>
</g>
<g>
</g>
<g>
</g>
<g>
</g>
<g>
</g>
<g>
</g>
<g>
</g>
<g>
</g>
<g>
</g>
</svg>
