<?xml version="1.0" encoding="iso-8859-1"?>
<!-- Generator: Adobe Illustrator 19.0.0, SVG Export Plug-In . SVG Version: 6.00 Build 0)  -->
<svg version="1.1" id="Capa_1" xmlns="http://www.w3.org/2000/svg" xmlns:xlink="http://www.w3.org/1999/xlink" x="0px" y="0px"
	 viewBox="0 0 512 512" style="enable-background:new 0 0 512 512;" xml:space="preserve">
<g>
	<g>
		<g>
			<path d="M362.773,466.667c-36.992,15.488-86.272,24-138.773,24c-113.152,0-192-39.36-192-74.667v-64.192
				c32.704,30.635,100.245,51.712,182.187,53.312h0.213c5.781,0,10.539-4.651,10.667-10.453c0.107-5.909-4.565-10.752-10.453-10.88
				C105.387,381.632,32,343.552,32,309.333v-64.384c34.197,32.043,106.368,53.717,192,53.717
				c89.792,0,164.992-23.765,196.907-58.389c1.685,1.109,3.584,1.92,5.76,1.92c5.888,0,10.667-4.779,10.667-10.667V96
				c0-53.824-93.717-96-213.333-96S10.667,42.176,10.667,96v320c0,53.824,93.717,96,213.333,96
				c55.253,0,107.456-9.109,147.008-25.664c5.419-2.261,7.979-8.512,5.717-13.952C374.485,466.965,368.235,464.427,362.773,466.667z
				 M224,21.333c113.152,0,192,39.36,192,74.667s-78.848,74.667-192,74.667S32,131.307,32,96S110.848,21.333,224,21.333z
				 M32,138.283C66.197,170.325,138.368,192,224,192s157.803-21.675,192-53.717v64.384c0,35.307-78.848,74.667-192,74.667
				s-192-39.36-192-74.667V138.283z"/>
			<path d="M458.667,426.667c-14.549,0-27.413,7.339-35.115,18.517l-95.296-47.637c1.451-4.267,2.411-8.768,2.411-13.525
				s-0.96-9.237-2.411-13.525l95.296-47.659c7.701,11.157,20.544,18.496,35.115,18.496c23.531,0,42.667-19.136,42.667-42.667
				c0-23.531-19.136-42.667-42.667-42.667S416,275.136,416,298.667c0,1.323,0.277,2.581,0.384,3.883l-99.883,49.941
				c-7.573-6.869-17.515-11.157-28.501-11.157c-23.531,0-42.667,19.136-42.667,42.667c0,23.531,19.136,42.667,42.667,42.667
				c11.008,0,20.949-4.288,28.523-11.157l99.883,49.941c-0.149,1.301-0.405,2.56-0.405,3.883C416,492.864,435.136,512,458.667,512
				s42.667-19.136,42.667-42.667C501.333,445.803,482.176,426.667,458.667,426.667z M458.667,277.333
				c11.776,0,21.333,9.557,21.333,21.333S470.443,320,458.667,320s-21.333-9.557-21.333-21.333S446.891,277.333,458.667,277.333z
				 M288,405.333c-11.776,0-21.333-9.557-21.333-21.333s9.557-21.333,21.333-21.333s21.333,9.557,21.333,21.333
				S299.776,405.333,288,405.333z M458.667,490.667c-11.776,0-21.333-9.557-21.333-21.333S446.891,448,458.667,448
				S480,457.557,480,469.333S470.443,490.667,458.667,490.667z"/>
		</g>
	</g>
</g>
<g>
</g>
<g>
</g>
<g>
</g>
<g>
</g>
<g>
</g>
<g>
</g>
<g>
</g>
<g>
</g>
<g>
</g>
<g>
</g>
<g>
</g>
<g>
</g>
<g>
</g>
<g>
</g>
<g>
</g>
</svg>
