<?xml version="1.0" encoding="iso-8859-1"?>
<!-- Generator: Adobe Illustrator 19.0.0, SVG Export Plug-In . SVG Version: 6.00 Build 0)  -->
<svg version="1.1" id="Capa_1" xmlns="http://www.w3.org/2000/svg" xmlns:xlink="http://www.w3.org/1999/xlink" x="0px" y="0px"
	 viewBox="0 0 512 512" style="enable-background:new 0 0 512 512;" xml:space="preserve">
<g>
	<g>
		<g>
			<path d="M362.667,251.627V224c0-5.888-4.779-10.667-10.667-10.667c-5.888,0-10.667,4.779-10.667,10.667v27.627
				c0,5.888,4.779,10.667,10.667,10.667C357.888,262.293,362.667,257.515,362.667,251.627z"/>
			<path d="M405.333,245.333V224c0-5.888-4.779-10.667-10.667-10.667S384,218.112,384,224v21.333
				c0,5.888,4.779,10.667,10.667,10.667S405.333,251.221,405.333,245.333z"/>
			<path d="M394.667,320c-5.888,0-10.667,4.779-10.667,10.667V416c0,5.888,4.779,10.667,10.667,10.667s10.667-4.757,10.667-10.667
				v-85.333C405.333,324.779,400.555,320,394.667,320z"/>
			<path d="M387.2,451.2c-2.133,1.92-3.2,4.693-3.2,7.467s1.067,5.547,3.2,7.68c2.133,1.92,4.693,2.987,7.467,2.987
				s5.333-1.067,7.467-3.2c2.133-1.92,3.2-4.693,3.2-7.467s-1.067-5.547-3.2-7.467C398.293,447.147,391.04,447.147,387.2,451.2z"/>
			<path d="M320,266.667V224c0-5.888-4.779-10.667-10.667-10.667s-10.667,4.779-10.667,10.667v42.667
				c0,5.888,4.779,10.667,10.667,10.667S320,272.555,320,266.667z"/>
			<path d="M394.667,277.333c-64.704,0-117.333,52.629-117.333,117.333S329.963,512,394.667,512S512,459.371,512,394.667
				S459.371,277.333,394.667,277.333z M394.667,490.667c-52.928,0-96-43.072-96-96s43.072-96,96-96s96,43.072,96,96
				S447.595,490.667,394.667,490.667z"/>
			<path d="M448,251.627V224c0-5.888-4.779-10.667-10.667-10.667c-5.888,0-10.667,4.779-10.667,10.667v27.627
				c0,5.888,4.779,10.667,10.667,10.667C443.221,262.293,448,257.515,448,251.627z"/>
			<path d="M74.667,42.667c-17.643,0-32,14.357-32,32c0,17.643,14.357,32,32,32c17.643,0,32-14.357,32-32
				C106.667,57.024,92.309,42.667,74.667,42.667z M74.667,85.333C68.779,85.333,64,80.555,64,74.667S68.779,64,74.667,64
				s10.667,4.779,10.667,10.667S80.555,85.333,74.667,85.333z"/>
			<path d="M42.667,245.333c0,17.643,14.357,32,32,32c17.643,0,32-14.357,32-32c0-17.643-14.357-32-32-32
				C57.024,213.333,42.667,227.691,42.667,245.333z M85.333,245.333c0,5.888-4.779,10.667-10.667,10.667S64,251.221,64,245.333
				s4.779-10.667,10.667-10.667S85.333,239.445,85.333,245.333z"/>
			<path d="M437.333,42.667c-5.888,0-10.667,4.779-10.667,10.667V96c0,5.888,4.779,10.667,10.667,10.667
				c5.888,0,10.667-4.779,10.667-10.667V53.333C448,47.445,443.221,42.667,437.333,42.667z"/>
			<path d="M458.667,149.333C488.064,149.333,512,125.397,512,96V53.333C512,23.936,488.064,0,458.667,0H53.333
				C23.936,0,0,23.936,0,53.333V96c0,29.397,23.936,53.333,53.333,53.333H192v21.333H53.333C23.936,170.667,0,194.603,0,224v42.667
				C0,296.064,23.936,320,53.333,320H192v21.333h-10.667c-5.888,0-10.667,4.779-10.667,10.667v10.667H160
				c-5.888,0-10.667,4.779-10.667,10.667V384h-96c-5.888,0-10.667,4.779-10.667,10.667s4.779,10.667,10.667,10.667h96V416
				c0,5.888,4.779,10.667,10.667,10.667h85.333c5.888,0,10.667-4.779,10.667-10.667v-42.667c0-5.888-4.779-10.667-10.667-10.667
				h-10.667V352c0-5.888-4.779-10.667-10.667-10.667h-10.667V320h58.965c5.888,0,10.645-4.779,10.645-10.667
				s-4.779-10.667-10.667-10.667H53.312c-17.643,0-32-14.357-32-32V224c0-17.643,14.357-32,32-32h405.333c17.643,0,32,14.357,32,32
				v42.667c0,4.821-1.195,9.643-3.584,14.357c-2.645,5.269-0.555,11.669,4.715,14.336c5.269,2.667,11.691,0.555,14.336-4.715
				c3.904-7.723,5.888-15.808,5.888-23.979V224c0-29.397-23.936-53.333-53.333-53.333H213.333v-21.333H458.667z M224,384h10.667
				v21.333h-64V384h10.667c5.888,0,10.667-4.779,10.667-10.667v-10.667h21.333v10.667C213.333,379.221,218.112,384,224,384z
				 M53.333,128c-17.643,0-32-14.357-32-32V53.333c0-17.643,14.357-32,32-32h405.333c17.643,0,32,14.357,32,32V96
				c0,17.643-14.357,32-32,32H53.333z"/>
			<path d="M309.333,42.667c-5.888,0-10.667,4.779-10.667,10.667V96c0,5.888,4.779,10.667,10.667,10.667S320,101.888,320,96V53.333
				C320,47.445,315.221,42.667,309.333,42.667z"/>
			<path d="M394.667,42.667c-5.888,0-10.667,4.779-10.667,10.667V96c0,5.888,4.779,10.667,10.667,10.667s10.667-4.779,10.667-10.667
				V53.333C405.333,47.445,400.555,42.667,394.667,42.667z"/>
			<path d="M352,42.667c-5.888,0-10.667,4.779-10.667,10.667V96c0,5.888,4.779,10.667,10.667,10.667
				c5.888,0,10.667-4.779,10.667-10.667V53.333C362.667,47.445,357.888,42.667,352,42.667z"/>
		</g>
	</g>
</g>
<g>
</g>
<g>
</g>
<g>
</g>
<g>
</g>
<g>
</g>
<g>
</g>
<g>
</g>
<g>
</g>
<g>
</g>
<g>
</g>
<g>
</g>
<g>
</g>
<g>
</g>
<g>
</g>
<g>
</g>
</svg>
