<?xml version="1.0" encoding="iso-8859-1"?>
<!-- Generator: Adobe Illustrator 19.0.0, SVG Export Plug-In . SVG Version: 6.00 Build 0)  -->
<svg version="1.1" id="Capa_1" xmlns="http://www.w3.org/2000/svg" xmlns:xlink="http://www.w3.org/1999/xlink" x="0px" y="0px"
	 viewBox="0 0 512.021 512.021" style="enable-background:new 0 0 512.021 512.021;" xml:space="preserve">
<g>
	<g>
		<g>
			<path d="M330.667,448.011h-85.333c-5.888,0-10.667,4.779-10.667,10.667s4.779,10.667,10.667,10.667h85.333
				c5.888,0,10.667-4.779,10.667-10.667S336.555,448.011,330.667,448.011z"/>
			<path d="M53.333,448.011c-5.909,0-10.667,4.779-10.667,10.667c0,5.909,4.757,10.667,10.667,10.667
				c5.909,0,10.667-4.757,10.667-10.667C64,452.789,59.221,448.011,53.333,448.011z"/>
			<path d="M117.333,298.677c5.888,0,10.667-4.779,10.667-10.731V181.28c0-17.643,14.357-32,32-32h80.939l-3.115,3.115
				c-4.16,4.16-4.16,10.923,0,15.083c4.16,4.16,10.923,4.16,15.083,0l21.269-21.269c0.213-0.213,0.427-0.448,0.64-0.683
				c1.387-1.643,2.219-3.605,2.453-5.632c0.085-0.64,0.107-1.28,0.064-1.877c-0.149-2.475-1.173-4.928-3.051-6.848
				c-0.021,0-0.021,0-0.021,0s0,0-0.021,0c0-0.021-0.021-0.021-0.021-0.021l-21.333-21.333c-4.16-4.16-10.923-4.16-15.083,0
				c-2.069,2.091-3.115,4.821-3.115,7.552s1.024,5.461,3.115,7.552l3.115,3.093H160c-29.419,0-53.333,23.936-53.333,53.333v106.667
				C106.667,293.899,111.445,298.677,117.333,298.677z"/>
			<path d="M53.333,362.677c-5.909,0-10.667,4.779-10.667,10.667c0,5.909,4.757,10.667,10.667,10.667
				c5.909,0,10.667-4.757,10.667-10.667C64,367.456,59.221,362.677,53.333,362.677z"/>
			<path d="M352,320.011H32c-17.643,0-32,14.357-32,32v42.667c0,8.213,3.2,15.659,8.32,21.333C3.2,421.707,0,429.131,0,437.344
				v42.667c0,17.643,14.357,32,32,32h320c17.643,0,32-14.357,32-32v-42.667c0-8.213-3.2-15.659-8.32-21.333
				c5.12-5.675,8.32-13.12,8.32-21.333v-42.667C384,334.368,369.643,320.011,352,320.011z M362.667,480.011
				c0,5.888-4.8,10.667-10.667,10.667H32c-5.867,0-10.667-4.779-10.667-10.667v-42.667c0-5.888,4.8-10.667,10.667-10.667h320
				c5.867,0,10.667,4.779,10.667,10.667V480.011z M362.667,394.677c0,5.888-4.8,10.667-10.667,10.667H32
				c-5.867,0-10.667-4.779-10.667-10.667v-42.667c0-5.888,4.8-10.667,10.667-10.667h320c5.867,0,10.667,4.779,10.667,10.667V394.677
				z"/>
			<path d="M467.968,167.563l-32.021-8l-1.344-5.355c8.299-9.173,14.208-20.885,16.661-33.045
				c5.696-2.944,9.813-8.533,10.667-15.253l2.304-18.56c0.704-5.632-1.024-11.307-4.757-15.573
				c-1.152-1.301-2.475-2.453-3.883-3.413l0.533-11.328l1.941-1.941c5.504-5.845,12.949-18.325,1.173-36.331
				c-5.589-8.555-17.109-18.752-40.192-18.752c-6.784,0-22.123,0-37.013,9.344c-43.904,1.557-49.067,25.216-49.067,43.072
				c0,3.52,0.64,10.112,1.237,15.616c-1.579,1.003-3.029,2.24-4.288,3.669c-3.797,4.309-5.547,10.005-4.821,15.659l2.304,18.56
				c0.875,6.933,5.291,12.693,11.797,15.531c2.389,11.627,7.979,22.891,15.765,31.829l-1.557,6.272l-32.021,8
				c-25.92,6.485-44.053,29.696-44.053,56.448c0,2.837,1.109,5.568,3.115,7.552s4.715,3.115,7.552,3.115l213.355-0.043
				c5.888,0,10.667-4.779,10.667-10.667C512.021,197.237,493.909,174.027,467.968,167.563z M300.224,213.323
				c3.669-12.16,13.504-21.845,26.389-25.088l38.229-9.557c3.819-0.96,6.805-3.947,7.765-7.765l4.544-18.197
				c0.939-3.755-0.235-7.723-3.072-10.368c-8.299-7.808-13.803-19.221-14.699-30.528c-0.448-5.525-5.184-8.597-10.752-8.597
				l-2.752-16.981c3.072,0,5.973-1.301,8-3.605c2.027-2.283,2.965-5.333,2.581-8.384c-0.811-6.443-2.112-18.091-2.112-21.845
				c0-11.051,0-21.483,31.189-21.803c2.176-0.021,4.309-0.704,6.101-1.984c10.133-7.275,21.845-7.275,27.456-7.275
				c11.029,0,18.325,2.965,22.336,9.088c4.331,6.635,2.56,8.512,1.365,9.813l-4.629,4.629c-1.877,1.877-2.987,4.373-3.115,7.019
				l-1.131,23.232c-0.128,2.901,0.213,4.928,2.197,7.04c2.005,2.112,4.053,2.539,6.955,2.56l-1.365,17.344
				c-5.568,0-10.176,4.267-10.624,9.813c-0.939,11.499-6.848,23.424-15.424,31.125c-2.923,2.624-4.181,6.677-3.221,10.517
				l4.352,17.429c0.96,3.819,3.925,6.827,7.765,7.765l38.229,9.557c12.843,3.221,22.656,12.907,26.325,25.088L300.224,213.323z"/>
			<path d="M480,256.011c-5.888,0-10.667,4.779-10.667,10.667v128c0,5.888-4.8,10.667-10.667,10.667h-16.917l3.093-3.029
				c4.16-4.16,4.16-10.923,0-15.083s-10.923-4.16-15.083,0l-21.269,21.269c-0.213,0.213-0.427,0.448-0.64,0.683
				c-1.387,1.643-2.219,3.605-2.453,5.632c-0.085,0.619-0.107,1.259-0.064,1.877c0.149,2.475,1.173,4.928,3.051,6.848
				c0.021,0,0.021,0,0.021,0s0,0,0.021,0c0,0.021,0.021,0.021,0.021,0.021l21.333,21.333c2.091,2.069,4.821,3.115,7.552,3.115
				c2.731,0,5.461-1.024,7.531-3.115c2.069-2.091,3.115-4.821,3.115-7.552c0-2.731-1.024-5.461-3.115-7.552l-3.115-3.115h16.917
				c17.643,0,32-14.357,32-32v-128C490.667,260.789,485.888,256.011,480,256.011z"/>
			<path d="M330.667,362.677h-85.333c-5.888,0-10.667,4.779-10.667,10.667c0,5.888,4.779,10.667,10.667,10.667h85.333
				c5.888,0,10.667-4.779,10.667-10.667C341.333,367.456,336.555,362.677,330.667,362.677z"/>
		</g>
	</g>
</g>
<g>
</g>
<g>
</g>
<g>
</g>
<g>
</g>
<g>
</g>
<g>
</g>
<g>
</g>
<g>
</g>
<g>
</g>
<g>
</g>
<g>
</g>
<g>
</g>
<g>
</g>
<g>
</g>
<g>
</g>
</svg>
