<?xml version="1.0" encoding="iso-8859-1"?>
<!-- Generator: Adobe Illustrator 19.0.0, SVG Export Plug-In . SVG Version: 6.00 Build 0)  -->
<svg version="1.1" id="Capa_1" xmlns="http://www.w3.org/2000/svg" xmlns:xlink="http://www.w3.org/1999/xlink" x="0px" y="0px"
	 viewBox="0 0 512.021 512.021" style="enable-background:new 0 0 512.021 512.021;" xml:space="preserve">
<g>
	<g>
		<g>
			<path d="M394.667,42.677c-5.888,0-10.667,4.779-10.667,10.667v42.667c0,5.888,4.779,10.667,10.667,10.667
				s10.667-4.779,10.667-10.667V53.344C405.333,47.456,400.555,42.677,394.667,42.677z"/>
			<path d="M352,42.677c-5.888,0-10.667,4.779-10.667,10.667v42.667c0,5.888,4.779,10.667,10.667,10.667
				c5.888,0,10.667-4.779,10.667-10.667V53.344C362.667,47.456,357.888,42.677,352,42.677z"/>
			<path d="M74.667,42.677c-17.643,0-32,14.357-32,32c0,17.643,14.357,32,32,32c17.643,0,32-14.357,32-32
				C106.667,57.035,92.309,42.677,74.667,42.677z M74.667,85.344C68.779,85.344,64,80.565,64,74.677s4.779-10.667,10.667-10.667
				s10.667,4.779,10.667,10.667S80.555,85.344,74.667,85.344z"/>
			<path d="M309.333,42.677c-5.888,0-10.667,4.779-10.667,10.667v42.667c0,5.888,4.779,10.667,10.667,10.667S320,101.899,320,96.011
				V53.344C320,47.456,315.221,42.677,309.333,42.677z"/>
			<path d="M437.333,42.677c-5.888,0-10.667,4.779-10.667,10.667v42.667c0,5.888,4.779,10.667,10.667,10.667
				c5.888,0,10.667-4.779,10.667-10.667V53.344C448,47.456,443.221,42.677,437.333,42.677z"/>
			<path d="M74.667,213.344c-17.643,0-32,14.357-32,32c0,17.643,14.357,32,32,32c17.643,0,32-14.357,32-32
				C106.667,227.701,92.309,213.344,74.667,213.344z M74.667,256.011c-5.888,0-10.667-4.779-10.667-10.667
				s4.779-10.667,10.667-10.667s10.667,4.779,10.667,10.667S80.555,256.011,74.667,256.011z"/>
			<path d="M416.021,469.344c5.909,0,10.667-4.779,10.688-10.667v-80.875l24.427,24.427c2.091,2.069,4.8,3.115,7.552,3.115
				c2.731,0,5.461-1.045,7.531-3.115c4.16-4.16,4.16-10.923,0-15.083l-42.667-42.667c-0.939-0.939-2.027-1.579-3.157-2.091
				c-0.107-0.064-0.171-0.192-0.277-0.235c-0.021,0-0.064,0-0.085,0c-1.707-0.683-3.52-0.768-5.312-0.533
				c-0.512,0.064-0.96,0.149-1.451,0.277c-1.728,0.448-3.371,1.195-4.736,2.539c-0.021,0.021-0.043,0.021-0.064,0.021
				l-42.667,42.667c-4.16,4.16-4.16,10.923,0,15.083c4.16,4.16,10.923,4.16,15.083,0l24.448-24.448v80.917
				C405.355,464.565,410.133,469.344,416.021,469.344z"/>
			<path d="M501.355,448.011c-5.888,0-10.667,4.779-10.667,10.667v32H341.355v-32c0-5.888-4.779-10.667-10.667-10.667
				s-10.667,4.779-10.667,10.667v42.667c0,5.888,4.779,10.667,10.667,10.667h170.667c5.909,0,10.667-4.779,10.667-10.667v-42.667
				C512.021,452.789,507.243,448.011,501.355,448.011z"/>
			<path d="M437.333,213.344c-5.888,0-10.667,4.779-10.667,10.667v42.667c0,5.888,4.779,10.667,10.667,10.667
				c5.888,0,10.667-4.779,10.667-10.667v-42.667C448,218.123,443.221,213.344,437.333,213.344z"/>
			<path d="M324.715,394.677c0-5.888-4.779-10.667-10.667-10.667H256v-10.667c0-5.888-4.779-10.667-10.667-10.667h-10.667v-10.667
				c0-5.888-4.779-10.667-10.667-10.667h-10.667v-21.333h245.333c29.397,0,53.333-23.936,53.333-53.333v-42.667
				c0-29.397-23.936-53.333-53.333-53.333H213.333v-21.333h245.333c29.397,0,53.333-23.936,53.333-53.333V53.344
				c0-29.397-23.936-53.333-53.333-53.333H53.333C23.936,0.011,0,23.947,0,53.344v42.667c0,29.397,23.936,53.333,53.333,53.333H192
				v21.333H53.333C23.936,170.677,0,194.613,0,224.011v42.667c0,29.397,23.936,53.333,53.333,53.333H192v21.333h-10.667
				c-5.888,0-10.667,4.779-10.667,10.667v10.667H160c-5.888,0-10.667,4.779-10.667,10.667v10.667h-96
				c-5.888,0-10.667,4.779-10.667,10.667s4.779,10.667,10.667,10.667h96v10.667c0,5.888,4.779,10.667,10.667,10.667h85.333
				c5.888,0,10.667-4.779,10.667-10.667v-10.667h58.069C319.936,405.344,324.715,400.565,324.715,394.677z M53.333,128.011
				c-17.643,0-32-14.357-32-32V53.344c0-17.643,14.357-32,32-32h405.333c17.643,0,32,14.357,32,32v42.667c0,17.643-14.357,32-32,32
				H53.333z M53.333,298.677c-17.643,0-32-14.357-32-32v-42.667c0-17.643,14.357-32,32-32h405.333c17.643,0,32,14.357,32,32v42.667
				c0,17.643-14.357,32-32,32H53.333z M234.667,405.344h-64v-21.333h10.667c5.888,0,10.667-4.779,10.667-10.667v-10.667h21.333
				v10.667c0,5.888,4.779,10.667,10.667,10.667h10.667V405.344z"/>
			<path d="M309.333,213.344c-5.888,0-10.667,4.779-10.667,10.667v42.667c0,5.888,4.779,10.667,10.667,10.667
				S320,272.565,320,266.677v-42.667C320,218.123,315.221,213.344,309.333,213.344z"/>
			<path d="M352,213.344c-5.888,0-10.667,4.779-10.667,10.667v42.667c0,5.888,4.779,10.667,10.667,10.667
				c5.888,0,10.667-4.779,10.667-10.667v-42.667C362.667,218.123,357.888,213.344,352,213.344z"/>
			<path d="M394.667,213.344c-5.888,0-10.667,4.779-10.667,10.667v42.667c0,5.888,4.779,10.667,10.667,10.667
				s10.667-4.779,10.667-10.667v-42.667C405.333,218.123,400.555,213.344,394.667,213.344z"/>
		</g>
	</g>
</g>
<g>
</g>
<g>
</g>
<g>
</g>
<g>
</g>
<g>
</g>
<g>
</g>
<g>
</g>
<g>
</g>
<g>
</g>
<g>
</g>
<g>
</g>
<g>
</g>
<g>
</g>
<g>
</g>
<g>
</g>
</svg>
