<?xml version="1.0" encoding="iso-8859-1"?>
<!-- Generator: Adobe Illustrator 19.0.0, SVG Export Plug-In . SVG Version: 6.00 Build 0)  -->
<svg version="1.1" id="Capa_1" xmlns="http://www.w3.org/2000/svg" xmlns:xlink="http://www.w3.org/1999/xlink" x="0px" y="0px"
	 viewBox="0 0 512 512" style="enable-background:new 0 0 512 512;" xml:space="preserve">
<g>
	<g>
		<g>
			<path d="M405.333,245.333V224c0-5.888-4.779-10.667-10.667-10.667S384,218.112,384,224v21.333
				c0,5.888,4.779,10.667,10.667,10.667S405.333,251.221,405.333,245.333z"/>
			<path d="M362.667,251.627V224c0-5.888-4.779-10.667-10.667-10.667c-5.888,0-10.667,4.779-10.667,10.667v27.627
				c0,5.888,4.779,10.667,10.667,10.667C357.888,262.293,362.667,257.515,362.667,251.627z"/>
			<path d="M402.219,323.136c-1.003-1.003-2.176-1.771-3.499-2.325c-0.747-0.299-1.515-0.341-2.304-0.469
				c-0.576-0.085-1.131-0.341-1.749-0.341c-0.811,0-1.536,0.299-2.283,0.469c-0.576,0.128-1.195,0.128-1.749,0.363
				c-1.344,0.555-2.539,1.365-3.563,2.368l-42.603,42.603c-4.16,4.16-4.16,10.923,0,15.083c4.16,4.16,10.923,4.16,15.083,0
				L384,356.437v102.229c0,5.888,4.779,10.667,10.667,10.667s10.667-4.757,10.667-10.667V356.437l24.448,24.448
				c2.091,2.069,4.821,3.115,7.552,3.115c2.709,0,5.44-1.024,7.552-3.115c4.16-4.16,4.16-10.923,0-15.083L402.219,323.136z"/>
			<path d="M448,251.627V224c0-5.888-4.779-10.667-10.667-10.667c-5.888,0-10.667,4.779-10.667,10.667v27.627
				c0,5.888,4.779,10.667,10.667,10.667C443.221,262.293,448,257.515,448,251.627z"/>
			<path d="M320,266.667V224c0-5.888-4.779-10.667-10.667-10.667s-10.667,4.779-10.667,10.667v42.667
				c0,5.888,4.779,10.667,10.667,10.667S320,272.555,320,266.667z"/>
			<path d="M394.667,277.333c-64.704,0-117.333,52.629-117.333,117.333S329.963,512,394.667,512
				C459.349,512,512,459.371,512,394.667S459.371,277.333,394.667,277.333z M394.667,490.667c-52.928,0-96-43.072-96-96
				s43.072-96,96-96s96,43.072,96,96S447.595,490.667,394.667,490.667z"/>
			<path d="M74.667,42.667c-17.643,0-32,14.357-32,32c0,17.643,14.357,32,32,32c17.643,0,32-14.357,32-32
				C106.667,57.024,92.309,42.667,74.667,42.667z M74.667,85.333C68.779,85.333,64,80.555,64,74.667S68.779,64,74.667,64
				c5.867,0,10.667,4.779,10.667,10.667S80.555,85.333,74.667,85.333z"/>
			<path d="M42.667,245.333c0,17.643,14.357,32,32,32c17.643,0,32-14.357,32-32c0-17.643-14.357-32-32-32
				C57.024,213.333,42.667,227.691,42.667,245.333z M85.333,245.333c0,5.888-4.779,10.667-10.667,10.667S64,251.221,64,245.333
				s4.779-10.667,10.667-10.667C80.533,234.667,85.333,239.445,85.333,245.333z"/>
			<path d="M352,42.667c-5.888,0-10.667,4.779-10.667,10.667V96c0,5.888,4.779,10.667,10.667,10.667
				c5.888,0,10.667-4.779,10.667-10.667V53.333C362.667,47.445,357.888,42.667,352,42.667z"/>
			<path d="M437.333,42.667c-5.888,0-10.667,4.779-10.667,10.667V96c0,5.888,4.779,10.667,10.667,10.667
				c5.888,0,10.667-4.779,10.667-10.667V53.333C448,47.445,443.221,42.667,437.333,42.667z"/>
			<path d="M394.667,42.667c-5.888,0-10.667,4.779-10.667,10.667V96c0,5.888,4.779,10.667,10.667,10.667s10.667-4.779,10.667-10.667
				V53.333C405.333,47.445,400.555,42.667,394.667,42.667z"/>
			<path d="M458.667,149.333C488.064,149.333,512,125.397,512,96V53.333C512,23.936,488.064,0,458.667,0H53.333
				C23.936,0,0,23.936,0,53.333V96c0,29.397,23.936,53.333,53.333,53.333H192v21.333H53.333C23.936,170.667,0,194.603,0,224v42.667
				C0,296.064,23.936,320,53.333,320H192v21.333h-10.667c-5.888,0-10.667,4.779-10.667,10.667v10.667H160
				c-5.888,0-10.667,4.779-10.667,10.667V384h-96c-5.888,0-10.667,4.779-10.667,10.667s4.779,10.667,10.667,10.667h96V416
				c0,5.888,4.779,10.667,10.667,10.667h85.333c5.888,0,10.667-4.779,10.667-10.667v-42.667c0-5.888-4.779-10.667-10.667-10.667
				h-10.667V352c0-5.888-4.779-10.667-10.667-10.667h-10.667V320h58.965c5.888,0,10.667-4.757,10.667-10.645
				s-4.779-10.667-10.667-10.667h-69.525c-0.043,0-0.064-0.021-0.107-0.021s-0.064,0.021-0.107,0.021H53.333
				c-17.643,0-32-14.357-32-32v-42.667c0-17.643,14.357-32,32-32h405.333c17.643,0,32,14.357,32,32v42.667
				c0,4.821-1.216,9.643-3.584,14.336c-2.667,5.248-0.576,11.669,4.693,14.336c5.205,2.667,11.669,0.555,14.336-4.693
				c3.904-7.723,5.888-15.787,5.888-24V224c0-29.397-23.936-53.333-53.333-53.333H213.333v-21.333H458.667z M213.333,362.667v10.667
				c0,5.888,4.779,10.667,10.667,10.667h10.667v21.333h-64V384h10.667c5.888,0,10.667-4.779,10.667-10.667v-10.667H213.333z
				 M53.333,128c-17.643,0-32-14.357-32-32V53.333c0-17.643,14.357-32,32-32h405.333c17.643,0,32,14.357,32,32V96
				c0,17.643-14.357,32-32,32H53.333z"/>
			<path d="M309.333,42.667c-5.888,0-10.667,4.779-10.667,10.667V96c0,5.888,4.779,10.667,10.667,10.667S320,101.888,320,96V53.333
				C320,47.445,315.221,42.667,309.333,42.667z"/>
		</g>
	</g>
</g>
<g>
</g>
<g>
</g>
<g>
</g>
<g>
</g>
<g>
</g>
<g>
</g>
<g>
</g>
<g>
</g>
<g>
</g>
<g>
</g>
<g>
</g>
<g>
</g>
<g>
</g>
<g>
</g>
<g>
</g>
</svg>
