<?xml version="1.0" encoding="iso-8859-1"?>
<!-- Generator: Adobe Illustrator 19.0.0, SVG Export Plug-In . SVG Version: 6.00 Build 0)  -->
<svg version="1.1" id="Capa_1" xmlns="http://www.w3.org/2000/svg" xmlns:xlink="http://www.w3.org/1999/xlink" x="0px" y="0px"
	 viewBox="0 0 512 512" style="enable-background:new 0 0 512 512;" xml:space="preserve">
<g>
	<g>
		<g>
			<path d="M458.667,149.333C488.085,149.333,512,125.397,512,96V53.333C512,23.936,488.085,0,458.667,0H53.333
				C23.915,0,0,23.936,0,53.333V96c0,29.397,23.915,53.333,53.333,53.333H192v21.333H53.333C23.915,170.667,0,194.603,0,224v42.667
				C0,296.064,23.915,320,53.333,320H192v21.333h-10.667c-5.888,0-10.667,4.779-10.667,10.667v10.667H160
				c-5.888,0-10.667,4.779-10.667,10.667V384h-96c-5.888,0-10.667,4.779-10.667,10.667s4.779,10.667,10.667,10.667h96V416
				c0,5.888,4.779,10.667,10.667,10.667h85.333c5.888,0,10.667-4.779,10.667-10.667v-42.667c0-5.888-4.779-10.667-10.667-10.667
				h-10.667V352c0-5.888-4.779-10.667-10.667-10.667h-10.667V320h92.992c5.909,0,10.667-4.779,10.667-10.667
				s-4.779-10.667-10.667-10.667H53.333c-17.643,0-32-14.357-32-32V224c0-17.643,14.357-32,32-32h405.333c17.643,0,32,14.357,32,32
				v42.667c0,12.885-7.659,24.448-19.52,29.483c-5.419,2.283-7.957,8.555-5.675,13.973c2.304,5.44,8.533,7.957,13.995,5.675
				C499.221,307.435,512,288.149,512,266.667V224c0-29.397-23.915-53.333-53.333-53.333H213.333v-21.333H458.667z M224,384h10.667
				v21.333h-64V384h10.667c5.888,0,10.667-4.779,10.667-10.667v-10.667h21.333v10.667C213.333,379.221,218.112,384,224,384z
				 M53.333,128c-17.643,0-32-14.357-32-32V53.333c0-17.643,14.357-32,32-32h405.333c17.643,0,32,14.357,32,32V96
				c0,17.643-14.357,32-32,32H53.333z"/>
			<path d="M437.333,330.667c-5.888,0-10.667,4.779-10.667,10.667c0,5.888,4.779,10.667,10.667,10.667
				c29.419,0,53.333,23.936,53.333,53.333s-23.915,53.333-53.333,53.333h-16.917l13.781-13.781c4.16-4.16,4.16-10.923,0-15.083
				c-4.16-4.16-10.923-4.16-15.083,0l-32,32c-0.085,0.085-0.107,0.213-0.213,0.299c-0.853,0.917-1.6,1.963-2.091,3.136
				c-1.088,2.624-1.088,5.568,0,8.192c0.299,0.704,0.811,1.237,1.237,1.856c0.363,0.533,0.576,1.109,1.045,1.579l32,32
				c2.112,2.091,4.843,3.136,7.573,3.136s5.461-1.045,7.531-3.136c4.16-4.16,4.16-10.923,0-15.083L420.416,480h16.917
				C478.507,480,512,446.507,512,405.333S478.507,330.667,437.333,330.667z"/>
			<path d="M437.333,277.333c5.888,0,10.667-4.779,10.667-10.667V224c0-5.888-4.779-10.667-10.667-10.667
				c-5.888,0-10.667,4.779-10.667,10.667v42.667C426.667,272.555,431.445,277.333,437.333,277.333z"/>
			<path d="M362.667,266.667V224c0-5.888-4.779-10.667-10.667-10.667c-5.888,0-10.667,4.779-10.667,10.667v42.667
				c0,5.888,4.779,10.667,10.667,10.667C357.888,277.333,362.667,272.555,362.667,266.667z"/>
			<path d="M403.264,347.307c0.427-0.619,0.939-1.152,1.237-1.856c1.088-2.624,1.088-5.568,0-8.192
				c-0.491-1.173-1.216-2.219-2.091-3.136c-0.085-0.085-0.107-0.213-0.213-0.299l-32-32c-4.16-4.16-10.923-4.16-15.083,0
				c-4.16,4.16-4.16,10.923,0,15.083l13.781,13.781H352c-41.173,0-74.667,33.493-74.667,74.667s33.493,74.667,74.667,74.667
				c5.888,0,10.667-4.779,10.667-10.667s-4.779-10.667-10.667-10.667c-29.419,0-53.333-23.936-53.333-53.333
				s23.915-53.333,53.333-53.333h16.917l-13.803,13.803c-4.16,4.16-4.16,10.923,0,15.083c2.091,2.048,4.821,3.093,7.552,3.093
				s5.461-1.045,7.552-3.115l32-32C402.688,348.416,402.901,347.819,403.264,347.307z"/>
			<path d="M309.333,213.333c-5.888,0-10.667,4.779-10.667,10.667v42.667c0,5.888,4.779,10.667,10.667,10.667
				S320,272.555,320,266.667V224C320,218.112,315.221,213.333,309.333,213.333z"/>
			<path d="M405.333,266.667V224c0-5.888-4.779-10.667-10.667-10.667S384,218.112,384,224v42.667
				c0,5.888,4.779,10.667,10.667,10.667S405.333,272.555,405.333,266.667z"/>
			<path d="M352,42.667c-5.888,0-10.667,4.779-10.667,10.667V96c0,5.888,4.779,10.667,10.667,10.667
				c5.888,0,10.667-4.779,10.667-10.667V53.333C362.667,47.445,357.888,42.667,352,42.667z"/>
			<path d="M394.667,42.667c-5.888,0-10.667,4.779-10.667,10.667V96c0,5.888,4.779,10.667,10.667,10.667s10.667-4.779,10.667-10.667
				V53.333C405.333,47.445,400.555,42.667,394.667,42.667z"/>
			<path d="M437.333,42.667c-5.888,0-10.667,4.779-10.667,10.667V96c0,5.888,4.779,10.667,10.667,10.667
				c5.888,0,10.667-4.779,10.667-10.667V53.333C448,47.445,443.221,42.667,437.333,42.667z"/>
			<path d="M309.333,42.667c-5.888,0-10.667,4.779-10.667,10.667V96c0,5.888,4.779,10.667,10.667,10.667S320,101.888,320,96V53.333
				C320,47.445,315.221,42.667,309.333,42.667z"/>
			<path d="M42.667,245.333c0,17.643,14.357,32,32,32c17.643,0,32-14.357,32-32c0-17.643-14.357-32-32-32
				C57.024,213.333,42.667,227.691,42.667,245.333z M85.333,245.333c0,5.888-4.8,10.667-10.667,10.667
				C68.8,256,64,251.221,64,245.333s4.8-10.667,10.667-10.667C80.533,234.667,85.333,239.445,85.333,245.333z"/>
			<path d="M74.667,42.667c-17.643,0-32,14.357-32,32c0,17.643,14.357,32,32,32c17.643,0,32-14.357,32-32
				C106.667,57.024,92.309,42.667,74.667,42.667z M74.667,85.333C68.8,85.333,64,80.555,64,74.667S68.8,64,74.667,64
				c5.867,0,10.667,4.779,10.667,10.667S80.533,85.333,74.667,85.333z"/>
		</g>
	</g>
</g>
<g>
</g>
<g>
</g>
<g>
</g>
<g>
</g>
<g>
</g>
<g>
</g>
<g>
</g>
<g>
</g>
<g>
</g>
<g>
</g>
<g>
</g>
<g>
</g>
<g>
</g>
<g>
</g>
<g>
</g>
</svg>
