<?xml version="1.0" encoding="iso-8859-1"?>
<!-- Generator: Adobe Illustrator 19.0.0, SVG Export Plug-In . SVG Version: 6.00 Build 0)  -->
<svg version="1.1" id="Capa_1" xmlns="http://www.w3.org/2000/svg" xmlns:xlink="http://www.w3.org/1999/xlink" x="0px" y="0px"
	 viewBox="0 0 512 512" style="enable-background:new 0 0 512 512;" xml:space="preserve">
<g>
	<g>
		<g>
			<path d="M53.333,320c-5.888,0-10.667,4.779-10.667,10.667s4.779,10.667,10.667,10.667S64,336.555,64,330.667
				S59.221,320,53.333,320z"/>
			<path d="M330.667,320h-85.333c-5.888,0-10.667,4.779-10.667,10.667s4.779,10.667,10.667,10.667h85.333
				c5.888,0,10.667-4.779,10.667-10.667S336.555,320,330.667,320z"/>
			<path d="M330.667,405.333h-85.333c-5.888,0-10.667,4.779-10.667,10.667c0,5.888,4.779,10.667,10.667,10.667h85.333
				c5.888,0,10.667-4.779,10.667-10.667C341.333,410.112,336.555,405.333,330.667,405.333z"/>
			<path d="M53.333,405.333c-5.888,0-10.667,4.779-10.667,10.667c0,5.888,4.779,10.667,10.667,10.667S64,421.888,64,416
				C64,410.112,59.221,405.333,53.333,405.333z"/>
			<path d="M32,256c5.888,0,10.667-4.779,10.667-10.752v-85.333c0-5.888,4.8-10.667,10.667-10.667h16.939l-3.115,3.115
				c-4.16,4.16-4.16,10.923,0,15.083c4.16,4.16,10.923,4.16,15.083,0l21.269-21.269c0.213-0.213,0.427-0.448,0.64-0.683
				c1.387-1.643,2.219-3.605,2.453-5.632c0.085-0.619,0.107-1.259,0.064-1.877c-0.149-2.475-1.173-4.928-3.051-6.848
				c-0.021,0-0.021,0-0.021,0s0,0-0.021,0c0-0.021-0.021-0.021-0.021-0.021l-21.333-21.333c-4.16-4.16-10.923-4.16-15.083,0
				c-2.069,2.091-3.115,4.821-3.115,7.552c0,2.731,1.024,5.461,3.115,7.552L70.251,128H53.333c-17.643,0-32,14.357-32,32v85.333
				C21.333,251.221,26.112,256,32,256z"/>
			<path d="M512,74.667c0-17.643-14.357-32-32-32H160c-17.643,0-32,14.357-32,32v42.667c0,8.213,3.2,15.659,8.32,21.333
				C131.2,144.341,128,151.787,128,160v42.667c0,17.643,14.357,32,32,32h320c17.643,0,32-14.357,32-32V160
				c0-8.213-3.2-15.659-8.32-21.333c5.12-5.675,8.32-13.12,8.32-21.333V74.667z M490.667,202.667c0,5.888-4.8,10.667-10.667,10.667
				H160c-5.867,0-10.667-4.779-10.667-10.667V160c0-5.888,4.8-10.667,10.667-10.667h320c5.867,0,10.667,4.779,10.667,10.667V202.667
				z M490.667,117.333c0,5.888-4.8,10.667-10.667,10.667H160c-5.867,0-10.667-4.779-10.667-10.667V74.667
				c0-5.888,4.8-10.667,10.667-10.667h320c5.867,0,10.667,4.779,10.667,10.667V117.333z"/>
			<path d="M458.667,170.667h-85.333c-5.888,0-10.667,4.779-10.667,10.667S367.445,192,373.333,192h85.333
				c5.888,0,10.667-4.779,10.667-10.667S464.555,170.667,458.667,170.667z"/>
			<path d="M352,277.333H32c-17.643,0-32,14.357-32,32V352c0,8.213,3.2,15.659,8.32,21.333C3.2,379.008,0,386.453,0,394.667v42.667
				c0,17.643,14.357,32,32,32h320c17.643,0,32-14.357,32-32v-42.667c0-8.213-3.2-15.659-8.32-21.333
				c5.12-5.675,8.32-13.12,8.32-21.333v-42.667C384,291.691,369.643,277.333,352,277.333z M362.667,437.333
				c0,5.888-4.8,10.667-10.667,10.667H32c-5.867,0-10.667-4.779-10.667-10.667v-42.667c0-5.888,4.8-10.667,10.667-10.667h320
				c5.867,0,10.667,4.779,10.667,10.667V437.333z M362.667,352c0,5.888-4.8,10.667-10.667,10.667H32
				c-5.867,0-10.667-4.779-10.667-10.667v-42.667c0-5.888,4.8-10.667,10.667-10.667h320c5.867,0,10.667,4.779,10.667,10.667V352z"/>
			<path d="M458.667,85.333h-85.333c-5.888,0-10.667,4.779-10.667,10.667s4.779,10.667,10.667,10.667h85.333
				c5.888,0,10.667-4.779,10.667-10.667S464.555,85.333,458.667,85.333z"/>
			<path d="M181.333,85.333c-5.888,0-10.667,4.779-10.667,10.667s4.779,10.667,10.667,10.667S192,101.888,192,96
				S187.221,85.333,181.333,85.333z"/>
			<path d="M181.333,170.667c-5.888,0-10.667,4.779-10.667,10.667S175.445,192,181.333,192S192,187.221,192,181.333
				S187.221,170.667,181.333,170.667z"/>
			<path d="M480,256c-5.888,0-10.667,4.779-10.667,10.667V352c0,5.888-4.8,10.667-10.667,10.667h-16.917l3.093-3.029
				c4.16-4.16,4.16-10.923,0-15.083c-4.16-4.16-10.923-4.16-15.083,0l-21.269,21.269c-0.213,0.213-0.427,0.448-0.64,0.683
				c-1.387,1.643-2.219,3.605-2.453,5.632c-0.085,0.619-0.107,1.259-0.064,1.877c0.149,2.475,1.173,4.928,3.051,6.848
				c0.021,0,0.021,0,0.021,0s0,0,0.021,0c0,0.021,0.021,0.021,0.021,0.021l21.333,21.333c2.091,2.069,4.821,3.115,7.552,3.115
				c2.731,0,5.461-1.024,7.531-3.115s3.115-4.821,3.115-7.552s-1.024-5.461-3.115-7.552L441.749,384h16.917
				c17.643,0,32-14.357,32-32v-85.333C490.667,260.779,485.888,256,480,256z"/>
		</g>
	</g>
</g>
<g>
</g>
<g>
</g>
<g>
</g>
<g>
</g>
<g>
</g>
<g>
</g>
<g>
</g>
<g>
</g>
<g>
</g>
<g>
</g>
<g>
</g>
<g>
</g>
<g>
</g>
<g>
</g>
<g>
</g>
</svg>
