<?xml version="1.0" encoding="iso-8859-1"?>
<!-- Generator: Adobe Illustrator 19.0.0, SVG Export Plug-In . SVG Version: 6.00 Build 0)  -->
<svg version="1.1" id="Capa_1" xmlns="http://www.w3.org/2000/svg" xmlns:xlink="http://www.w3.org/1999/xlink" x="0px" y="0px"
	 viewBox="0 0 512 512" style="enable-background:new 0 0 512 512;" xml:space="preserve">
<g>
	<g>
		<g>
			<path d="M373.333,448H288c-5.888,0-10.667,4.779-10.667,10.667s4.779,10.667,10.667,10.667h85.333
				c5.888,0,10.667-4.779,10.667-10.667S379.221,448,373.333,448z"/>
			<path d="M53.333,448c-5.888,0-10.667,4.779-10.667,10.667s4.779,10.667,10.667,10.667S64,464.555,64,458.667
				S59.221,448,53.333,448z"/>
			<path d="M501.333,0h-384c-5.888,0-10.667,4.779-10.667,10.667V288c0,5.888,4.779,10.667,10.667,10.667S128,293.888,128,288
				V21.333h362.667v320h-32c-5.888,0-10.667,4.779-10.667,10.667c0,5.888,4.779,10.667,10.667,10.667h42.667
				c5.888,0,10.667-4.779,10.667-10.667V10.667C512,4.779,507.221,0,501.333,0z"/>
			<path d="M373.333,362.667H288c-5.888,0-10.667,4.779-10.667,10.667c0,5.888,4.779,10.667,10.667,10.667h85.333
				c5.888,0,10.667-4.779,10.667-10.667C384,367.445,379.221,362.667,373.333,362.667z"/>
			<path d="M444.011,66.368c-4.608-3.648-11.285-2.944-14.997,1.664l-76.203,95.275l-13.248-19.861
				c-2.048-3.072-5.589-4.971-9.259-4.736c-3.691,0.107-7.061,2.155-8.896,5.355l-34.112,59.669l-33.088-49.643
				c-2.027-3.029-5.355-4.757-9.131-4.757c-3.669,0.107-7.019,2.048-8.896,5.184l-64,106.667
				c-3.029,5.056-1.387,11.605,3.669,14.635c1.707,1.024,3.605,1.515,5.483,1.515c3.605,0,7.147-1.835,9.109-5.163l55.339-92.224
				l33.323,49.984c2.048,3.051,5.355,5.013,9.259,4.736c3.691-0.107,7.061-2.155,8.896-5.355l34.112-59.669l11.755,17.643
				c1.899,2.837,5.035,4.587,8.427,4.736c3.179,0.149,6.656-1.344,8.789-3.989l85.333-106.667
				C449.344,76.757,448.619,70.059,444.011,66.368z"/>
			<path d="M394.667,320H32c-17.643,0-32,14.357-32,32v42.667C0,402.88,3.2,410.325,8.32,416C3.2,421.675,0,429.12,0,437.333V480
				c0,17.643,14.357,32,32,32h362.667c17.643,0,32-14.357,32-32v-42.667c0-8.213-3.2-15.659-8.32-21.333
				c5.12-5.675,8.32-13.12,8.32-21.333V352C426.667,334.357,412.309,320,394.667,320z M405.333,480
				c0,5.888-4.8,10.667-10.667,10.667H32c-5.867,0-10.667-4.779-10.667-10.667v-42.667c0-5.888,4.8-10.667,10.667-10.667h362.667
				c5.867,0,10.667,4.779,10.667,10.667V480z M405.333,394.667c0,5.888-4.8,10.667-10.667,10.667H32
				c-5.867,0-10.667-4.779-10.667-10.667V352c0-5.888,4.8-10.667,10.667-10.667h362.667c5.867,0,10.667,4.779,10.667,10.667V394.667
				z"/>
			<path d="M53.333,362.667c-5.888,0-10.667,4.779-10.667,10.667c0,5.888,4.779,10.667,10.667,10.667S64,379.221,64,373.333
				C64,367.445,59.221,362.667,53.333,362.667z"/>
		</g>
	</g>
</g>
<g>
</g>
<g>
</g>
<g>
</g>
<g>
</g>
<g>
</g>
<g>
</g>
<g>
</g>
<g>
</g>
<g>
</g>
<g>
</g>
<g>
</g>
<g>
</g>
<g>
</g>
<g>
</g>
<g>
</g>
</svg>
