<?xml version="1.0" encoding="iso-8859-1"?>
<!-- Generator: Adobe Illustrator 19.0.0, SVG Export Plug-In . SVG Version: 6.00 Build 0)  -->
<svg version="1.1" id="Capa_1" xmlns="http://www.w3.org/2000/svg" xmlns:xlink="http://www.w3.org/1999/xlink" x="0px" y="0px"
	 viewBox="0 0 512.021 512.021" style="enable-background:new 0 0 512.021 512.021;" xml:space="preserve">
<g>
	<g>
		<g>
			<path d="M437.333,42.677c-5.888,0-10.667,4.779-10.667,10.667v42.667c0,5.888,4.779,10.667,10.667,10.667
				c5.888,0,10.667-4.779,10.667-10.667V53.344C448,47.456,443.221,42.677,437.333,42.677z"/>
			<path d="M394.667,42.677c-5.888,0-10.667,4.779-10.667,10.667v42.667c0,5.888,4.779,10.667,10.667,10.667
				s10.667-4.779,10.667-10.667V53.344C405.333,47.456,400.555,42.677,394.667,42.677z"/>
			<path d="M74.667,42.677c-17.643,0-32,14.357-32,32c0,17.643,14.357,32,32,32c17.643,0,32-14.357,32-32
				C106.667,57.035,92.309,42.677,74.667,42.677z M74.667,85.344C68.779,85.344,64,80.565,64,74.677s4.779-10.667,10.667-10.667
				s10.667,4.779,10.667,10.667S80.555,85.344,74.667,85.344z"/>
			<path d="M309.333,42.677c-5.888,0-10.667,4.779-10.667,10.667v42.667c0,5.888,4.779,10.667,10.667,10.667S320,101.899,320,96.011
				V53.344C320,47.456,315.221,42.677,309.333,42.677z"/>
			<path d="M352,42.677c-5.888,0-10.667,4.779-10.667,10.667v42.667c0,5.888,4.779,10.667,10.667,10.667
				c5.888,0,10.667-4.779,10.667-10.667V53.344C362.667,47.456,357.888,42.677,352,42.677z"/>
			<path d="M298.667,224.011v42.667c0,5.888,4.779,10.667,10.667,10.667S320,272.565,320,266.677v-42.667
				c0-5.888-4.779-10.667-10.667-10.667S298.667,218.123,298.667,224.011z"/>
			<path d="M291.925,384.011H256v-10.667c0-5.888-4.779-10.667-10.667-10.667h-10.667v-10.667c0-5.888-4.779-10.667-10.667-10.667
				h-10.667v-21.333h160.021c5.909,0,10.667-4.779,10.667-10.667s-4.779-10.667-10.667-10.667H53.333c-17.643,0-32-14.357-32-32
				v-42.667c0-17.643,14.357-32,32-32h405.333c17.643,0,32,14.357,32,32v42.667c0,11.797-6.613,22.613-17.259,28.203
				c-5.205,2.731-7.211,9.173-4.48,14.4c2.731,5.205,9.173,7.189,14.4,4.48C500.992,304.459,512,286.432,512,266.677v-42.667
				c0-29.397-23.936-53.333-53.333-53.333H213.333v-21.333h245.333c29.397,0,53.333-23.936,53.333-53.333V53.344
				c0-29.397-23.936-53.333-53.333-53.333H53.333C23.936,0.011,0,23.947,0,53.344v42.667c0,29.397,23.936,53.333,53.333,53.333H192
				v21.333H53.333C23.936,170.677,0,194.613,0,224.011v42.667c0,29.397,23.936,53.333,53.333,53.333H192v21.333h-10.667
				c-5.888,0-10.667,4.779-10.667,10.667v10.667H160c-5.888,0-10.667,4.779-10.667,10.667v10.667h-96
				c-5.888,0-10.667,4.779-10.667,10.667s4.779,10.667,10.667,10.667h96v10.667c0,5.888,4.779,10.667,10.667,10.667h85.333
				c5.888,0,10.667-4.779,10.667-10.667v-10.667h35.925c5.888,0,10.667-4.779,10.667-10.667S297.813,384.011,291.925,384.011z
				 M53.333,128.011c-17.643,0-32-14.357-32-32V53.344c0-17.643,14.357-32,32-32h405.333c17.643,0,32,14.357,32,32v42.667
				c0,17.643-14.357,32-32,32H53.333z M234.667,405.344h-64v-21.333h10.667c5.888,0,10.667-4.779,10.667-10.667v-10.667h21.333
				v10.667c0,5.888,4.779,10.667,10.667,10.667h10.667V405.344z"/>
			<path d="M42.667,245.344c0,17.643,14.357,32,32,32c17.643,0,32-14.357,32-32c0-17.643-14.357-32-32-32
				C57.024,213.344,42.667,227.701,42.667,245.344z M85.333,245.344c0,5.888-4.779,10.667-10.667,10.667S64,251.232,64,245.344
				s4.779-10.667,10.667-10.667S85.333,239.456,85.333,245.344z"/>
			<path d="M416.021,320.011c-5.888,0-10.667,4.779-10.667,10.667v10.667c-47.061,0-85.333,38.272-85.333,85.333
				s38.272,85.333,85.333,85.333s85.333-38.272,85.333-85.333h10.667c5.909,0,10.667-4.779,10.667-10.667
				C512,363.083,468.949,320.011,416.021,320.011z M405.355,490.677c-35.285,0-64-28.715-64-64s28.715-64,64-64v53.333
				c0,5.888,4.779,10.667,10.667,10.667h53.333C469.355,461.963,440.64,490.677,405.355,490.677z M426.688,405.344v-63.232
				c32.64,4.672,58.539,30.571,63.232,63.232H426.688z"/>
			<path d="M341.333,224.011v42.667c0,5.888,4.779,10.667,10.667,10.667c5.888,0,10.667-4.779,10.667-10.667v-42.667
				c0-5.888-4.779-10.667-10.667-10.667C346.112,213.344,341.333,218.123,341.333,224.011z"/>
			<path d="M426.667,224.011v42.667c0,5.888,4.779,10.667,10.667,10.667c5.888,0,10.667-4.779,10.667-10.667v-42.667
				c0-5.888-4.779-10.667-10.667-10.667C431.445,213.344,426.667,218.123,426.667,224.011z"/>
			<path d="M384,224.011v42.667c0,5.888,4.779,10.667,10.667,10.667s10.667-4.779,10.667-10.667v-42.667
				c0-5.888-4.779-10.667-10.667-10.667S384,218.123,384,224.011z"/>
		</g>
	</g>
</g>
<g>
</g>
<g>
</g>
<g>
</g>
<g>
</g>
<g>
</g>
<g>
</g>
<g>
</g>
<g>
</g>
<g>
</g>
<g>
</g>
<g>
</g>
<g>
</g>
<g>
</g>
<g>
</g>
<g>
</g>
</svg>
