<?xml version="1.0" encoding="iso-8859-1"?>
<!-- Generator: Adobe Illustrator 19.0.0, SVG Export Plug-In . SVG Version: 6.00 Build 0)  -->
<svg version="1.1" id="Capa_1" xmlns="http://www.w3.org/2000/svg" xmlns:xlink="http://www.w3.org/1999/xlink" x="0px" y="0px"
	 viewBox="0 0 512 512" style="enable-background:new 0 0 512 512;" xml:space="preserve">
<g>
	<g>
		<g>
			<path d="M309.333,277.333c5.888,0,10.667-4.779,10.667-10.667V224c0-5.888-4.779-10.667-10.667-10.667
				s-10.667,4.779-10.667,10.667v42.667C298.667,272.555,303.445,277.333,309.333,277.333z"/>
			<path d="M394.667,277.333c5.888,0,10.667-4.779,10.667-10.667V224c0-5.888-4.779-10.667-10.667-10.667S384,218.112,384,224
				v42.667C384,272.555,388.779,277.333,394.667,277.333z"/>
			<path d="M437.333,277.333c5.888,0,10.667-4.779,10.667-10.667V224c0-5.888-4.779-10.667-10.667-10.667
				c-5.888,0-10.667,4.779-10.667,10.667v42.667C426.667,272.555,431.445,277.333,437.333,277.333z"/>
			<path d="M446.955,390.037c-1.792-3.691-5.525-6.037-9.621-6.037H352c-5.888,0-10.667,4.779-10.667,10.667
				s4.779,10.667,10.667,10.667h63.125l-71.467,89.344c-2.56,3.2-3.051,7.573-1.28,11.285c1.792,3.691,5.525,6.037,9.621,6.037
				h85.333c5.888,0,10.667-4.779,10.667-10.667c0-5.888-4.779-10.667-10.667-10.667h-63.125l71.467-89.344
				C448.235,398.123,448.725,393.749,446.955,390.037z"/>
			<path d="M501.333,405.333h-22.741l31.616-47.424c2.176-3.285,2.389-7.488,0.533-10.965c-1.856-3.456-5.461-5.632-9.408-5.632
				h-42.667c-5.888,0-10.667,4.779-10.667,10.667s4.779,10.667,10.667,10.667h22.741l-31.616,47.424
				c-2.176,3.285-2.389,7.488-0.533,10.965c1.856,3.456,5.461,5.632,9.408,5.632h42.667c5.888,0,10.667-4.779,10.667-10.667
				C512,410.112,507.221,405.333,501.333,405.333z"/>
			<path d="M352,277.333c5.888,0,10.667-4.779,10.667-10.667V224c0-5.888-4.779-10.667-10.667-10.667
				c-5.888,0-10.667,4.779-10.667,10.667v42.667C341.333,272.555,346.112,277.333,352,277.333z"/>
			<path d="M437.333,42.667c-5.888,0-10.667,4.779-10.667,10.667V96c0,5.888,4.779,10.667,10.667,10.667
				c5.888,0,10.667-4.779,10.667-10.667V53.333C448,47.445,443.221,42.667,437.333,42.667z"/>
			<path d="M42.667,245.333c0,17.643,14.357,32,32,32c17.643,0,32-14.357,32-32c0-17.643-14.357-32-32-32
				C57.024,213.333,42.667,227.691,42.667,245.333z M74.667,234.667c5.888,0,10.667,4.8,10.667,10.667
				c0,5.867-4.779,10.667-10.667,10.667S64,251.2,64,245.333C64,239.467,68.779,234.667,74.667,234.667z"/>
			<path d="M394.667,42.667c-5.888,0-10.667,4.779-10.667,10.667V96c0,5.888,4.779,10.667,10.667,10.667s10.667-4.779,10.667-10.667
				V53.333C405.333,47.445,400.555,42.667,394.667,42.667z"/>
			<path d="M458.667,149.333C488.064,149.333,512,125.419,512,96V53.333C512,23.915,488.064,0,458.667,0H53.333
				C23.936,0,0,23.915,0,53.333V96c0,29.419,23.936,53.333,53.333,53.333H192v21.333H53.333C23.936,170.667,0,194.581,0,224v42.667
				C0,296.085,23.936,320,53.333,320H192v21.333h-10.667c-5.888,0-10.667,4.779-10.667,10.667v10.667H160
				c-5.888,0-10.667,4.779-10.667,10.667V384h-96c-5.888,0-10.667,4.779-10.667,10.667s4.779,10.667,10.667,10.667h96V416
				c0,5.888,4.779,10.667,10.667,10.667h85.333c5.888,0,10.667-4.779,10.667-10.667v-10.667h53.333
				c5.888,0,10.667-4.779,10.667-10.667S315.221,384,309.333,384H256v-10.667c0-5.888-4.779-10.667-10.667-10.667h-10.667V352
				c0-5.888-4.779-10.667-10.667-10.667h-10.667V320h245.333C488.064,320,512,296.085,512,266.667V224
				c0-29.419-23.936-53.333-53.333-53.333H213.333v-21.333H458.667z M224,384h10.667v21.333h-64V384h10.667
				c5.888,0,10.667-4.779,10.667-10.667v-10.667h21.333v10.667C213.333,379.221,218.112,384,224,384z M458.667,192
				c17.643,0,32,14.357,32,32v42.667c0,17.643-14.357,32-32,32H53.333c-17.643,0-32-14.357-32-32V224c0-17.643,14.357-32,32-32
				H458.667z M53.333,128c-17.643,0-32-14.357-32-32V53.333c0-17.643,14.357-32,32-32h405.333c17.643,0,32,14.357,32,32V96
				c0,17.643-14.357,32-32,32H53.333z"/>
			<path d="M352,42.667c-5.888,0-10.667,4.779-10.667,10.667V96c0,5.888,4.779,10.667,10.667,10.667
				c5.888,0,10.667-4.779,10.667-10.667V53.333C362.667,47.445,357.888,42.667,352,42.667z"/>
			<path d="M74.667,42.667c-17.643,0-32,14.357-32,32c0,17.643,14.357,32,32,32c17.643,0,32-14.357,32-32
				C106.667,57.024,92.309,42.667,74.667,42.667z M74.667,85.333c-5.888,0-10.667-4.8-10.667-10.667C64,68.8,68.779,64,74.667,64
				s10.667,4.8,10.667,10.667C85.333,80.533,80.555,85.333,74.667,85.333z"/>
			<path d="M309.333,42.667c-5.888,0-10.667,4.779-10.667,10.667V96c0,5.888,4.779,10.667,10.667,10.667S320,101.888,320,96V53.333
				C320,47.445,315.221,42.667,309.333,42.667z"/>
		</g>
	</g>
</g>
<g>
</g>
<g>
</g>
<g>
</g>
<g>
</g>
<g>
</g>
<g>
</g>
<g>
</g>
<g>
</g>
<g>
</g>
<g>
</g>
<g>
</g>
<g>
</g>
<g>
</g>
<g>
</g>
<g>
</g>
</svg>
