<?xml version="1.0" encoding="iso-8859-1"?>
<!-- Generator: Adobe Illustrator 19.0.0, SVG Export Plug-In . SVG Version: 6.00 Build 0)  -->
<svg version="1.1" id="Capa_1" xmlns="http://www.w3.org/2000/svg" xmlns:xlink="http://www.w3.org/1999/xlink" x="0px" y="0px"
	 viewBox="0 0 512.039 512.039" style="enable-background:new 0 0 512.039 512.039;" xml:space="preserve">
<g>
	<g>
		<g>
			<path d="M437.333,42.686c-5.888,0-10.667,4.779-10.667,10.667v42.667c0,5.888,4.779,10.667,10.667,10.667
				c5.888,0,10.667-4.779,10.667-10.667V53.353C448,47.465,443.221,42.686,437.333,42.686z"/>
			<path d="M394.667,42.686c-5.888,0-10.667,4.779-10.667,10.667v42.667c0,5.888,4.779,10.667,10.667,10.667
				c5.888,0,10.667-4.779,10.667-10.667V53.353C405.333,47.465,400.555,42.686,394.667,42.686z"/>
			<path d="M352,42.686c-5.888,0-10.667,4.779-10.667,10.667v42.667c0,5.888,4.779,10.667,10.667,10.667s10.667-4.779,10.667-10.667
				V53.353C362.667,47.465,357.888,42.686,352,42.686z"/>
			<path d="M181.333,320.019c5.888,0,10.667-4.779,10.667-10.667s-4.779-10.667-10.667-10.667h-128c-17.643,0-32-14.357-32-32
				v-42.667c0-17.643,14.357-32,32-32h405.333c17.643,0,32,14.357,32,32v42.667c0,5.888,4.779,10.667,10.667,10.667
				c5.888,0,10.667-4.779,10.667-10.667v-42.667c0-29.397-23.936-53.333-53.333-53.333H213.333v-21.333h245.333
				c29.397,0,53.333-23.936,53.333-53.333V53.353c0-29.397-23.936-53.333-53.333-53.333H53.333C23.936,0.019,0,23.955,0,53.353
				v42.667c0,29.397,23.936,53.333,53.333,53.333H192v21.333H53.333C23.936,170.686,0,194.622,0,224.019v42.667
				c0,29.397,23.936,53.333,53.333,53.333H181.333z M53.333,128.019c-17.643,0-32-14.357-32-32V53.353c0-17.643,14.357-32,32-32
				h405.333c17.643,0,32,14.357,32,32v42.667c0,17.643-14.357,32-32,32H53.333z"/>
			<path d="M74.667,42.686c-17.643,0-32,14.357-32,32c0,17.643,14.357,32,32,32c17.643,0,32-14.357,32-32
				C106.667,57.043,92.309,42.686,74.667,42.686z M74.667,85.353C68.779,85.353,64,80.574,64,74.686s4.779-10.667,10.667-10.667
				s10.667,4.779,10.667,10.667S80.555,85.353,74.667,85.353z"/>
			<path d="M309.333,42.686c-5.888,0-10.667,4.779-10.667,10.667v42.667c0,5.888,4.779,10.667,10.667,10.667S320,101.907,320,96.019
				V53.353C320,47.465,315.221,42.686,309.333,42.686z"/>
			<path d="M42.667,245.353c0,17.643,14.357,32,32,32c17.643,0,32-14.357,32-32c0-17.643-14.357-32-32-32
				C57.024,213.353,42.667,227.71,42.667,245.353z M85.333,245.353c0,5.888-4.779,10.667-10.667,10.667S64,251.241,64,245.353
				s4.779-10.667,10.667-10.667S85.333,239.465,85.333,245.353z"/>
			<path d="M352.021,448.019c-17.643,0-32,14.357-32,32c0,17.643,14.357,32,32,32c17.664,0,32-14.357,32-32
				C384.021,462.377,369.664,448.019,352.021,448.019z M352.021,490.686c-5.888,0-10.667-4.779-10.667-10.667
				c0-5.888,4.779-10.667,10.667-10.667c5.888,0,10.667,4.779,10.667,10.667C362.688,485.907,357.909,490.686,352.021,490.686z"/>
			<path d="M245.333,362.686h-10.667v-10.667c0-5.888-4.779-10.667-10.667-10.667h-10.667v-10.667
				c0-5.888-4.779-10.667-10.667-10.667S192,324.798,192,330.686v10.667h-10.667c-5.888,0-10.667,4.779-10.667,10.667v10.667H160
				c-5.888,0-10.667,4.779-10.667,10.667v10.667h-96c-5.888,0-10.667,4.779-10.667,10.667s4.779,10.667,10.667,10.667h96v10.667
				c0,5.888,4.779,10.667,10.667,10.667h85.333c5.888,0,10.667-4.779,10.667-10.667v-42.667
				C256,367.465,251.221,362.686,245.333,362.686z M234.667,405.353h-64v-21.333h10.667c5.888,0,10.667-4.779,10.667-10.667v-10.667
				h21.333v10.667c0,5.888,4.779,10.667,10.667,10.667h10.667V405.353z"/>
			<path d="M437.355,448.019c-17.643,0-32,14.357-32,32c0,17.643,14.357,32,32,32c17.664,0,32-14.357,32-32
				C469.355,462.377,454.997,448.019,437.355,448.019z M437.355,490.686c-5.888,0-10.667-4.779-10.667-10.667
				c0-5.888,4.779-10.667,10.667-10.667c5.888,0,10.667,4.779,10.667,10.667C448.021,485.907,443.243,490.686,437.355,490.686z"/>
			<path d="M509.781,302.782c-2.027-2.581-5.12-4.096-8.405-4.096H280.363l-3.307-13.248c-1.195-4.757-5.461-8.085-10.347-8.085
				h-42.667c-5.888,0-10.667,4.779-10.667,10.667s4.779,10.667,10.667,10.667h34.325l40.661,162.581
				c1.195,4.864,5.547,8.085,10.325,8.085c0.853,0,1.728-0.107,2.603-0.32c5.717-1.429,9.195-7.211,7.765-12.928L312,425.193
				l169.301-19.925c4.395-0.512,8.021-3.691,9.088-8l21.333-85.333C512.512,308.734,511.808,305.363,509.781,302.782z
				 M471.467,384.979L306.773,404.35l-21.077-84.331h202.005L471.467,384.979z"/>
			<path d="M341.333,224.019v42.667c0,5.888,4.779,10.667,10.667,10.667s10.667-4.779,10.667-10.667v-42.667
				c0-5.888-4.779-10.667-10.667-10.667S341.333,218.131,341.333,224.019z"/>
			<path d="M298.667,224.019v42.667c0,5.888,4.779,10.667,10.667,10.667S320,272.574,320,266.686v-42.667
				c0-5.888-4.779-10.667-10.667-10.667S298.667,218.131,298.667,224.019z"/>
			<path d="M384,224.019v42.667c0,5.888,4.779,10.667,10.667,10.667c5.888,0,10.667-4.779,10.667-10.667v-42.667
				c0-5.888-4.779-10.667-10.667-10.667C388.779,213.353,384,218.131,384,224.019z"/>
			<path d="M426.667,224.019v42.667c0,5.888,4.779,10.667,10.667,10.667c5.888,0,10.667-4.779,10.667-10.667v-42.667
				c0-5.888-4.779-10.667-10.667-10.667C431.445,213.353,426.667,218.131,426.667,224.019z"/>
		</g>
	</g>
</g>
<g>
</g>
<g>
</g>
<g>
</g>
<g>
</g>
<g>
</g>
<g>
</g>
<g>
</g>
<g>
</g>
<g>
</g>
<g>
</g>
<g>
</g>
<g>
</g>
<g>
</g>
<g>
</g>
<g>
</g>
</svg>
