<?xml version="1.0" encoding="iso-8859-1"?>
<!-- Generator: Adobe Illustrator 19.0.0, SVG Export Plug-In . SVG Version: 6.00 Build 0)  -->
<svg version="1.1" id="Capa_1" xmlns="http://www.w3.org/2000/svg" xmlns:xlink="http://www.w3.org/1999/xlink" x="0px" y="0px"
	 viewBox="0 0 512.049 512.049" style="enable-background:new 0 0 512.049 512.049;" xml:space="preserve">
<g>
	<g>
		<g>
			<path d="M53.358,362.716c-5.888,0-10.667,4.779-10.667,10.667s4.779,10.667,10.667,10.667s10.667-4.779,10.667-10.667
				S59.246,362.716,53.358,362.716z"/>
			<path d="M309.358,448.049h-85.333c-5.888,0-10.667,4.779-10.667,10.667c0,5.888,4.779,10.667,10.667,10.667h85.333
				c5.888,0,10.667-4.779,10.667-10.667C320.024,452.828,315.246,448.049,309.358,448.049z"/>
			<path d="M53.358,448.049c-5.888,0-10.667,4.779-10.667,10.667c0,5.888,4.779,10.667,10.667,10.667s10.667-4.779,10.667-10.667
				C64.024,452.828,59.246,448.049,53.358,448.049z"/>
			<path d="M509.976,198.364c-1.6-12.437-8.661-23.253-19.328-29.675c-10.517-6.357-23.147-7.509-34.859-3.115
				c-9.131,3.477-19.669-1.259-23.915-10.752c-4.992-11.157-11.115-21.803-18.219-31.68c-6.165-8.576-5.013-19.819,2.667-26.133
				c9.493-7.808,14.784-19.349,14.549-31.637c-0.235-12.48-6.123-24-16.128-31.573c-16.277-12.352-34.069-22.613-52.885-30.549
				c-11.627-4.885-24.597-4.245-35.563,1.813c-10.731,5.931-18.069,16.277-20.075,28.373c-1.643,9.856-10.987,16.384-21.44,15.339
				c-11.925-1.259-24.363-1.259-36.309,0c-10.709,0.896-19.776-5.483-21.419-15.339c-2.005-12.096-9.323-22.443-20.075-28.373
				c-10.987-6.037-23.957-6.677-35.563-1.792c-18.816,7.936-36.608,18.197-52.885,30.549c-9.984,7.573-15.872,19.093-16.128,31.573
				c-0.235,12.309,5.077,23.829,14.571,31.659c7.68,6.315,8.832,17.536,2.645,26.133c-7.104,9.899-13.248,20.565-18.219,31.68
				c-4.224,9.472-14.72,14.229-24.149,10.667c-11.477-4.331-24.107-3.157-34.624,3.179c-10.688,6.421-17.728,17.237-19.328,29.675
				c-1.323,10.219-1.984,20.565-1.984,30.763s0.661,20.544,1.984,30.763c1.6,12.437,8.661,23.275,19.328,29.696
				c10.496,6.336,23.125,7.467,34.837,3.093c6.037-2.283,12.821-1.067,18.155,3.243c4.587,3.712,11.307,2.987,14.997-1.6
				c3.712-4.587,2.987-11.307-1.6-14.997c-11.243-9.088-25.813-11.563-39.232-6.528c-5.355,2.027-11.243,1.493-16.128-1.472
				c-5.077-3.051-8.405-8.213-9.173-14.144c-1.216-9.323-1.813-18.752-1.813-28.032c0-9.28,0.597-18.709,1.813-28.032
				c0.747-5.952,4.096-11.093,9.152-14.144c4.885-2.944,10.752-3.499,16.341-1.387c19.691,7.381,42.048-2.283,50.901-22.016
				c4.373-9.813,9.792-19.221,16.064-27.947c12.8-17.835,10.048-41.515-6.421-55.083c-4.437-3.627-6.891-9.003-6.784-14.72
				c0.128-5.931,2.923-11.413,7.701-15.019c14.869-11.285,31.104-20.651,48.277-27.883c5.568-2.368,11.755-2.048,16.981,0.832
				c5.077,2.795,8.405,7.467,9.344,13.184c3.52,21.141,22.784,35.264,44.693,33.045c10.475-1.088,21.44-1.088,31.872,0
				c22.037,2.304,41.173-11.904,44.693-33.045c0.96-5.696,4.288-10.389,9.344-13.184c5.205-2.88,11.392-3.179,16.981-0.832
				c17.173,7.232,33.429,16.619,48.277,27.883c4.779,3.605,7.595,9.088,7.701,14.997c0.128,5.717-2.347,11.093-6.784,14.741
				c-16.469,13.568-19.221,37.248-6.4,55.061c6.251,8.725,11.648,18.133,16.064,27.968c8.832,19.733,31.232,29.397,51.115,21.931
				c5.397-2.027,11.243-1.451,16.128,1.472c5.056,3.051,8.384,8.213,9.152,14.144c1.216,9.323,1.813,18.752,1.813,28.032
				c0,9.28-0.597,18.731-1.813,28.032c-0.768,5.931-4.117,11.093-9.173,14.144c-4.885,2.944-10.773,3.52-16.363,1.387
				c-19.712-7.381-42.048,2.283-50.859,22.016c-4.416,9.856-9.813,19.264-16.064,27.968c-12.821,17.835-10.069,41.515,6.4,55.083
				c4.437,3.627,6.891,8.981,6.784,14.72c-0.107,5.909-2.901,11.392-7.68,14.997c-4.117,3.115-8.341,6.101-12.693,8.939
				c-4.928,3.221-6.336,9.835-3.115,14.763c2.048,3.136,5.44,4.843,8.939,4.843c2.005,0,4.032-0.555,5.824-1.728
				c4.757-3.115,9.408-6.379,13.931-9.813c10.005-7.595,15.872-19.115,16.128-31.595c0.235-12.288-5.077-23.808-14.571-31.637
				c-7.68-6.315-8.832-17.557-2.645-26.133c7.083-9.856,13.205-20.523,18.219-31.68c4.224-9.472,14.72-14.229,24.149-10.667
				c11.52,4.331,24.128,3.136,34.624-3.179c10.688-6.443,17.728-17.259,19.328-29.696c1.323-10.219,1.984-20.587,1.984-30.763
				C512.024,218.993,511.363,208.625,509.976,198.364z"/>
			<path d="M358.083,199.708c-12.821-39.808-49.536-66.539-91.392-66.539c-41.771,0-78.464,26.688-91.349,66.389
				c-3.093,9.536-4.651,19.499-4.651,29.611c0,24.619,9.323,48.043,26.219,65.92c2.091,2.219,4.907,3.349,7.744,3.349
				c2.645,0,5.269-0.96,7.339-2.88c4.288-4.053,4.48-10.795,0.427-15.083c-13.163-13.931-20.395-32.128-20.395-51.285
				c0-7.893,1.216-15.637,3.605-23.04c10.027-30.869,38.571-51.627,71.061-51.627c32.576,0,61.163,20.821,71.104,51.797
				c2.368,7.36,3.563,15.061,3.563,22.848c0,19.392-7.381,37.76-20.8,51.712c-4.096,4.245-3.947,11.008,0.299,15.083
				c2.048,2.005,4.715,2.987,7.381,2.987c2.816,0,5.589-1.109,7.701-3.285c17.259-17.963,26.752-41.579,26.752-66.496
				c0-10.027-1.536-19.904-4.587-29.397C358.104,199.75,358.083,199.75,358.083,199.708z"/>
			<path d="M309.358,362.716h-85.333c-5.888,0-10.667,4.779-10.667,10.667s4.779,10.667,10.667,10.667h85.333
				c5.888,0,10.667-4.779,10.667-10.667S315.246,362.716,309.358,362.716z"/>
			<path d="M330.691,320.049H32.024c-17.643,0-32,14.357-32,32v42.667c0,8.213,3.2,15.659,8.32,21.333
				c-5.12,5.675-8.32,13.12-8.32,21.333v42.667c0,17.643,14.357,32,32,32h298.667c17.643,0,32-14.357,32-32v-42.667
				c0-8.213-3.2-15.659-8.32-21.333c5.12-5.675,8.32-13.12,8.32-21.333v-42.667C362.691,334.406,348.334,320.049,330.691,320.049z
				 M341.358,480.049c0,5.888-4.779,10.667-10.667,10.667H32.024c-5.888,0-10.667-4.779-10.667-10.667v-42.667
				c0-5.888,4.779-10.667,10.667-10.667h298.667c5.888,0,10.667,4.779,10.667,10.667V480.049z M341.358,394.716
				c0,5.888-4.779,10.667-10.667,10.667H32.024c-5.888,0-10.667-4.779-10.667-10.667v-42.667c0-5.888,4.779-10.667,10.667-10.667
				h298.667c5.888,0,10.667,4.779,10.667,10.667V394.716z"/>
		</g>
	</g>
</g>
<g>
</g>
<g>
</g>
<g>
</g>
<g>
</g>
<g>
</g>
<g>
</g>
<g>
</g>
<g>
</g>
<g>
</g>
<g>
</g>
<g>
</g>
<g>
</g>
<g>
</g>
<g>
</g>
<g>
</g>
</svg>
