<?xml version="1.0" encoding="iso-8859-1"?>
<!-- Generator: Adobe Illustrator 19.0.0, SVG Export Plug-In . SVG Version: 6.00 Build 0)  -->
<svg version="1.1" id="Capa_1" xmlns="http://www.w3.org/2000/svg" xmlns:xlink="http://www.w3.org/1999/xlink" x="0px" y="0px"
	 viewBox="0 0 512 512" style="enable-background:new 0 0 512 512;" xml:space="preserve">
<g>
	<g>
		<g>
			<path d="M416,298.667c3.776,0,7.275-2.005,9.195-5.248C434.048,278.336,512,144.619,512,96c0-52.928-43.072-96-96-96
				c-52.928,0-96,43.072-96,96c0,48.619,77.931,182.336,86.805,197.419C408.725,296.661,412.224,298.667,416,298.667z M416,21.333
				c41.173,0,74.667,33.493,74.667,74.667c0,32.171-47.616,122.923-74.667,170.645C388.949,218.923,341.333,128.171,341.333,96
				C341.333,54.827,374.827,21.333,416,21.333z"/>
			<path d="M266.667,341.333h124.949c5.888,0,10.667-4.779,10.667-10.667S397.504,320,391.616,320H266.667
				c-5.888,0-10.667,4.779-10.667,10.667S260.779,341.333,266.667,341.333z"/>
			<path d="M469.333,96c0-29.397-23.936-53.333-53.333-53.333S362.667,66.603,362.667,96s23.936,53.333,53.333,53.333
				S469.333,125.397,469.333,96z M384,96c0-17.643,14.357-32,32-32c17.643,0,32,14.357,32,32c0,17.643-14.357,32-32,32
				C398.357,128,384,113.643,384,96z"/>
			<path d="M437.333,405.333H266.667c-5.888,0-10.667,4.779-10.667,10.667c0,5.888,4.779,10.667,10.667,10.667h170.667
				c5.888,0,10.667-4.779,10.667-10.667C448,410.112,443.221,405.333,437.333,405.333z"/>
			<path d="M42.667,309.333c0,17.643,14.357,32,32,32c17.643,0,32-14.357,32-32c0-17.643-14.357-32-32-32
				C57.024,277.333,42.667,291.691,42.667,309.333z M85.333,309.333c0,5.888-4.779,10.667-10.667,10.667S64,315.221,64,309.333
				s4.779-10.667,10.667-10.667S85.333,303.445,85.333,309.333z"/>
			<path d="M74.667,405.333c-17.643,0-32,14.357-32,32c0,17.643,14.357,32,32,32c17.643,0,32-14.357,32-32
				C106.667,419.691,92.309,405.333,74.667,405.333z M74.667,448C68.779,448,64,443.221,64,437.333
				c0-5.888,4.779-10.667,10.667-10.667s10.667,4.779,10.667,10.667C85.333,443.221,80.555,448,74.667,448z"/>
			<path d="M266.667,298.667H366.72c5.888,0,10.667-4.779,10.667-10.667s-4.779-10.667-10.667-10.667H266.667
				c-5.888,0-10.667,4.779-10.667,10.667S260.779,298.667,266.667,298.667z"/>
			<path d="M437.333,448H266.667c-5.888,0-10.667,4.779-10.667,10.667s4.779,10.667,10.667,10.667h170.667
				c5.888,0,10.667-4.779,10.667-10.667S443.221,448,437.333,448z"/>
			<path d="M490.432,245.333c-4.715-3.52-11.413-2.539-14.933,2.176c-3.52,4.736-2.539,11.413,2.176,14.933
				c8.256,6.144,12.992,15.467,12.992,25.557v42.667c0,17.643-14.357,32-32,32H53.333c-17.643,0-32-14.357-32-32V288
				c0-17.643,14.357-32,32-32h290.069c5.888,0,10.667-4.779,10.667-10.667s-4.779-10.667-10.667-10.667H53.333
				C23.936,234.667,0,258.603,0,288v42.667c0,17.493,8.597,32.939,21.675,42.667C8.597,383.061,0,398.507,0,416v42.667
				C0,488.064,23.936,512,53.333,512h405.333C488.064,512,512,488.064,512,458.667V416c0-17.493-8.597-32.939-21.675-42.667
				C503.403,363.605,512,348.16,512,330.667V288C512,271.104,504.128,255.552,490.432,245.333z M490.667,416v42.667
				c0,17.643-14.357,32-32,32H53.333c-17.643,0-32-14.357-32-32V416c0-17.643,14.357-32,32-32h405.333
				C476.309,384,490.667,398.357,490.667,416z"/>
		</g>
	</g>
</g>
<g>
</g>
<g>
</g>
<g>
</g>
<g>
</g>
<g>
</g>
<g>
</g>
<g>
</g>
<g>
</g>
<g>
</g>
<g>
</g>
<g>
</g>
<g>
</g>
<g>
</g>
<g>
</g>
<g>
</g>
</svg>
