<?xml version="1.0" encoding="iso-8859-1"?>
<!-- Generator: Adobe Illustrator 19.0.0, SVG Export Plug-In . SVG Version: 6.00 Build 0)  -->
<svg version="1.1" id="Capa_1" xmlns="http://www.w3.org/2000/svg" xmlns:xlink="http://www.w3.org/1999/xlink" x="0px" y="0px"
	 viewBox="0 0 512 512" style="enable-background:new 0 0 512 512;" xml:space="preserve">
<g>
	<g>
		<g>
			<path d="M42.667,288c0,5.888,4.779,10.667,10.667,10.667S64,293.888,64,288s-4.779-10.667-10.667-10.667
				S42.667,282.112,42.667,288z"/>
			<path d="M416,298.667c3.776,0,7.275-2.005,9.195-5.248C434.091,278.336,512,144.619,512,96c0-52.928-43.072-96-96-96
				c-52.928,0-96,43.072-96,96c0,48.619,77.909,182.336,86.805,197.419C408.725,296.661,412.224,298.667,416,298.667z M416,21.333
				c41.173,0,74.667,33.493,74.667,74.667c0,32.171-47.616,122.923-74.667,170.645C388.949,218.923,341.333,128.171,341.333,96
				C341.333,54.827,374.827,21.333,416,21.333z"/>
			<path d="M288,277.333c-5.888,0-10.667,4.779-10.667,10.667s4.779,10.667,10.667,10.667h78.72c5.909,0,10.667-4.779,10.667-10.667
				s-4.779-10.667-10.667-10.667H288z"/>
			<path d="M469.333,96c0-29.397-23.915-53.333-53.333-53.333c-29.419,0-53.333,23.936-53.333,53.333s23.915,53.333,53.333,53.333
				C445.419,149.333,469.333,125.397,469.333,96z M384,96c0-17.643,14.357-32,32-32c17.643,0,32,14.357,32,32
				c0,17.643-14.357,32-32,32C398.357,128,384,113.643,384,96z"/>
			<path d="M53.333,448c-5.888,0-10.667,4.779-10.667,10.667s4.779,10.667,10.667,10.667S64,464.555,64,458.667
				S59.221,448,53.333,448z"/>
			<path d="M373.333,362.667H288c-5.888,0-10.667,4.779-10.667,10.667c0,5.888,4.779,10.667,10.667,10.667h85.333
				c5.888,0,10.667-4.779,10.667-10.667C384,367.445,379.221,362.667,373.333,362.667z"/>
			<path d="M53.333,362.667c-5.888,0-10.667,4.779-10.667,10.667c0,5.888,4.779,10.667,10.667,10.667S64,379.221,64,373.333
				C64,367.445,59.221,362.667,53.333,362.667z"/>
			<path d="M394.667,320H32c-5.867,0-10.667-4.779-10.667-10.667v-42.667c0-5.888,4.8-10.667,10.667-10.667h311.424
				c5.888,0,10.667-4.779,10.667-10.667s-4.779-10.667-10.667-10.667H32c-17.643,0-32,14.357-32,32v42.667
				c0,8.213,3.2,15.659,8.32,21.333C3.2,336.341,0,343.787,0,352v42.667C0,402.88,3.2,410.325,8.32,416
				C3.2,421.675,0,429.12,0,437.333V480c0,17.643,14.357,32,32,32h362.667c17.643,0,32-14.357,32-32v-42.667
				c0-8.213-3.2-15.659-8.32-21.333c5.12-5.675,8.32-13.12,8.32-21.333V352C426.667,334.357,412.309,320,394.667,320z M405.333,480
				c0,5.888-4.8,10.667-10.667,10.667H32c-5.867,0-10.667-4.779-10.667-10.667v-42.667c0-5.888,4.8-10.667,10.667-10.667h362.667
				c5.867,0,10.667,4.779,10.667,10.667V480z M405.333,394.667c0,5.888-4.8,10.667-10.667,10.667H32
				c-5.867,0-10.667-4.779-10.667-10.667V352c0-5.888,4.8-10.667,10.667-10.667h362.667c5.867,0,10.667,4.779,10.667,10.667V394.667
				z"/>
			<path d="M373.333,448H288c-5.888,0-10.667,4.779-10.667,10.667s4.779,10.667,10.667,10.667h85.333
				c5.888,0,10.667-4.779,10.667-10.667S379.221,448,373.333,448z"/>
		</g>
	</g>
</g>
<g>
</g>
<g>
</g>
<g>
</g>
<g>
</g>
<g>
</g>
<g>
</g>
<g>
</g>
<g>
</g>
<g>
</g>
<g>
</g>
<g>
</g>
<g>
</g>
<g>
</g>
<g>
</g>
<g>
</g>
</svg>
