<?xml version="1.0" encoding="iso-8859-1"?>
<!-- Generator: Adobe Illustrator 19.0.0, SVG Export Plug-In . SVG Version: 6.00 Build 0)  -->
<svg version="1.1" id="Capa_1" xmlns="http://www.w3.org/2000/svg" xmlns:xlink="http://www.w3.org/1999/xlink" x="0px" y="0px"
	 viewBox="0 0 512 512" style="enable-background:new 0 0 512 512;" xml:space="preserve">
<g>
	<g>
		<g>
			<path d="M309.333,234.667c-5.888,0-10.667,4.779-10.667,10.667S303.445,256,309.333,256S320,251.221,320,245.333
				S315.221,234.667,309.333,234.667z"/>
			<path d="M74.667,192c-17.643,0-32,14.357-32,32s14.357,32,32,32c17.643,0,32-14.357,32-32S92.309,192,74.667,192z
				 M74.667,234.667C68.8,234.667,64,229.888,64,224s4.8-10.667,10.667-10.667c5.867,0,10.667,4.779,10.667,10.667
				S80.533,234.667,74.667,234.667z"/>
			<path d="M173.781,444.885c2.091,2.069,4.821,3.115,7.552,3.115c2.731,0,5.461-1.045,7.531-3.115l13.803-13.781l13.781,13.781
				c2.091,2.069,4.821,3.115,7.552,3.115s5.461-1.045,7.531-3.115c4.16-4.16,4.16-10.923,0-15.083L217.749,416l13.781-13.781
				c4.16-4.16,4.16-10.923,0-15.083c-4.16-4.16-10.923-4.16-15.083,0l-13.781,13.781l-13.781-13.781
				c-4.16-4.16-10.923-4.16-15.083,0c-4.16,4.16-4.16,10.923,0,15.083L187.563,416l-13.781,13.781
				C169.621,433.963,169.621,440.725,173.781,444.885z"/>
			<path d="M344.448,444.885c2.091,2.069,4.821,3.115,7.552,3.115c2.731,0,5.461-1.045,7.531-3.115l13.781-13.781l13.781,13.781
				c2.112,2.069,4.843,3.115,7.573,3.115s5.461-1.045,7.531-3.115c4.16-4.16,4.16-10.923,0-15.083L388.416,416l13.781-13.781
				c4.16-4.16,4.16-10.923,0-15.083c-4.16-4.16-10.923-4.16-15.083,0l-13.781,13.781l-13.781-13.781
				c-4.16-4.16-10.923-4.16-15.083,0c-4.16,4.16-4.16,10.923,0,15.083L358.251,416l-13.781,13.781
				C340.288,433.963,340.288,440.725,344.448,444.885z"/>
			<path d="M352,234.667c-5.888,0-10.667,4.779-10.667,10.667S346.112,256,352,256c5.888,0,10.667-4.779,10.667-10.667
				S357.888,234.667,352,234.667z"/>
			<path d="M259.115,444.885c2.091,2.069,4.821,3.115,7.552,3.115c2.731,0,5.461-1.045,7.531-3.115l13.781-13.781l13.781,13.781
				c2.112,2.069,4.843,3.115,7.573,3.115c2.731,0,5.461-1.045,7.531-3.115c4.16-4.16,4.16-10.923,0-15.083L303.083,416
				l13.781-13.781c4.16-4.16,4.16-10.923,0-15.083c-4.16-4.16-10.923-4.16-15.083,0L288,400.917l-13.781-13.781
				c-4.16-4.16-10.923-4.16-15.083,0c-4.16,4.16-4.16,10.923,0,15.083L272.917,416l-13.781,13.781
				C254.955,433.963,254.955,440.725,259.115,444.885z"/>
			<path d="M88.448,387.136c-4.16,4.16-4.16,10.923,0,15.083L102.229,416l-13.781,13.781c-4.16,4.16-4.16,10.923,0,15.083
				C90.539,446.955,93.269,448,96,448s5.461-1.045,7.531-3.115l13.803-13.781l13.781,13.781c2.091,2.069,4.821,3.115,7.552,3.115
				s5.461-1.045,7.531-3.115c4.16-4.16,4.16-10.923,0-15.083L132.416,416l13.781-13.781c4.16-4.16,4.16-10.923,0-15.083
				c-4.16-4.16-10.923-4.16-15.083,0l-13.781,13.781l-13.781-13.781C99.371,382.976,92.608,382.976,88.448,387.136z"/>
			<path d="M352,106.667c-5.888,0-10.667,4.779-10.667,10.667S346.112,128,352,128c5.888,0,10.667-4.779,10.667-10.667
				S357.888,106.667,352,106.667z"/>
			<path d="M394.667,106.667c-5.888,0-10.667,4.779-10.667,10.667S388.779,128,394.667,128s10.667-4.779,10.667-10.667
				S400.555,106.667,394.667,106.667z"/>
			<path d="M437.333,106.667c-5.888,0-10.667,4.779-10.667,10.667S431.445,128,437.333,128c5.888,0,10.667-4.779,10.667-10.667
				S443.221,106.667,437.333,106.667z"/>
			<path d="M512,117.333V74.667c0-29.397-23.915-53.333-53.333-53.333H53.333C23.915,21.333,0,45.269,0,74.667v42.667
				C0,134.827,8.597,150.272,21.653,160C8.597,169.728,0,185.173,0,202.667v42.667c0,29.397,23.915,53.333,53.333,53.333h181.333
				v42.667H96c-29.419,0-53.333,23.936-53.333,53.333v42.667c0,29.397,23.915,53.333,53.333,53.333h298.667
				c29.419,0,53.333-23.936,53.333-53.333v-42.667c0-29.397-23.915-53.333-53.333-53.333H256v-42.667h202.667
				c29.419,0,53.333-23.936,53.333-53.333v-42.667c0-17.493-8.597-32.939-21.653-42.667C503.403,150.272,512,134.827,512,117.333z
				 M394.667,362.667c17.643,0,32,14.357,32,32v42.667c0,17.643-14.357,32-32,32H96c-17.643,0-32-14.357-32-32v-42.667
				c0-17.643,14.357-32,32-32H394.667z M490.667,202.667v42.667c0,17.643-14.357,32-32,32H53.333c-17.643,0-32-14.357-32-32v-42.667
				c0-17.643,14.357-32,32-32h405.333C476.309,170.667,490.667,185.024,490.667,202.667z M490.667,117.333c0,17.643-14.357,32-32,32
				H53.333c-17.643,0-32-14.357-32-32V74.667c0-17.643,14.357-32,32-32h405.333c17.643,0,32,14.357,32,32V117.333z"/>
			<path d="M394.667,234.667c-5.888,0-10.667,4.779-10.667,10.667S388.779,256,394.667,256s10.667-4.779,10.667-10.667
				S400.555,234.667,394.667,234.667z"/>
			<path d="M437.333,234.667c-5.888,0-10.667,4.779-10.667,10.667S431.445,256,437.333,256c5.888,0,10.667-4.779,10.667-10.667
				S443.221,234.667,437.333,234.667z"/>
			<path d="M309.333,106.667c-5.888,0-10.667,4.779-10.667,10.667S303.445,128,309.333,128S320,123.221,320,117.333
				S315.221,106.667,309.333,106.667z"/>
			<path d="M74.667,64c-17.643,0-32,14.357-32,32c0,17.643,14.357,32,32,32c17.643,0,32-14.357,32-32
				C106.667,78.357,92.309,64,74.667,64z M74.667,106.667C68.8,106.667,64,101.888,64,96s4.8-10.667,10.667-10.667
				c5.867,0,10.667,4.779,10.667,10.667S80.533,106.667,74.667,106.667z"/>
		</g>
	</g>
</g>
<g>
</g>
<g>
</g>
<g>
</g>
<g>
</g>
<g>
</g>
<g>
</g>
<g>
</g>
<g>
</g>
<g>
</g>
<g>
</g>
<g>
</g>
<g>
</g>
<g>
</g>
<g>
</g>
<g>
</g>
</svg>
