<?xml version="1.0" encoding="iso-8859-1"?>
<!-- Generator: Adobe Illustrator 19.0.0, SVG Export Plug-In . SVG Version: 6.00 Build 0)  -->
<svg version="1.1" id="Capa_1" xmlns="http://www.w3.org/2000/svg" xmlns:xlink="http://www.w3.org/1999/xlink" x="0px" y="0px"
	 viewBox="0 0 512 512" style="enable-background:new 0 0 512 512;" xml:space="preserve">
<g>
	<g>
		<g>
			<path d="M437.333,42.667c-5.888,0-10.667,4.779-10.667,10.667V96c0,5.888,4.779,10.667,10.667,10.667
				c5.888,0,10.667-4.779,10.667-10.667V53.333C448,47.445,443.221,42.667,437.333,42.667z"/>
			<path d="M394.667,42.667c-5.888,0-10.667,4.779-10.667,10.667V96c0,5.888,4.779,10.667,10.667,10.667s10.667-4.779,10.667-10.667
				V53.333C405.333,47.445,400.555,42.667,394.667,42.667z"/>
			<path d="M352,42.667c-5.888,0-10.667,4.779-10.667,10.667V96c0,5.888,4.779,10.667,10.667,10.667
				c5.888,0,10.667-4.779,10.667-10.667V53.333C362.667,47.445,357.888,42.667,352,42.667z"/>
			<path d="M74.667,42.667c-17.643,0-32,14.357-32,32c0,17.643,14.357,32,32,32c17.643,0,32-14.357,32-32
				C106.667,57.024,92.309,42.667,74.667,42.667z M74.667,85.333C68.8,85.333,64,80.555,64,74.667S68.8,64,74.667,64
				c5.867,0,10.667,4.779,10.667,10.667S80.533,85.333,74.667,85.333z"/>
			<path d="M309.333,42.667c-5.888,0-10.667,4.779-10.667,10.667V96c0,5.888,4.779,10.667,10.667,10.667S320,101.888,320,96V53.333
				C320,47.445,315.221,42.667,309.333,42.667z"/>
			<path d="M458.667,341.333c-5.888,0-10.667,4.779-10.667,10.667c0,5.888,4.779,10.667,10.667,10.667s10.667-4.779,10.667-10.667
				C469.333,346.112,464.555,341.333,458.667,341.333z"/>
			<path d="M298.667,224v42.667c0,5.888,4.779,10.667,10.667,10.667S320,272.555,320,266.667V224
				c0-5.888-4.779-10.667-10.667-10.667S298.667,218.112,298.667,224z"/>
			<path d="M42.667,245.333c0,17.643,14.357,32,32,32c17.643,0,32-14.357,32-32c0-17.643-14.357-32-32-32
				C57.024,213.333,42.667,227.691,42.667,245.333z M85.333,245.333c0,5.888-4.8,10.667-10.667,10.667
				C68.8,256,64,251.221,64,245.333s4.8-10.667,10.667-10.667C80.533,234.667,85.333,239.445,85.333,245.333z"/>
			<path d="M322.005,394.667c0-5.888-4.779-10.667-10.667-10.667H256v-10.667c0-5.888-4.779-10.667-10.667-10.667h-10.667V352
				c0-5.888-4.779-10.667-10.667-10.667h-10.667V320h146.24c5.909,0,10.667-4.8,10.667-10.688s-4.779-10.667-10.667-10.667H53.333
				c-17.643,0-32-14.357-32-32v-42.667c0-17.643,14.357-32,32-32H202.56c0.043,0,0.064,0.021,0.107,0.021s0.064-0.021,0.107-0.021
				h255.893c17.643,0,32,14.357,32,32v42.667c0,4.352-0.875,8.555-2.581,12.544c-2.304,5.419,0.192,11.691,5.611,14.016
				c5.333,2.325,11.669-0.171,14.016-5.589c2.859-6.656,4.288-13.696,4.288-20.949V224c0-29.397-23.915-53.333-53.333-53.333
				H213.333v-21.333h245.333C488.085,149.333,512,125.397,512,96V53.333C512,23.936,488.085,0,458.667,0H53.333
				C23.915,0,0,23.936,0,53.333V96c0,29.397,23.915,53.333,53.333,53.333H192v21.333H53.333C23.915,170.667,0,194.603,0,224v42.667
				C0,296.064,23.915,320,53.333,320H192v21.333h-10.667c-5.888,0-10.667,4.779-10.667,10.667v10.667H160
				c-5.888,0-10.667,4.779-10.667,10.667V384h-96c-5.888,0-10.667,4.779-10.667,10.667s4.779,10.667,10.667,10.667h96V416
				c0,5.888,4.779,10.667,10.667,10.667h85.333c5.888,0,10.667-4.779,10.667-10.667v-10.667h55.339
				C317.227,405.333,322.005,400.555,322.005,394.667z M53.333,128c-17.643,0-32-14.357-32-32V53.333c0-17.643,14.357-32,32-32
				h405.333c17.643,0,32,14.357,32,32V96c0,17.643-14.357,32-32,32H53.333z M234.667,405.333h-64V384h10.667
				c5.888,0,10.667-4.779,10.667-10.667v-10.667h21.333v10.667c0,5.888,4.779,10.667,10.667,10.667h10.667V405.333z"/>
			<path d="M442.261,298.645c-38.464,0-69.739,31.275-69.739,69.739c0,3.179,0.235,6.357,0.725,9.621l-71.467,71.467
				c-1.984,2.005-3.115,4.715-3.115,7.552v44.309c0,5.888,4.779,10.667,10.667,10.667h44.309c2.837,0,5.547-1.131,7.531-3.115
				l71.467-71.467c3.285,0.512,6.485,0.747,9.6,0.747c38.464,0,69.76-31.296,69.76-69.76
				C512,329.941,480.725,298.645,442.261,298.645z M442.261,416.811c-3.349,0-6.869-0.427-10.795-1.323
				c-3.584-0.875-7.339,0.256-9.92,2.859l-72.32,72.32H320V461.44l72.299-72.32c2.603-2.603,3.691-6.357,2.859-9.941
				c-0.875-3.819-1.323-7.339-1.323-10.773c0-26.688,21.717-48.405,48.405-48.405s48.427,21.717,48.448,48.384
				C490.688,395.093,468.949,416.811,442.261,416.811z"/>
			<path d="M426.667,224v42.667c0,5.888,4.779,10.667,10.667,10.667c5.888,0,10.667-4.779,10.667-10.667V224
				c0-5.888-4.779-10.667-10.667-10.667C431.445,213.333,426.667,218.112,426.667,224z"/>
			<path d="M341.333,224v42.667c0,5.888,4.779,10.667,10.667,10.667c5.888,0,10.667-4.779,10.667-10.667V224
				c0-5.888-4.779-10.667-10.667-10.667C346.112,213.333,341.333,218.112,341.333,224z"/>
			<path d="M384,224v42.667c0,5.888,4.779,10.667,10.667,10.667s10.667-4.779,10.667-10.667V224c0-5.888-4.779-10.667-10.667-10.667
				S384,218.112,384,224z"/>
		</g>
	</g>
</g>
<g>
</g>
<g>
</g>
<g>
</g>
<g>
</g>
<g>
</g>
<g>
</g>
<g>
</g>
<g>
</g>
<g>
</g>
<g>
</g>
<g>
</g>
<g>
</g>
<g>
</g>
<g>
</g>
<g>
</g>
</svg>
