<?xml version="1.0" encoding="iso-8859-1"?>
<!-- Generator: Adobe Illustrator 19.0.0, SVG Export Plug-In . SVG Version: 6.00 Build 0)  -->
<svg version="1.1" id="Capa_1" xmlns="http://www.w3.org/2000/svg" xmlns:xlink="http://www.w3.org/1999/xlink" x="0px" y="0px"
	 viewBox="0 0 512 512" style="enable-background:new 0 0 512 512;" xml:space="preserve">
<g>
	<g>
		<g>
			<path d="M394.667,277.333c5.888,0,10.667-4.779,10.667-10.667V224c0-5.888-4.779-10.667-10.667-10.667S384,218.112,384,224
				v42.667C384,272.555,388.779,277.333,394.667,277.333z"/>
			<path d="M437.333,277.333c5.888,0,10.667-4.779,10.667-10.667V224c0-5.888-4.779-10.667-10.667-10.667
				c-5.888,0-10.667,4.779-10.667,10.667v42.667C426.667,272.555,431.445,277.333,437.333,277.333z"/>
			<path d="M352,277.333c5.888,0,10.667-4.779,10.667-10.667V224c0-5.888-4.779-10.667-10.667-10.667
				c-5.888,0-10.667,4.779-10.667,10.667v42.667C341.333,272.555,346.112,277.333,352,277.333z"/>
			<path d="M467.541,342.037c-15.531-2.475-31.445,1.835-43.413,11.989c-3.051,2.603-5.781,5.504-8.128,8.64
				c-2.347-3.136-5.077-6.037-8.128-8.64c-11.925-10.176-27.797-14.507-43.413-11.989C339.115,346.176,320,369.771,320,398.315
				c0,14.251,5.547,27.648,15.616,37.739l72.832,72.832c2.091,2.069,4.821,3.115,7.552,3.115c2.731,0,5.461-1.045,7.552-3.136
				l72.832-72.832C506.453,425.941,512,412.544,512,396.928C512,369.771,492.885,346.176,467.541,342.037z M481.301,420.949
				L416,486.251l-65.301-65.301c-6.037-6.037-9.365-14.08-9.365-24c0-16.832,11.413-31.381,26.539-33.835
				c1.856-0.299,3.691-0.448,5.504-0.448c7.595,0,14.805,2.624,20.693,7.616c7.168,6.101,11.264,14.997,11.264,24.384
				c0,5.888,4.779,10.667,10.667,10.667c5.888,0,10.667-4.779,10.667-10.667c0-9.387,4.096-18.283,11.264-24.384
				c7.275-6.208,16.597-8.768,26.197-7.168c15.125,2.453,26.539,17.003,26.539,35.2
				C490.667,406.869,487.339,414.912,481.301,420.949z"/>
			<path d="M458.667,149.333C488.085,149.333,512,125.397,512,96V53.333C512,23.936,488.085,0,458.667,0H53.333
				C23.915,0,0,23.936,0,53.333V96c0,29.397,23.915,53.333,53.333,53.333H192v21.333H53.333C23.915,170.667,0,194.603,0,224v42.667
				C0,296.064,23.915,320,53.333,320H192v21.333h-10.667c-5.888,0-10.667,4.779-10.667,10.667v10.667H160
				c-5.888,0-10.667,4.779-10.667,10.667V384h-96c-5.888,0-10.667,4.779-10.667,10.667s4.779,10.667,10.667,10.667h96V416
				c0,5.888,4.779,10.667,10.667,10.667h85.333c5.888,0,10.667-4.779,10.667-10.667v-10.667h32.085
				c5.888,0,10.667-4.779,10.667-10.667S293.973,384,288.085,384H256v-10.667c0-5.888-4.779-10.667-10.667-10.667h-10.667V352
				c0-5.888-4.779-10.667-10.667-10.667h-10.667V320h245.333C488.085,320,512,296.064,512,266.667V224
				c0-29.397-23.915-53.333-53.333-53.333H213.333v-21.333H458.667z M224,384h10.667v21.333h-64V384h10.667
				c5.888,0,10.667-4.779,10.667-10.667v-10.667h21.333v10.667C213.333,379.221,218.112,384,224,384z M458.667,192
				c17.643,0,32,14.357,32,32v42.667c0,17.643-14.357,32-32,32H53.333c-17.643,0-32-14.357-32-32V224c0-17.643,14.357-32,32-32
				H458.667z M53.333,128c-17.643,0-32-14.357-32-32V53.333c0-17.643,14.357-32,32-32h405.333c17.643,0,32,14.357,32,32V96
				c0,17.643-14.357,32-32,32H53.333z"/>
			<path d="M74.667,42.667c-17.643,0-32,14.357-32,32c0,17.643,14.357,32,32,32c17.643,0,32-14.357,32-32
				C106.667,57.024,92.309,42.667,74.667,42.667z M74.667,85.333C68.8,85.333,64,80.555,64,74.667S68.8,64,74.667,64
				c5.867,0,10.667,4.779,10.667,10.667S80.533,85.333,74.667,85.333z"/>
			<path d="M352,42.667c-5.888,0-10.667,4.779-10.667,10.667V96c0,5.888,4.779,10.667,10.667,10.667
				c5.888,0,10.667-4.779,10.667-10.667V53.333C362.667,47.445,357.888,42.667,352,42.667z"/>
			<path d="M309.333,277.333c5.888,0,10.667-4.779,10.667-10.667V224c0-5.888-4.779-10.667-10.667-10.667
				s-10.667,4.779-10.667,10.667v42.667C298.667,272.555,303.445,277.333,309.333,277.333z"/>
			<path d="M394.667,42.667c-5.888,0-10.667,4.779-10.667,10.667V96c0,5.888,4.779,10.667,10.667,10.667s10.667-4.779,10.667-10.667
				V53.333C405.333,47.445,400.555,42.667,394.667,42.667z"/>
			<path d="M309.333,42.667c-5.888,0-10.667,4.779-10.667,10.667V96c0,5.888,4.779,10.667,10.667,10.667S320,101.888,320,96V53.333
				C320,47.445,315.221,42.667,309.333,42.667z"/>
			<path d="M42.667,245.333c0,17.643,14.357,32,32,32c17.643,0,32-14.357,32-32c0-17.643-14.357-32-32-32
				C57.024,213.333,42.667,227.691,42.667,245.333z M74.667,234.667c5.867,0,10.667,4.779,10.667,10.667S80.533,256,74.667,256
				C68.8,256,64,251.221,64,245.333S68.8,234.667,74.667,234.667z"/>
			<path d="M437.333,42.667c-5.888,0-10.667,4.779-10.667,10.667V96c0,5.888,4.779,10.667,10.667,10.667
				c5.888,0,10.667-4.779,10.667-10.667V53.333C448,47.445,443.221,42.667,437.333,42.667z"/>
		</g>
	</g>
</g>
<g>
</g>
<g>
</g>
<g>
</g>
<g>
</g>
<g>
</g>
<g>
</g>
<g>
</g>
<g>
</g>
<g>
</g>
<g>
</g>
<g>
</g>
<g>
</g>
<g>
</g>
<g>
</g>
<g>
</g>
</svg>
