<?xml version="1.0" encoding="iso-8859-1"?>
<!-- Generator: Adobe Illustrator 19.0.0, SVG Export Plug-In . SVG Version: 6.00 Build 0)  -->
<svg version="1.1" id="Capa_1" xmlns="http://www.w3.org/2000/svg" xmlns:xlink="http://www.w3.org/1999/xlink" x="0px" y="0px"
	 viewBox="0 0 512.035 512.035" style="enable-background:new 0 0 512.035 512.035;" xml:space="preserve">
<g>
	<g>
		<g>
			<path d="M181.333,107.015c5.888,0,10.667-4.779,10.667-10.667s-4.779-10.667-10.667-10.667s-10.667,4.779-10.667,10.667
				S175.445,107.015,181.333,107.015z"/>
			<path d="M373.333,107.015h85.333c5.888,0,10.667-4.779,10.667-10.667s-4.779-10.667-10.667-10.667h-85.333
				c-5.888,0-10.667,4.779-10.667,10.667S367.445,107.015,373.333,107.015z"/>
			<path d="M138.667,192.348c5.888,0,10.667-4.779,10.667-10.667v-21.333c0-5.888,4.8-10.667,10.667-10.667h320
				c5.867,0,10.667,4.779,10.667,10.667v42.667c0,5.888-4.8,10.667-10.667,10.667H224c-5.888,0-10.667,4.779-10.667,10.667
				s4.779,10.667,10.667,10.667h256c5.867,0,10.667,4.779,10.667,10.667v42.667c0,5.888,4.779,10.667,10.667,10.667
				c5.888,0,10.667-4.779,10.667-10.667v-42.667c0-8.213-3.2-15.659-8.32-21.333c5.12-5.675,8.32-13.12,8.32-21.333v-42.667
				c0-8.213-3.2-15.659-8.32-21.333c5.12-5.675,8.32-13.12,8.32-21.333V75.015c0-17.643-14.357-32-32-32H160
				c-17.643,0-32,14.357-32,32v42.667c0,8.213,3.2,15.659,8.32,21.333c-5.12,5.675-8.32,13.12-8.32,21.333v21.333
				C128,187.57,132.779,192.348,138.667,192.348z M149.333,75.015c0-5.888,4.8-10.667,10.667-10.667h320
				c5.867,0,10.667,4.779,10.667,10.667v42.667c0,5.888-4.8,10.667-10.667,10.667H160c-5.867,0-10.667-4.779-10.667-10.667V75.015z"
				/>
			<path d="M373.333,256.348c-5.888,0-10.667,4.779-10.667,10.667s4.779,10.667,10.667,10.667h85.333
				c5.888,0,10.667-4.779,10.667-10.667s-4.779-10.667-10.667-10.667H373.333z"/>
			<path d="M510.912,368.903c-14.805-29.632-47.616-44.736-79.723-36.672l-69.141,17.28c-3.072-26.645-18.837-42.368-50.389-50.283
				L126.592,258.14c0.576-4.053,1.024-7.915,1.344-11.52c0.299-3.243-0.939-6.443-3.285-8.683
				c-18.283-17.323-91.392-22.933-113.365-24.235c-2.88-0.107-5.803,0.875-7.936,2.88C1.216,218.588,0,221.404,0,224.348v192
				c0,5.888,4.779,10.667,10.667,10.667h64c4.608,0,8.704-2.965,10.133-7.339c0.277-0.875,1.749-5.355,3.925-12.309l152.853,50.965
				c17.92,6.763,30.315,10.688,44.203,10.688c21.632-0.021,46.976-9.472,102.656-32.277l117.333-53.333
				c2.624-1.195,4.672-3.413,5.653-6.144C512.384,374.514,512.213,371.506,510.912,368.903z M66.88,405.682H21.333V235.783
				c34.283,2.709,71.275,8.597,84.736,15.125C100.395,297.628,74.816,380.615,66.88,405.682z M379.989,417.138
				c-89.685,36.757-92.821,35.584-131.243,21.077L94.997,386.972c8.768-29.035,20.971-72.107,27.968-107.776l183.787,40.832
				c23.616,5.888,33.131,15.211,34.432,34.688l-20.48,5.12c-7.595,1.899-15.701,2.091-23.403,0.555l-92.565-18.517
				c-5.504-1.195-11.371,2.581-12.544,8.363c-1.152,5.781,2.603,11.392,8.384,12.544l92.565,18.517
				c4.821,0.96,9.728,1.429,14.635,1.429c6.101,0,12.203-0.725,18.112-2.219l28.608-7.147c0.043,0,0.085,0,0.128,0l81.728-20.437
				c18.667-4.608,37.632,1.877,49.387,16.128L379.989,417.138z"/>
			<path d="M170.667,181.682c0,5.888,4.779,10.667,10.667,10.667S192,187.57,192,181.682s-4.779-10.667-10.667-10.667
				S170.667,175.772,170.667,181.682z"/>
			<path d="M458.667,192.348c5.888,0,10.667-4.779,10.667-10.667s-4.779-10.667-10.667-10.667h-85.333
				c-5.888,0-10.667,4.779-10.667,10.667s4.779,10.667,10.667,10.667H458.667z"/>
		</g>
	</g>
</g>
<g>
</g>
<g>
</g>
<g>
</g>
<g>
</g>
<g>
</g>
<g>
</g>
<g>
</g>
<g>
</g>
<g>
</g>
<g>
</g>
<g>
</g>
<g>
</g>
<g>
</g>
<g>
</g>
<g>
</g>
</svg>
