<?xml version="1.0" encoding="iso-8859-1"?>
<!-- Generator: Adobe Illustrator 19.0.0, SVG Export Plug-In . SVG Version: 6.00 Build 0)  -->
<svg version="1.1" id="Capa_1" xmlns="http://www.w3.org/2000/svg" xmlns:xlink="http://www.w3.org/1999/xlink" x="0px" y="0px"
	 viewBox="0 0 512.021 512.021" style="enable-background:new 0 0 512.021 512.021;" xml:space="preserve">
<g>
	<g>
		<g>
			<path d="M53.333,448.011c-5.909,0-10.667,4.779-10.667,10.667s4.757,10.667,10.667,10.667c5.909,0,10.667-4.779,10.667-10.667
				S59.221,448.011,53.333,448.011z"/>
			<path d="M330.667,448.011h-85.333c-5.888,0-10.667,4.779-10.667,10.667s4.779,10.667,10.667,10.667h85.333
				c5.888,0,10.667-4.779,10.667-10.667S336.555,448.011,330.667,448.011z"/>
			<path d="M96,298.677c5.888,0,10.667-4.779,10.709-10.773V181.237c0-16.021,11.819-29.333,27.221-31.637l-2.773,2.773
				c-4.16,4.16-4.16,10.923,0,15.083c4.16,4.16,10.923,4.16,15.083,0l21.269-21.269c0.213-0.213,0.427-0.448,0.64-0.683
				c1.387-1.643,2.219-3.605,2.453-5.632c0.085-0.619,0.107-1.259,0.064-1.877c-0.149-2.475-1.173-4.928-3.051-6.848
				c-0.021,0-0.021,0-0.021,0s0,0-0.021,0c0-0.021-0.021-0.021-0.021-0.021l-21.333-21.333c-4.16-4.16-10.923-4.16-15.083,0
				c-2.091,2.091-3.136,4.821-3.136,7.552c0,2.731,1.024,5.461,3.115,7.552l3.285,3.285c-27.413,2.176-49.067,25.173-49.067,53.163
				v106.667C85.333,293.899,90.112,298.677,96,298.677z"/>
			<path d="M330.667,362.677h-85.333c-5.888,0-10.667,4.779-10.667,10.667c0,5.888,4.779,10.667,10.667,10.667h85.333
				c5.888,0,10.667-4.779,10.667-10.667C341.333,367.456,336.555,362.677,330.667,362.677z"/>
			<path d="M480,256.011c-5.888,0-10.667,4.779-10.667,10.667v128c0,5.888-4.8,10.667-10.667,10.667h-16.917l3.093-3.029
				c4.16-4.16,4.16-10.923,0-15.083s-10.923-4.16-15.083,0l-21.269,21.269c-0.213,0.213-0.427,0.448-0.64,0.683
				c-1.387,1.643-2.219,3.605-2.453,5.632c-0.085,0.619-0.107,1.259-0.064,1.877c0.149,2.475,1.173,4.928,3.051,6.848
				c0.021,0,0.021,0,0.021,0s0,0,0.021,0c0,0.021,0.021,0.021,0.021,0.021l21.333,21.333c2.091,2.069,4.821,3.115,7.552,3.115
				c2.731,0,5.461-1.024,7.531-3.115c2.069-2.091,3.115-4.821,3.115-7.552c0-2.731-1.024-5.461-3.115-7.552l-3.115-3.115h16.917
				c17.643,0,32-14.357,32-32v-128C490.667,260.789,485.888,256.011,480,256.011z"/>
			<path d="M53.333,362.677c-5.909,0-10.667,4.779-10.667,10.667c0,5.888,4.757,10.667,10.667,10.667
				c5.909,0,10.667-4.779,10.667-10.667C64,367.456,59.221,362.677,53.333,362.677z"/>
			<path d="M490.667,87.307V32.011c0-17.643-14.357-32-32-32H245.333c-17.643,0-32,14.357-32,32V44.64
				C200.939,49.056,192,60.789,192,74.677v128c0,17.643,14.357,32,32,32h256c17.643,0,32-14.357,32.021-32v-85.333
				C512.021,103.456,503.061,91.723,490.667,87.307z M234.667,32.011c0-5.888,4.8-10.667,10.667-10.667h213.333
				c5.867,0,10.667,4.779,10.667,10.667v53.333H340.117c-3.968-0.235-13.739-11.925-19.008-18.197
				C310.592,54.56,300.651,42.677,288,42.677h-53.333V32.011z M490.667,202.677c0,5.888-4.8,10.667-10.667,10.667H224
				c-5.867,0-10.667-4.779-10.667-10.667v-128c0-5.888,4.8-10.667,10.667-10.667l63.744-0.021
				c3.563,0.768,11.989,10.816,17.003,16.853c10.624,12.693,21.589,25.835,35.307,25.835H480c5.867,0,10.667,4.779,10.667,10.667
				V202.677z"/>
			<path d="M352,320.011H32c-17.643,0-32,14.357-32,32v42.667c0,8.213,3.2,15.659,8.32,21.333C3.2,421.685,0,429.131,0,437.344
				v42.667c0,17.643,14.357,32,32,32h320c17.643,0,32-14.357,32-32v-42.667c0-8.213-3.2-15.659-8.32-21.333
				c5.12-5.675,8.32-13.12,8.32-21.333v-42.667C384,334.368,369.643,320.011,352,320.011z M362.667,480.011
				c0,5.888-4.8,10.667-10.667,10.667H32c-5.867,0-10.667-4.779-10.667-10.667v-42.667c0-5.888,4.8-10.667,10.667-10.667h320
				c5.867,0,10.667,4.779,10.667,10.667V480.011z M362.667,394.677c0,5.888-4.8,10.667-10.667,10.667H32
				c-5.867,0-10.667-4.779-10.667-10.667v-42.667c0-5.888,4.8-10.667,10.667-10.667h320c5.867,0,10.667,4.779,10.667,10.667V394.677
				z"/>
		</g>
	</g>
</g>
<g>
</g>
<g>
</g>
<g>
</g>
<g>
</g>
<g>
</g>
<g>
</g>
<g>
</g>
<g>
</g>
<g>
</g>
<g>
</g>
<g>
</g>
<g>
</g>
<g>
</g>
<g>
</g>
<g>
</g>
</svg>
