<?xml version="1.0" encoding="iso-8859-1"?>
<!-- Generator: Adobe Illustrator 19.0.0, SVG Export Plug-In . SVG Version: 6.00 Build 0)  -->
<svg version="1.1" id="Capa_1" xmlns="http://www.w3.org/2000/svg" xmlns:xlink="http://www.w3.org/1999/xlink" x="0px" y="0px"
	 viewBox="0 0 512 512" style="enable-background:new 0 0 512 512;" xml:space="preserve">
<g>
	<g>
		<g>
			<path d="M288,448h-21.333c-5.888,0-10.667,4.779-10.667,10.667s4.779,10.667,10.667,10.667H288
				c5.888,0,10.667-4.779,10.667-10.667S293.888,448,288,448z"/>
			<path d="M503.915,298.987l-85.333-21.333c-1.685-0.448-3.477-0.448-5.163,0l-85.333,21.333
				c-4.757,1.173-8.085,5.461-8.085,10.347v128c0,32.981,70.357,64.853,91.904,73.835c1.301,0.555,2.709,0.832,4.096,0.832
				c1.387,0,2.795-0.277,4.096-0.832c21.568-8.96,91.904-40.832,91.904-73.835v-128C512,304.427,508.672,300.16,503.915,298.987z
				 M490.667,437.333c0,12.096-38.528,36.736-74.667,52.416c-36.139-15.701-74.667-40.299-74.667-52.416V317.675L416,299.008
				l74.667,18.667V437.333z"/>
			<path d="M413.419,321.643l-42.667,10.645c-4.757,1.216-8.085,5.483-8.085,10.368v52.011c0,5.888,4.779,10.667,10.667,10.667h32
				v49.152c0,3.669,1.899,7.104,5.013,9.045c1.728,1.088,3.691,1.621,5.653,1.621c1.6,0,3.2-0.363,4.693-1.088
				c19.456-9.515,36.757-20.117,45.12-27.648c2.24-2.048,3.52-4.907,3.52-7.936v-33.813c0-5.888-4.779-10.667-10.667-10.667h-32
				v-52.011c0-3.285-1.493-6.379-4.096-8.405S416.597,320.811,413.419,321.643z M405.333,384H384v-33.024l21.333-5.333V384z
				 M426.667,405.333H448v18.112c-5.12,3.861-12.672,8.619-21.333,13.44V405.333z"/>
			<path d="M42.667,437.333c0,17.621,14.357,32,32,32c17.643,0,32-14.379,32-32c0-17.664-14.357-32-32-32
				C57.024,405.333,42.667,419.669,42.667,437.333z M85.333,437.333c0,5.888-4.779,10.667-10.667,10.667S64,443.221,64,437.333
				c0-5.888,4.779-10.667,10.667-10.667S85.333,431.445,85.333,437.333z"/>
			<path d="M288,405.333h-21.333c-5.888,0-10.667,4.779-10.667,10.667c0,5.888,4.779,10.667,10.667,10.667H288
				c5.888,0,10.667-4.779,10.667-10.667C298.667,410.112,293.888,405.333,288,405.333z"/>
			<path d="M503.851,131.989c-0.128-0.256-0.149-0.555-0.299-0.789L437.589,25.173C427.797,9.429,410.859,0,392.299,0H119.723
				c-18.581,0-35.499,9.429-45.291,25.173L8.469,131.2c-0.128,0.213-0.128,0.448-0.256,0.683C3.093,140.053,0,149.653,0,160v42.667
				c0,17.493,8.597,32.939,21.675,42.667C8.597,255.061,0,270.485,0,288v42.667c0,18.325,9.152,33.259,24.128,42.667
				C9.152,382.72,0,397.653,0,416v42.667C0,488.064,23.936,512,53.333,512h256c5.888,0,10.667-4.779,10.667-10.667
				c0-5.888-4.779-10.667-10.667-10.667h-256c-17.643,0-32-14.379-32-32V416c0-19.435,16.747-32,42.667-32h224
				c5.888,0,10.667-4.779,10.667-10.667c0-5.888-4.779-10.667-10.667-10.667H64.021c-25.92,0-42.667-12.565-42.667-32V288
				c0-17.643,14.357-32,32-32h405.333c10.091,0,19.435,4.885,25.643,13.397c3.435,4.757,10.112,5.803,14.891,2.347
				c4.757-3.456,5.824-10.133,2.347-14.891c-3.264-4.501-7.232-8.128-11.477-11.328C503.317,235.797,512,220.267,512,202.667V160
				C512,149.696,508.928,140.16,503.851,131.989z M92.544,36.437c5.867-9.451,16.021-15.104,27.157-15.104h272.576
				c11.136,0,21.291,5.653,27.179,15.104l44.011,70.72c-1.6-0.171-3.157-0.491-4.8-0.491H53.333c-1.643,0-3.2,0.32-4.8,0.469
				L92.544,36.437z M490.667,202.667c0,17.643-14.357,32-32,32H53.333c-17.643,0-32-14.379-32-32V160c0-17.664,14.357-32,32-32
				h405.333c17.643,0,32,14.336,32,32V202.667z"/>
			<path d="M288,320h-21.333c-5.888,0-10.667,4.779-10.667,10.667s4.779,10.667,10.667,10.667H288
				c5.888,0,10.667-4.779,10.667-10.667S293.888,320,288,320z"/>
			<path d="M288,277.333h-21.333c-5.888,0-10.667,4.779-10.667,10.667s4.779,10.667,10.667,10.667H288
				c5.888,0,10.667-4.779,10.667-10.667S293.888,277.333,288,277.333z"/>
			<path d="M42.667,309.333c0,17.621,14.357,32,32,32c17.643,0,32-14.379,32-32c0-17.664-14.357-32-32-32
				C57.024,277.333,42.667,291.669,42.667,309.333z M85.333,309.333c0,5.888-4.779,10.667-10.667,10.667S64,315.221,64,309.333
				s4.779-10.667,10.667-10.667S85.333,303.445,85.333,309.333z"/>
			<path d="M74.667,149.333c-17.643,0-32,14.336-32,32c0,17.621,14.357,32,32,32c17.643,0,32-14.379,32-32
				C106.667,163.669,92.309,149.333,74.667,149.333z M74.667,192C68.779,192,64,187.221,64,181.333s4.779-10.667,10.667-10.667
				s10.667,4.779,10.667,10.667S80.555,192,74.667,192z"/>
			<path d="M437.333,149.333H266.667c-5.888,0-10.667,4.779-10.667,10.667s4.779,10.667,10.667,10.667h170.667
				c5.888,0,10.667-4.779,10.667-10.667S443.221,149.333,437.333,149.333z"/>
			<path d="M437.333,192H266.667c-5.888,0-10.667,4.779-10.667,10.667s4.779,10.667,10.667,10.667h170.667
				c5.888,0,10.667-4.779,10.667-10.667S443.221,192,437.333,192z"/>
		</g>
	</g>
</g>
<g>
</g>
<g>
</g>
<g>
</g>
<g>
</g>
<g>
</g>
<g>
</g>
<g>
</g>
<g>
</g>
<g>
</g>
<g>
</g>
<g>
</g>
<g>
</g>
<g>
</g>
<g>
</g>
<g>
</g>
</svg>
