<?xml version="1.0" encoding="iso-8859-1"?>
<!-- Generator: Adobe Illustrator 19.0.0, SVG Export Plug-In . SVG Version: 6.00 Build 0)  -->
<svg version="1.1" id="Capa_1" xmlns="http://www.w3.org/2000/svg" xmlns:xlink="http://www.w3.org/1999/xlink" x="0px" y="0px"
	 viewBox="0 0 512.021 512.021" style="enable-background:new 0 0 512.021 512.021;" xml:space="preserve">
<g>
	<g>
		<g>
			<path d="M266.667,469.344h170.667c5.888,0,10.667-4.779,10.667-10.667s-4.779-10.667-10.667-10.667H266.667
				c-5.888,0-10.667,4.779-10.667,10.667S260.779,469.344,266.667,469.344z"/>
			<path d="M341.333,202.677c0,2.837,1.109,5.547,3.115,7.552l18.219,18.219v38.229c0,0.128,0.064,0.213,0.064,0.341
				c0.021,0.704,0.256,1.365,0.427,2.069s0.256,1.408,0.555,2.048c0.043,0.107,0.043,0.213,0.085,0.32l21.333,42.667
				c1.813,3.605,5.504,5.888,9.536,5.888h23.125c2.923,16.555,8.875,55.275,8.875,96c0,5.888,4.779,10.667,10.667,10.667
				c5.888,0,10.667-4.779,10.645-10.645c0-40.043-5.333-77.227-8.533-96.021h19.221c4.032,0,7.723-2.283,9.579-5.888l21.333-42.667
				c0.064-0.149,0.064-0.299,0.107-0.427c0.192-0.427,0.235-0.917,0.363-1.365c0.277-0.917,0.533-1.813,0.555-2.752
				c0-0.085,0.043-0.149,0.043-0.235v-38.229l18.219-18.219c2.005-2.005,3.136-4.715,3.136-7.552v-128
				c0-5.888-4.779-10.667-10.667-10.667h-10.667V10.677c0-5.888-4.779-10.667-10.667-10.667H373.333
				c-5.888,0-10.667,4.779-10.667,10.667v53.333H352c-5.888,0-10.667,4.779-10.667,10.667V202.677z M452.096,298.699H401.28
				l-10.688-21.355h72.171L452.096,298.699z M469.333,256.011H384v-21.333h85.333V256.011z M384,21.344h10.667v10.667
				c0,5.888,4.779,10.667,10.667,10.667c5.888,0,10.667-4.779,10.667-10.667V21.344h53.333v42.667H384V21.344z M448,85.344v42.667
				h-42.667V85.344H448z M362.667,85.344H384v53.333c0,5.888,4.779,10.667,10.667,10.667H416c-5.888,0-10.667,4.779-10.667,10.667
				s4.779,10.667,10.667,10.667h21.333c5.888,0,10.667-4.779,10.667-10.667s-4.779-10.667-10.667-10.667h21.333
				c5.888,0,10.667-4.779,10.667-10.667V85.344h21.333v112.917l-15.083,15.083h-97.835l-15.083-15.083V85.344z"/>
			<path d="M42.667,309.344c0,17.643,14.357,32,32,32c17.643,0,32-14.357,32-32c0-17.643-14.357-32-32-32
				C57.024,277.344,42.667,291.701,42.667,309.344z M85.333,309.344c0,5.888-4.779,10.667-10.667,10.667S64,315.232,64,309.344
				s4.779-10.667,10.667-10.667S85.333,303.456,85.333,309.344z"/>
			<path d="M42.667,181.344c0,17.643,14.357,32,32,32c17.643,0,32-14.357,32-32c0-17.643-14.357-32-32-32
				C57.024,149.344,42.667,163.701,42.667,181.344z M85.333,181.344c0,5.888-4.779,10.667-10.667,10.667S64,187.232,64,181.344
				s4.779-10.667,10.667-10.667S85.333,175.456,85.333,181.344z"/>
			<path d="M266.667,426.677h128c5.888,0,10.667-4.779,10.667-10.667c0-5.888-4.779-10.667-10.667-10.667h-128
				c-5.888,0-10.667,4.779-10.667,10.667C256,421.899,260.779,426.677,266.667,426.677z"/>
			<path d="M42.667,437.344c0,17.643,14.357,32,32,32c17.643,0,32-14.357,32-32c0-17.643-14.357-32-32-32
				C57.024,405.344,42.667,419.701,42.667,437.344z M85.333,437.344c0,5.888-4.779,10.667-10.667,10.667S64,443.232,64,437.344
				c0-5.888,4.779-10.667,10.667-10.667S85.333,431.456,85.333,437.344z"/>
			<path d="M489.707,373.472c13.717-9.963,22.293-25.387,22.293-42.56v-11.477c0-5.888-4.779-10.667-10.667-10.667
				c-5.888,0-10.667,4.779-10.667,10.667v11.477c0,11.989-6.763,22.869-17.643,28.395c-5.248,2.667-7.339,9.067-4.672,14.336
				c0.149,0.277,0.448,0.384,0.619,0.661c-2.197,5.056-0.32,11.008,4.629,13.632c10.517,5.611,17.067,16.363,17.067,28.075v42.667
				c0,17.643-14.357,32-32,32H53.333c-17.664,0-32-14.357-32-32v-42.667c0-17.472,13.696-31.253,31.275-32.064
				c0.235,0,0.469,0.064,0.725,0.064h320c0.021,0,0.043-0.021,0.064-0.021l19.157,0.021c5.888,0,10.667-4.779,10.667-10.667
				c0-5.888-4.779-10.667-10.667-10.667l-338.688-0.213c-0.448,0-0.832,0.128-1.28,0.128c-17.301-0.405-31.253-14.528-31.253-31.915
				v-42.667c0-17.643,14.357-32,32-32h277.333c5.888,0,10.667-4.779,10.667-10.667s-4.779-10.667-10.667-10.667H53.333
				c-17.643,0-32-14.357-32-32v-42.667c0-17.643,14.357-32,32-32h256c5.888,0,10.667-4.779,10.667-10.667
				s-4.779-10.667-10.667-10.667h-256c-1.643,0-3.2,0.341-4.8,0.491l43.989-70.699c5.867-9.451,16.021-15.104,27.157-15.104h210.987
				c5.888,0,10.667-4.779,10.667-10.667s-4.779-10.667-10.667-10.667H119.701c-18.581,0-35.499,9.408-45.291,25.152L8.448,131.211
				c-0.171,0.256-0.171,0.533-0.32,0.811C3.051,140.171,0,149.707,0,160.011v42.667c0,17.493,8.597,32.939,21.675,42.667
				C8.597,255.072,0,270.517,0,288.011v42.667c0,17.557,8.64,33.024,21.781,42.752C8.64,383.243,0,398.624,0,416.011v42.667
				c0,29.397,23.936,53.333,53.333,53.333h405.333c29.397,0,53.333-23.936,53.355-53.333v-42.667
				C512,398.923,503.403,383.435,489.707,373.472z"/>
			<path d="M266.667,298.677h64c5.888,0,10.667-4.779,10.667-10.667s-4.779-10.667-10.667-10.667h-64
				c-5.888,0-10.667,4.779-10.667,10.667S260.779,298.677,266.667,298.677z"/>
			<path d="M266.667,341.344H352c5.888,0,10.667-4.779,10.667-10.667s-4.779-10.667-10.667-10.667h-85.333
				c-5.888,0-10.667,4.779-10.667,10.667S260.779,341.344,266.667,341.344z"/>
		</g>
	</g>
</g>
<g>
</g>
<g>
</g>
<g>
</g>
<g>
</g>
<g>
</g>
<g>
</g>
<g>
</g>
<g>
</g>
<g>
</g>
<g>
</g>
<g>
</g>
<g>
</g>
<g>
</g>
<g>
</g>
<g>
</g>
</svg>
