<?xml version="1.0" encoding="iso-8859-1"?>
<!-- Generator: Adobe Illustrator 19.0.0, SVG Export Plug-In . SVG Version: 6.00 Build 0)  -->
<svg version="1.1" id="Capa_1" xmlns="http://www.w3.org/2000/svg" xmlns:xlink="http://www.w3.org/1999/xlink" x="0px" y="0px"
	 viewBox="0 0 512.021 512.021" style="enable-background:new 0 0 512.021 512.021;" xml:space="preserve">
<g>
	<g>
		<g>
			<path d="M394.667,42.677c-5.888,0-10.667,4.779-10.667,10.667v42.667c0,5.888,4.779,10.667,10.667,10.667
				s10.667-4.779,10.667-10.667V53.344C405.333,47.456,400.555,42.677,394.667,42.677z"/>
			<path d="M437.333,42.677c-5.888,0-10.667,4.779-10.667,10.667v42.667c0,5.888,4.779,10.667,10.667,10.667
				c5.888,0,10.667-4.779,10.667-10.667V53.344C448,47.456,443.221,42.677,437.333,42.677z"/>
			<path d="M501.355,448.011c-5.888,0-10.667,4.779-10.667,10.667v32H341.355v-32c0-5.888-4.779-10.667-10.667-10.667
				s-10.667,4.779-10.667,10.667v42.667c0,5.888,4.779,10.667,10.667,10.667h170.667c5.909,0,10.667-4.779,10.667-10.667v-42.667
				C512.021,452.789,507.243,448.011,501.355,448.011z"/>
			<path d="M416.021,341.344c-5.888,0-10.667,4.779-10.667,10.667v80.939l-24.469-24.469c-4.16-4.16-10.923-4.16-15.083,0
				c-4.16,4.16-4.16,10.923,0,15.083l42.667,42.667c1.003,1.003,2.176,1.749,3.413,2.261c0.021,0,0.043,0.043,0.064,0.043h0.021
				c1.28,0.533,2.667,0.811,4.053,0.811c1.365,0,2.752-0.277,4.032-0.789c1.28-0.533,2.475-1.301,3.499-2.325l42.667-42.667
				c4.16-4.16,4.16-10.923,0-15.083c-4.16-4.16-10.923-4.16-15.083,0l-24.448,24.448v-80.917
				C426.688,346.123,421.909,341.344,416.021,341.344z"/>
			<path d="M74.667,42.677c-17.643,0-32,14.357-32,32c0,17.643,14.357,32,32,32c17.643,0,32-14.357,32-32
				C106.667,57.035,92.309,42.677,74.667,42.677z M74.667,85.344C68.779,85.344,64,80.565,64,74.677s4.779-10.667,10.667-10.667
				s10.667,4.779,10.667,10.667S80.555,85.344,74.667,85.344z"/>
			<path d="M309.333,42.677c-5.888,0-10.667,4.779-10.667,10.667v42.667c0,5.888,4.779,10.667,10.667,10.667S320,101.899,320,96.011
				V53.344C320,47.456,315.221,42.677,309.333,42.677z"/>
			<path d="M352,42.677c-5.888,0-10.667,4.779-10.667,10.667v42.667c0,5.888,4.779,10.667,10.667,10.667
				c5.888,0,10.667-4.779,10.667-10.667V53.344C362.667,47.456,357.888,42.677,352,42.677z"/>
			<path d="M394.667,213.344c-5.888,0-10.667,4.779-10.667,10.667v42.667c0,5.888,4.779,10.667,10.667,10.667
				s10.667-4.779,10.667-10.667v-42.667C405.333,218.123,400.555,213.344,394.667,213.344z"/>
			<path d="M352,213.344c-5.888,0-10.667,4.779-10.667,10.667v42.667c0,5.888,4.779,10.667,10.667,10.667
				c5.888,0,10.667-4.779,10.667-10.667v-42.667C362.667,218.123,357.888,213.344,352,213.344z"/>
			<path d="M437.333,213.344c-5.888,0-10.667,4.779-10.667,10.667v42.667c0,5.888,4.779,10.667,10.667,10.667
				c5.888,0,10.667-4.779,10.667-10.667v-42.667C448,218.123,443.221,213.344,437.333,213.344z"/>
			<path d="M309.333,213.344c-5.888,0-10.667,4.779-10.667,10.667v42.667c0,5.888,4.779,10.667,10.667,10.667
				S320,272.565,320,266.677v-42.667C320,218.123,315.221,213.344,309.333,213.344z"/>
			<path d="M345.024,394.677c0-5.888-4.779-10.667-10.667-10.667H256v-10.667c0-5.888-4.779-10.667-10.667-10.667h-10.667v-10.667
				c0-5.888-4.779-10.667-10.667-10.667h-10.667v-21.333h245.333c29.397,0,53.333-23.936,53.333-53.333v-42.667
				c0-29.397-23.936-53.333-53.333-53.333H213.333v-21.333h245.333c29.397,0,53.333-23.936,53.333-53.333V53.344
				c0-29.397-23.936-53.333-53.333-53.333H53.333C23.936,0.011,0,23.947,0,53.344v42.667c0,29.397,23.936,53.333,53.333,53.333H192
				v21.333H53.333C23.936,170.677,0,194.613,0,224.011v42.667c0,29.397,23.936,53.333,53.333,53.333H192v21.333h-10.667
				c-5.888,0-10.667,4.779-10.667,10.667v10.667H160c-5.888,0-10.667,4.779-10.667,10.667v10.667h-96
				c-5.888,0-10.667,4.779-10.667,10.667s4.779,10.667,10.667,10.667h96v10.667c0,5.888,4.779,10.667,10.667,10.667h85.333
				c5.888,0,10.667-4.779,10.667-10.667v-10.667h78.357C340.245,405.344,345.024,400.565,345.024,394.677z M53.333,128.011
				c-17.643,0-32-14.357-32-32V53.344c0-17.643,14.357-32,32-32h405.333c17.643,0,32,14.357,32,32v42.667c0,17.643-14.357,32-32,32
				H53.333z M53.333,298.677c-17.643,0-32-14.357-32-32v-42.667c0-17.643,14.357-32,32-32h405.333c17.643,0,32,14.357,32,32v42.667
				c0,17.643-14.357,32-32,32H53.333z M234.667,405.344h-64v-21.333h10.667c5.888,0,10.667-4.779,10.667-10.667v-10.667h21.333
				v10.667c0,5.888,4.779,10.667,10.667,10.667h10.667V405.344z"/>
			<path d="M74.667,213.344c-17.643,0-32,14.357-32,32c0,17.643,14.357,32,32,32c17.643,0,32-14.357,32-32
				C106.667,227.701,92.309,213.344,74.667,213.344z M74.667,256.011c-5.888,0-10.667-4.779-10.667-10.667
				s4.779-10.667,10.667-10.667s10.667,4.779,10.667,10.667S80.555,256.011,74.667,256.011z"/>
		</g>
	</g>
</g>
<g>
</g>
<g>
</g>
<g>
</g>
<g>
</g>
<g>
</g>
<g>
</g>
<g>
</g>
<g>
</g>
<g>
</g>
<g>
</g>
<g>
</g>
<g>
</g>
<g>
</g>
<g>
</g>
<g>
</g>
</svg>
