<?xml version="1.0" encoding="iso-8859-1"?>
<!-- Generator: Adobe Illustrator 19.0.0, SVG Export Plug-In . SVG Version: 6.00 Build 0)  -->
<svg version="1.1" id="Capa_1" xmlns="http://www.w3.org/2000/svg" xmlns:xlink="http://www.w3.org/1999/xlink" x="0px" y="0px"
	 viewBox="0 0 512 512" style="enable-background:new 0 0 512 512;" xml:space="preserve">
<g>
	<g>
		<g>
			<path d="M53.333,447.675c-5.888,0-10.667,4.779-10.667,10.667c0,5.888,4.779,10.667,10.667,10.667S64,464.229,64,458.341
				C64,452.453,59.221,447.675,53.333,447.675z"/>
			<path d="M330.667,447.675h-85.333c-5.888,0-10.667,4.779-10.667,10.667c0,5.888,4.779,10.667,10.667,10.667h85.333
				c5.888,0,10.667-4.779,10.667-10.667C341.333,452.453,336.555,447.675,330.667,447.675z"/>
			<path d="M512,42.341c0-56.021-192-56.021-192,0c0,0.384,0.213,0.704,0.235,1.088c-0.043,0.405-0.235,0.768-0.235,1.195v123.435
				c0,30.891,49.771,44.949,96,44.949c46.229,0,96-14.059,96-44.949V44.624c0-0.427-0.192-0.789-0.235-1.195
				C511.787,43.045,512,42.725,512,42.341z M490.667,168.059c0,9.621-29.077,23.616-74.667,23.616s-74.667-13.995-74.667-23.616
				v-13.653c18.517,10.432,46.571,15.936,74.667,15.936c28.096,0,56.149-5.504,74.667-15.936V168.059z M490.667,125.392
				c0,8.32-28.352,23.616-74.667,23.616c-46.315,0-74.667-15.296-74.667-23.616v-12.139c18.517,10.432,46.571,15.936,74.667,15.936
				c28.096,0,56.149-5.504,74.667-15.936V125.392z M490.667,84.24c0,8.32-28.352,23.616-74.667,23.616
				c-46.315,0-74.667-15.296-74.667-23.616V69.883c18.517,9.899,46.571,15.125,74.667,15.125c28.096,0,56.149-5.227,74.667-15.125
				V84.24z M416,63.675c-48.491,0-74.667-15.147-74.667-21.333c0-6.187,26.176-21.333,74.667-21.333
				c48.491,0,74.667,15.147,74.667,21.333C490.667,48.528,464.491,63.675,416,63.675z"/>
			<path d="M96,298.341c5.888,0,10.667-4.779,10.667-10.752V180.923c0-17.643,14.357-32,32-32h80.939l-3.115,3.115
				c-4.16,4.16-4.16,10.923,0,15.083c4.16,4.16,10.923,4.16,15.083,0l21.269-21.269c0.213-0.213,0.427-0.448,0.64-0.683
				c1.387-1.643,2.219-3.605,2.453-5.632c0.085-0.619,0.107-1.259,0.064-1.877c-0.149-2.475-1.173-4.928-3.051-6.848
				c-0.021,0-0.021,0-0.021,0s0,0-0.021,0c0-0.021-0.021-0.021-0.021-0.021l-21.333-21.333c-4.16-4.16-10.923-4.16-15.083,0
				c-2.069,2.091-3.115,4.821-3.115,7.552c0,2.731,1.024,5.461,3.115,7.552l3.115,3.115h-80.917
				c-29.419,0-53.333,23.936-53.333,53.333v106.667C85.333,293.563,90.112,298.341,96,298.341z"/>
			<path d="M352,319.675H32c-17.643,0-32,14.357-32,32v42.667c0,8.213,3.2,15.659,8.32,21.333C3.2,421.349,0,428.795,0,437.008
				v42.667c0,17.643,14.357,32,32,32h320c17.643,0,32-14.357,32-32v-42.667c0-8.213-3.2-15.659-8.32-21.333
				c5.12-5.675,8.32-13.12,8.32-21.333v-42.667C384,334.032,369.643,319.675,352,319.675z M362.667,479.675
				c0,5.888-4.8,10.667-10.667,10.667H32c-5.867,0-10.667-4.779-10.667-10.667v-42.667c0-5.888,4.8-10.667,10.667-10.667h320
				c5.867,0,10.667,4.779,10.667,10.667V479.675z M362.667,394.341c0,5.888-4.8,10.667-10.667,10.667H32
				c-5.867,0-10.667-4.779-10.667-10.667v-42.667c0-5.888,4.8-10.667,10.667-10.667h320c5.867,0,10.667,4.779,10.667,10.667V394.341
				z"/>
			<path d="M480,255.675c-5.888,0-10.667,4.779-10.667,10.667v128c0,5.888-4.8,10.667-10.667,10.667h-16.917l3.093-3.029
				c4.16-4.16,4.16-10.923,0-15.083s-10.923-4.16-15.083,0l-21.269,21.269c-0.213,0.213-0.427,0.448-0.64,0.683
				c-1.387,1.643-2.219,3.605-2.453,5.632c-0.085,0.619-0.107,1.259-0.064,1.877c0.149,2.475,1.173,4.928,3.051,6.848
				c0.021,0,0.021,0,0.021,0s0,0,0.021,0c0,0.021,0.021,0.021,0.021,0.021l21.333,21.333c2.091,2.069,4.821,3.115,7.552,3.115
				s5.461-1.024,7.531-3.115c2.069-2.091,3.115-4.821,3.115-7.552c0-2.731-1.024-5.461-3.115-7.552l-3.115-3.115h16.917
				c17.643,0,32-14.357,32-32v-128C490.667,260.453,485.888,255.675,480,255.675z"/>
			<path d="M330.667,362.341h-85.333c-5.888,0-10.667,4.779-10.667,10.667s4.779,10.667,10.667,10.667h85.333
				c5.888,0,10.667-4.779,10.667-10.667S336.555,362.341,330.667,362.341z"/>
			<path d="M53.333,362.341c-5.888,0-10.667,4.779-10.667,10.667s4.779,10.667,10.667,10.667S64,378.896,64,373.008
				S59.221,362.341,53.333,362.341z"/>
		</g>
	</g>
</g>
<g>
</g>
<g>
</g>
<g>
</g>
<g>
</g>
<g>
</g>
<g>
</g>
<g>
</g>
<g>
</g>
<g>
</g>
<g>
</g>
<g>
</g>
<g>
</g>
<g>
</g>
<g>
</g>
<g>
</g>
</svg>
