<?xml version="1.0" encoding="iso-8859-1"?>
<!-- Generator: Adobe Illustrator 19.0.0, SVG Export Plug-In . SVG Version: 6.00 Build 0)  -->
<svg version="1.1" id="Capa_1" xmlns="http://www.w3.org/2000/svg" xmlns:xlink="http://www.w3.org/1999/xlink" x="0px" y="0px"
	 viewBox="0 0 512 512" style="enable-background:new 0 0 512 512;" xml:space="preserve">
<g>
	<g>
		<g>
			<path d="M74.667,106.667c17.643,0,32-14.357,32-32c0-17.643-14.357-32-32-32c-17.643,0-32,14.357-32,32
				C42.667,92.309,57.024,106.667,74.667,106.667z M74.667,64c5.888,0,10.667,4.779,10.667,10.667s-4.779,10.667-10.667,10.667
				S64,80.555,64,74.667S68.779,64,74.667,64z"/>
			<path d="M352,298.667c-5.888,0-10.667,4.779-10.667,10.667V352c0,5.888,4.779,10.667,10.667,10.667
				c5.888,0,10.667-4.779,10.667-10.667v-42.667C362.667,303.445,357.888,298.667,352,298.667z"/>
			<path d="M437.333,234.667c5.888,0,10.667-4.779,10.667-10.667v-42.667c0-5.888-4.779-10.667-10.667-10.667
				c-5.888,0-10.667,4.779-10.667,10.667V224C426.667,229.888,431.445,234.667,437.333,234.667z"/>
			<path d="M394.667,106.667c5.888,0,10.667-4.779,10.667-10.667V53.333c0-5.888-4.779-10.667-10.667-10.667S384,47.445,384,53.333
				V96C384,101.888,388.779,106.667,394.667,106.667z"/>
			<path d="M437.333,106.667c5.888,0,10.667-4.779,10.667-10.667V53.333c0-5.888-4.779-10.667-10.667-10.667
				c-5.888,0-10.667,4.779-10.667,10.667V96C426.667,101.888,431.445,106.667,437.333,106.667z"/>
			<path d="M352,106.667c5.888,0,10.667-4.779,10.667-10.667V53.333c0-5.888-4.779-10.667-10.667-10.667
				c-5.888,0-10.667,4.779-10.667,10.667V96C341.333,101.888,346.112,106.667,352,106.667z"/>
			<path d="M309.333,106.667c5.888,0,10.667-4.779,10.667-10.667V53.333c0-5.888-4.779-10.667-10.667-10.667
				s-10.667,4.779-10.667,10.667V96C298.667,101.888,303.445,106.667,309.333,106.667z"/>
			<path d="M501.333,405.333c5.888,0,10.667-4.779,10.667-10.667v-384C512,4.779,507.221,0,501.333,0h-448
				C23.936,0,0,23.936,0,53.333V96c0,17.493,8.597,32.939,21.675,42.667C8.597,148.395,0,163.84,0,181.333V224
				c0,17.493,8.597,32.939,21.675,42.667C8.597,276.395,0,291.84,0,309.333V352c0,29.397,23.936,53.333,53.333,53.333h245.333V448
				h-288C4.779,448,0,452.779,0,458.667v42.667C0,507.221,4.779,512,10.667,512s10.667-4.779,10.667-10.667v-32h277.333v32
				c0,5.888,4.779,10.667,10.667,10.667S320,507.221,320,501.333v-32h170.667v32c0,5.888,4.779,10.667,10.667,10.667
				c5.888,0,10.667-4.779,10.667-10.667v-42.667c0-5.888-4.779-10.667-10.667-10.667H320v-42.667H501.333z M21.333,96V53.333
				c0-17.643,14.357-32,32-32h437.333V128H53.333C35.691,128,21.333,113.643,21.333,96z M21.333,224v-42.667
				c0-17.643,14.357-32,32-32h437.333V256H53.333C35.691,256,21.333,241.643,21.333,224z M53.333,384c-17.643,0-32-14.357-32-32
				v-42.667c0-17.643,14.357-32,32-32h437.333V384H53.333z"/>
			<path d="M74.667,298.667c-17.643,0-32,14.357-32,32c0,17.643,14.357,32,32,32c17.643,0,32-14.357,32-32
				C106.667,313.024,92.309,298.667,74.667,298.667z M74.667,341.333c-5.888,0-10.667-4.779-10.667-10.667S68.779,320,74.667,320
				s10.667,4.779,10.667,10.667S80.555,341.333,74.667,341.333z"/>
			<path d="M394.667,234.667c5.888,0,10.667-4.779,10.667-10.667v-42.667c0-5.888-4.779-10.667-10.667-10.667
				S384,175.445,384,181.333V224C384,229.888,388.779,234.667,394.667,234.667z"/>
			<path d="M394.667,298.667c-5.888,0-10.667,4.779-10.667,10.667V352c0,5.888,4.779,10.667,10.667,10.667
				s10.667-4.779,10.667-10.667v-42.667C405.333,303.445,400.555,298.667,394.667,298.667z"/>
			<path d="M309.333,298.667c-5.888,0-10.667,4.779-10.667,10.667V352c0,5.888,4.779,10.667,10.667,10.667S320,357.888,320,352
				v-42.667C320,303.445,315.221,298.667,309.333,298.667z"/>
			<path d="M437.333,298.667c-5.888,0-10.667,4.779-10.667,10.667V352c0,5.888,4.779,10.667,10.667,10.667
				c5.888,0,10.667-4.779,10.667-10.667v-42.667C448,303.445,443.221,298.667,437.333,298.667z"/>
			<path d="M352,234.667c5.888,0,10.667-4.779,10.667-10.667v-42.667c0-5.888-4.779-10.667-10.667-10.667
				c-5.888,0-10.667,4.779-10.667,10.667V224C341.333,229.888,346.112,234.667,352,234.667z"/>
			<path d="M309.333,234.667c5.888,0,10.667-4.779,10.667-10.667v-42.667c0-5.888-4.779-10.667-10.667-10.667
				s-10.667,4.779-10.667,10.667V224C298.667,229.888,303.445,234.667,309.333,234.667z"/>
			<path d="M74.667,234.667c17.643,0,32-14.357,32-32c0-17.643-14.357-32-32-32c-17.643,0-32,14.357-32,32
				C42.667,220.309,57.024,234.667,74.667,234.667z M74.667,192c5.888,0,10.667,4.779,10.667,10.667s-4.779,10.667-10.667,10.667
				S64,208.555,64,202.667S68.779,192,74.667,192z"/>
		</g>
	</g>
</g>
<g>
</g>
<g>
</g>
<g>
</g>
<g>
</g>
<g>
</g>
<g>
</g>
<g>
</g>
<g>
</g>
<g>
</g>
<g>
</g>
<g>
</g>
<g>
</g>
<g>
</g>
<g>
</g>
<g>
</g>
</svg>
