<?xml version="1.0" encoding="iso-8859-1"?>
<!-- Generator: Adobe Illustrator 19.0.0, SVG Export Plug-In . SVG Version: 6.00 Build 0)  -->
<svg version="1.1" id="Capa_1" xmlns="http://www.w3.org/2000/svg" xmlns:xlink="http://www.w3.org/1999/xlink" x="0px" y="0px"
	 viewBox="0 0 512 512" style="enable-background:new 0 0 512 512;" xml:space="preserve">
<g>
	<g>
		<g>
			<path d="M352,320c-5.888,0-10.667,4.779-10.667,10.667s4.779,10.667,10.667,10.667c5.888,0,10.667-4.779,10.667-10.667
				S357.888,320,352,320z"/>
			<path d="M74.667,277.333c-17.643,0-32,14.357-32,32c0,17.643,14.357,32,32,32c17.643,0,32-14.357,32-32
				C106.667,291.691,92.309,277.333,74.667,277.333z M74.667,320C68.779,320,64,315.221,64,309.333s4.779-10.667,10.667-10.667
				s10.667,4.779,10.667,10.667S80.555,320,74.667,320z"/>
			<path d="M309.333,320c-5.888,0-10.667,4.779-10.667,10.667s4.779,10.667,10.667,10.667S320,336.555,320,330.667
				S315.221,320,309.333,320z"/>
			<path d="M394.667,320c-5.888,0-10.667,4.779-10.667,10.667s4.779,10.667,10.667,10.667s10.667-4.779,10.667-10.667
				S400.555,320,394.667,320z"/>
			<path d="M74.667,149.333c-17.643,0-32,14.357-32,32c0,17.643,14.357,32,32,32c17.643,0,32-14.357,32-32
				C106.667,163.691,92.309,149.333,74.667,149.333z M74.667,192C68.779,192,64,187.221,64,181.333s4.779-10.667,10.667-10.667
				s10.667,4.779,10.667,10.667S80.555,192,74.667,192z"/>
			<path d="M394.667,192c-5.888,0-10.667,4.779-10.667,10.667s4.779,10.667,10.667,10.667s10.667-4.779,10.667-10.667
				S400.555,192,394.667,192z"/>
			<path d="M437.333,192c-5.888,0-10.667,4.779-10.667,10.667s4.779,10.667,10.667,10.667c5.888,0,10.667-4.779,10.667-10.667
				S443.221,192,437.333,192z"/>
			<path d="M437.333,320c-5.888,0-10.667,4.779-10.667,10.667s4.779,10.667,10.667,10.667c5.888,0,10.667-4.779,10.667-10.667
				S443.221,320,437.333,320z"/>
			<path d="M512,202.667V160c0-10.624-3.2-20.501-8.597-28.821c-0.107-0.192-0.107-0.405-0.213-0.576L437.611,25.173
				C427.819,9.408,410.88,0,392.32,0H119.744c-18.56,0-35.499,9.408-45.291,25.173L8.875,130.603
				c-0.043,0.064-0.043,0.128-0.064,0.192C3.264,139.2,0,149.205,0,160v42.667c0,17.493,8.597,32.939,21.675,42.667
				C8.597,255.061,0,270.507,0,288v42.667C0,360.064,23.936,384,53.333,384H192v42.667h-10.667c-5.888,0-10.667,4.779-10.667,10.667
				V448H160c-5.888,0-10.667,4.779-10.667,10.667v10.667h-96c-5.888,0-10.667,4.779-10.667,10.667
				c0,5.888,4.779,10.667,10.667,10.667h96v10.667c0,5.888,4.779,10.667,10.667,10.667h85.333c5.888,0,10.667-4.779,10.667-10.667
				v-10.667h96c5.888,0,10.667-4.779,10.667-10.667c0-5.888-4.779-10.667-10.667-10.667h-96v-10.667
				c0-5.888-4.779-10.667-10.667-10.667h-10.667v-10.667c0-5.888-4.779-10.667-10.667-10.667h-10.667V384h245.333
				C488.064,384,512,360.064,512,330.667V288c0-17.493-8.597-32.939-21.675-42.667C503.403,235.605,512,220.16,512,202.667z
				 M92.587,36.437c5.867-9.451,16.021-15.104,27.157-15.104H392.32c11.136,0,21.291,5.653,27.157,15.104l43.989,70.72
				c-1.6-0.149-3.157-0.491-4.8-0.491H53.333c-1.621,0-3.136,0.341-4.736,0.469L92.587,36.437z M224,469.333h10.667v21.333h-64
				v-21.333h10.667c5.888,0,10.667-4.779,10.667-10.667V448h21.333v10.667C213.333,464.555,218.112,469.333,224,469.333z
				 M490.667,288v42.667c0,17.643-14.357,32-32,32H53.333c-17.643,0-32-14.357-32-32V288c0-17.643,14.357-32,32-32h405.333
				C476.309,256,490.667,270.357,490.667,288z M490.667,202.667c0,17.643-14.357,32-32,32H53.333c-17.643,0-32-14.357-32-32V160
				c0-17.643,14.357-32,32-32h405.333c17.643,0,32,14.357,32,32V202.667z"/>
			<path d="M352,192c-5.888,0-10.667,4.779-10.667,10.667s4.779,10.667,10.667,10.667c5.888,0,10.667-4.779,10.667-10.667
				S357.888,192,352,192z"/>
			<path d="M309.333,192c-5.888,0-10.667,4.779-10.667,10.667s4.779,10.667,10.667,10.667S320,208.555,320,202.667
				S315.221,192,309.333,192z"/>
		</g>
	</g>
</g>
<g>
</g>
<g>
</g>
<g>
</g>
<g>
</g>
<g>
</g>
<g>
</g>
<g>
</g>
<g>
</g>
<g>
</g>
<g>
</g>
<g>
</g>
<g>
</g>
<g>
</g>
<g>
</g>
<g>
</g>
</svg>
