<?xml version="1.0" encoding="iso-8859-1"?>
<!-- Generator: Adobe Illustrator 19.0.0, SVG Export Plug-In . SVG Version: 6.00 Build 0)  -->
<svg version="1.1" id="Capa_1" xmlns="http://www.w3.org/2000/svg" xmlns:xlink="http://www.w3.org/1999/xlink" x="0px" y="0px"
	 viewBox="0 0 512 512" style="enable-background:new 0 0 512 512;" xml:space="preserve">
<g>
	<g>
		<g>
			<path d="M324.253,476.331c-32.661,9.387-71.019,14.336-110.912,14.336c-113.152,0-192-39.36-192-74.667v-64.384
				c34.197,32.043,106.368,53.717,192,53.717c18.112,0,36.587-1.088,54.955-3.2c5.845-0.704,10.027-5.995,9.365-11.84
				c-0.725-5.845-6.123-9.963-11.84-9.365c-17.536,2.048-35.179,3.072-52.48,3.072c-113.152,0-192-39.36-192-74.667v-64.384
				c34.197,32.043,106.368,53.717,192,53.717s157.803-21.675,192-53.717v26.261c0,5.888,4.779,10.667,10.667,10.667
				c5.888,0,10.667-4.779,10.667-10.667V96c0-53.824-93.717-96-213.333-96S0.008,42.176,0.008,96v320c0,53.824,93.717,96,213.333,96
				c41.856,0,82.24-5.248,116.779-15.168c5.675-1.621,8.939-7.509,7.317-13.184C335.816,477.973,329.843,474.645,324.253,476.331z
				 M213.341,21.333c113.152,0,192,39.36,192,74.667c0,35.307-78.848,74.667-192,74.667s-192-39.36-192-74.667
				C21.341,60.693,100.189,21.333,213.341,21.333z M21.341,138.283C55.539,170.325,127.709,192,213.341,192
				s157.803-21.675,192-53.717v64.384c0,35.307-78.848,74.667-192,74.667s-192-39.36-192-74.667V138.283z"/>
			<path d="M508.872,493.803l-57.749-57.749c11.264-14.443,18.219-32.363,18.219-52.053c0-47.061-38.272-85.333-85.333-85.333
				S298.675,336.939,298.675,384c0,47.061,38.272,85.333,85.333,85.333c19.669,0,37.589-6.955,52.032-18.197l57.749,57.749
				c2.091,2.069,4.821,3.115,7.552,3.115c2.731,0,5.461-1.045,7.531-3.115C513.032,504.725,513.032,497.963,508.872,493.803z
				 M384.008,448c-35.285,0-64-28.715-64-64c0-35.285,28.715-64,64-64c35.285,0,64,28.715,64,64
				C448.008,419.285,419.293,448,384.008,448z"/>
		</g>
	</g>
</g>
<g>
</g>
<g>
</g>
<g>
</g>
<g>
</g>
<g>
</g>
<g>
</g>
<g>
</g>
<g>
</g>
<g>
</g>
<g>
</g>
<g>
</g>
<g>
</g>
<g>
</g>
<g>
</g>
<g>
</g>
</svg>
