<?xml version="1.0" encoding="iso-8859-1"?>
<!-- Generator: Adobe Illustrator 19.0.0, SVG Export Plug-In . SVG Version: 6.00 Build 0)  -->
<svg version="1.1" id="Capa_1" xmlns="http://www.w3.org/2000/svg" xmlns:xlink="http://www.w3.org/1999/xlink" x="0px" y="0px"
	 viewBox="0 0 512 512" style="enable-background:new 0 0 512 512;" xml:space="preserve">
<g>
	<g>
		<g>
			<path d="M448,266.667V224c0-5.888-4.779-10.667-10.667-10.667c-5.888,0-10.667,4.779-10.667,10.667v42.667
				c0,5.888,4.779,10.667,10.667,10.667C443.221,277.333,448,272.555,448,266.667z"/>
			<path d="M405.333,266.667V224c0-5.888-4.779-10.667-10.667-10.667S384,218.112,384,224v42.667
				c0,5.888,4.779,10.667,10.667,10.667S405.333,272.555,405.333,266.667z"/>
			<path d="M501.333,320c-5.888,0-10.667,4.779-10.667,10.667v23.595C472.747,335.68,445.568,320,416,320c-52.928,0-96,43.072-96,96
				s43.072,96,96,96c5.888,0,10.667-4.779,10.667-10.667c0-5.888-4.779-10.667-10.667-10.667c-41.173,0-74.667-33.493-74.667-74.667
				s33.493-74.667,74.667-74.667c33.003,0,61.184,25.237,70.827,42.667h-49.493c-5.888,0-10.667,4.779-10.667,10.667
				s4.779,10.667,10.667,10.667h64c5.888,0,10.667-4.779,10.667-10.667v-64C512,324.779,507.221,320,501.333,320z"/>
			<path d="M352,213.333c-5.888,0-10.667,4.779-10.667,10.667v42.667c0,5.888,4.779,10.667,10.667,10.667
				c5.888,0,10.667-4.779,10.667-10.667V224C362.667,218.112,357.888,213.333,352,213.333z"/>
			<path d="M74.667,42.667c-17.643,0-32,14.357-32,32c0,17.643,14.357,32,32,32c17.643,0,32-14.357,32-32
				C106.667,57.024,92.309,42.667,74.667,42.667z M74.667,85.333C68.8,85.333,64,80.555,64,74.667S68.8,64,74.667,64
				c5.867,0,10.667,4.779,10.667,10.667S80.533,85.333,74.667,85.333z"/>
			<path d="M437.333,42.667c-5.888,0-10.667,4.779-10.667,10.667V96c0,5.888,4.779,10.667,10.667,10.667
				c5.888,0,10.667-4.779,10.667-10.667V53.333C448,47.445,443.221,42.667,437.333,42.667z"/>
			<path d="M298.667,224v42.667c0,5.888,4.779,10.667,10.667,10.667S320,272.555,320,266.667V224
				c0-5.888-4.779-10.667-10.667-10.667S298.667,218.112,298.667,224z"/>
			<path d="M458.667,149.333C488.085,149.333,512,125.397,512,96V53.333C512,23.936,488.085,0,458.667,0H53.333
				C23.915,0,0,23.936,0,53.333V96c0,29.397,23.915,53.333,53.333,53.333H192v21.333H53.333C23.915,170.667,0,194.603,0,224v42.667
				C0,296.064,23.915,320,53.333,320H192v21.333h-10.667c-5.888,0-10.667,4.779-10.667,10.667v10.667H160
				c-5.888,0-10.667,4.779-10.667,10.667V384h-96c-5.888,0-10.667,4.779-10.667,10.667s4.779,10.667,10.667,10.667h96V416
				c0,5.888,4.779,10.667,10.667,10.667h85.333c5.888,0,10.667-4.779,10.667-10.667v-10.667h33.92
				c5.888,0,10.667-4.779,10.667-10.667S295.808,384,289.92,384H256v-10.667c0-5.888-4.779-10.667-10.667-10.667h-10.667V352
				c0-5.888-4.779-10.667-10.667-10.667h-10.667V320h132.053c5.909,0,10.667-4.779,10.667-10.667s-4.779-10.667-10.667-10.667
				H53.333c-17.643,0-32-14.357-32-32V224c0-17.643,14.357-32,32-32h405.333c17.643,0,32,14.357,32,32v42.667
				c0,11.989-6.763,22.891-17.664,28.416c-5.248,2.667-7.36,9.088-4.693,14.336c2.688,5.269,9.088,7.339,14.357,4.693
				C500.757,304.917,512,286.741,512,266.667V224c0-29.397-23.915-53.333-53.333-53.333H213.333v-21.333H458.667z M224,384h10.667
				v21.333h-64V384h10.667c5.888,0,10.667-4.779,10.667-10.667v-10.667h21.333v10.667C213.333,379.221,218.112,384,224,384z
				 M53.333,128c-17.643,0-32-14.357-32-32V53.333c0-17.643,14.357-32,32-32h405.333c17.643,0,32,14.357,32,32V96
				c0,17.643-14.357,32-32,32H53.333z"/>
			<path d="M309.333,42.667c-5.888,0-10.667,4.779-10.667,10.667V96c0,5.888,4.779,10.667,10.667,10.667S320,101.888,320,96V53.333
				C320,47.445,315.221,42.667,309.333,42.667z"/>
			<path d="M42.667,245.333c0,17.643,14.357,32,32,32c17.643,0,32-14.357,32-32c0-17.643-14.357-32-32-32
				C57.024,213.333,42.667,227.691,42.667,245.333z M85.333,245.333c0,5.888-4.8,10.667-10.667,10.667
				C68.8,256,64,251.221,64,245.333s4.8-10.667,10.667-10.667C80.533,234.667,85.333,239.445,85.333,245.333z"/>
			<path d="M394.667,42.667c-5.888,0-10.667,4.779-10.667,10.667V96c0,5.888,4.779,10.667,10.667,10.667s10.667-4.779,10.667-10.667
				V53.333C405.333,47.445,400.555,42.667,394.667,42.667z"/>
			<path d="M352,42.667c-5.888,0-10.667,4.779-10.667,10.667V96c0,5.888,4.779,10.667,10.667,10.667
				c5.888,0,10.667-4.779,10.667-10.667V53.333C362.667,47.445,357.888,42.667,352,42.667z"/>
		</g>
	</g>
</g>
<g>
</g>
<g>
</g>
<g>
</g>
<g>
</g>
<g>
</g>
<g>
</g>
<g>
</g>
<g>
</g>
<g>
</g>
<g>
</g>
<g>
</g>
<g>
</g>
<g>
</g>
<g>
</g>
<g>
</g>
</svg>
