<?xml version="1.0" encoding="iso-8859-1"?>
<!-- Generator: Adobe Illustrator 19.0.0, SVG Export Plug-In . SVG Version: 6.00 Build 0)  -->
<svg version="1.1" id="Capa_1" xmlns="http://www.w3.org/2000/svg" xmlns:xlink="http://www.w3.org/1999/xlink" x="0px" y="0px"
	 viewBox="0 0 512 512" style="enable-background:new 0 0 512 512;" xml:space="preserve">
<g>
	<g>
		<g>
			<path d="M501.333,320c-5.888,0-10.667,4.779-10.667,10.667v23.595C472.747,335.68,445.589,320,416,320c-52.928,0-96,43.072-96,96
				s43.072,96,96,96c5.888,0,10.667-4.779,10.667-10.667c0-5.888-4.779-10.667-10.667-10.667c-41.173,0-74.667-33.493-74.667-74.667
				s33.493-74.667,74.667-74.667c33.003,0,61.184,25.237,70.827,42.667h-49.493c-5.888,0-10.667,4.779-10.667,10.667
				s4.779,10.667,10.667,10.667h64c5.888,0,10.667-4.779,10.667-10.667v-64C512,324.779,507.221,320,501.333,320z"/>
			<path d="M309.653,480.107c-29.312,6.912-62.613,10.56-96.32,10.56c-113.152,0-192-39.36-192-74.667v-64.384
				c34.197,32.043,106.347,53.717,192,53.717c27.541,0,54.336-2.24,79.659-6.72c5.803-1.024,9.664-6.549,8.661-12.352
				c-1.024-5.781-6.613-9.856-12.352-8.64c-24.107,4.224-49.664,6.379-75.968,6.379c-113.152,0-192-39.36-192-74.667v-64.384
				c34.197,32.043,106.347,53.717,192,53.717s157.803-21.675,192-53.717V288c0,5.888,4.779,10.667,10.667,10.667
				c5.888,0,10.667-4.779,10.667-10.667V96c0-53.824-93.717-96-213.333-96S0,42.176,0,96v320c0,53.824,93.717,96,213.333,96
				c35.328,0,70.315-3.861,101.227-11.136c5.717-1.365,9.28-7.083,7.936-12.843C321.131,482.325,315.349,478.656,309.653,480.107z
				 M213.333,21.333c113.152,0,192,39.36,192,74.667c0,35.307-78.848,74.667-192,74.667s-192-39.36-192-74.667
				C21.333,60.693,100.181,21.333,213.333,21.333z M21.333,138.283C55.531,170.325,127.68,192,213.333,192
				s157.803-21.675,192-53.717v64.384c0,35.307-78.848,74.667-192,74.667s-192-39.36-192-74.667V138.283z"/>
		</g>
	</g>
</g>
<g>
</g>
<g>
</g>
<g>
</g>
<g>
</g>
<g>
</g>
<g>
</g>
<g>
</g>
<g>
</g>
<g>
</g>
<g>
</g>
<g>
</g>
<g>
</g>
<g>
</g>
<g>
</g>
<g>
</g>
</svg>
