<?xml version="1.0" encoding="iso-8859-1"?>
<!-- Generator: Adobe Illustrator 19.0.0, SVG Export Plug-In . SVG Version: 6.00 Build 0)  -->
<svg version="1.1" id="Capa_1" xmlns="http://www.w3.org/2000/svg" xmlns:xlink="http://www.w3.org/1999/xlink" x="0px" y="0px"
	 viewBox="0 0 512 512" style="enable-background:new 0 0 512 512;" xml:space="preserve">
<g>
	<g>
		<g>
			<path d="M283.349,485.184c-22.72,3.648-46.293,5.483-70.016,5.483c-113.152,0-192-39.36-192-74.667v-64.384
				c34.197,32.043,106.347,53.717,192,53.717c11.179,0,22.059-0.448,32.789-1.195c5.888-0.384,10.325-5.483,9.92-11.371
				c-0.384-5.888-5.525-10.304-11.371-9.92c-10.24,0.704-20.651,1.152-31.339,1.152c-113.152,0-192-39.36-192-74.667v-64.384
				c34.197,32.043,106.347,53.717,192,53.717c30.421,0,60.032-2.816,88.043-8.341c5.803-1.152,9.557-6.741,8.405-12.523
				c-1.152-5.803-6.869-9.643-12.523-8.405c-26.667,5.269-54.912,7.936-83.925,7.936c-113.152,0-192-39.36-192-74.667v-64.384
				C55.531,170.325,127.68,192,213.333,192s157.803-21.675,192-53.717v64.384c0,14.485-12.715,26.667-23.381,34.347
				c-4.779,3.456-5.867,10.112-2.432,14.891c2.091,2.901,5.355,4.437,8.661,4.437c2.176,0,4.352-0.661,6.229-2.027
				c4.139-2.965,7.552-6.123,10.923-9.28v2.005c0,5.888,4.779,10.667,10.667,10.667c5.888,0,10.667-4.779,10.667-10.667V96
				c0-53.824-93.717-96-213.333-96S0,42.176,0,96v320c0,53.824,93.717,96,213.333,96c24.853,0,49.536-1.941,73.387-5.739
				c5.803-0.939,9.771-6.4,8.853-12.224C294.635,488.213,289.195,484.352,283.349,485.184z M213.333,21.333
				c113.152,0,192,39.36,192,74.667c0,35.307-78.848,74.667-192,74.667s-192-39.36-192-74.667
				C21.333,60.693,100.181,21.333,213.333,21.333z"/>
			<path d="M394.667,277.333c-64.683,0-117.333,52.651-117.333,117.333S329.984,512,394.667,512S512,459.349,512,394.667
				S459.349,277.333,394.667,277.333z M394.667,490.667c-52.928,0-96-43.072-96-96s43.072-96,96-96s96,43.072,96,96
				S447.595,490.667,394.667,490.667z"/>
			<path d="M405.333,386.155v-43.499c11.755,2.859,20.651,10.219,21.376,18.859c0.469,5.867,6.123,10.091,11.52,9.728
				c5.867-0.491,10.219-5.653,9.728-11.52C446.037,337.088,423.147,320,394.709,320h-0.021c0,0,0,0-0.021,0h-0.021
				c-29.419,0.043-53.312,19.157-53.312,42.667c0,20.011,13.995,33.493,42.667,40.512v43.499
				c-11.755-2.859-20.651-10.219-21.376-18.859c-0.469-5.867-6.251-10.261-11.52-9.728c-5.867,0.491-10.219,5.653-9.728,11.52
				c1.92,22.635,24.811,39.723,53.248,39.723h0.021c0,0,0,0,0.021,0h0.021C424.107,469.291,448,450.176,448,426.667
				C448,406.699,434.048,393.237,405.333,386.155z M384,381.163c-14.208-4.096-21.333-10.027-21.333-18.496
				c0-9.067,9.067-16.96,21.333-19.968V381.163z M405.333,446.635v-38.464c14.208,4.096,21.333,10.027,21.333,18.496
				C426.667,435.733,417.6,443.627,405.333,446.635z"/>
		</g>
	</g>
</g>
<g>
</g>
<g>
</g>
<g>
</g>
<g>
</g>
<g>
</g>
<g>
</g>
<g>
</g>
<g>
</g>
<g>
</g>
<g>
</g>
<g>
</g>
<g>
</g>
<g>
</g>
<g>
</g>
<g>
</g>
</svg>
