<?xml version="1.0" encoding="iso-8859-1"?>
<!-- Generator: Adobe Illustrator 19.0.0, SVG Export Plug-In . SVG Version: 6.00 Build 0)  -->
<svg version="1.1" id="Capa_1" xmlns="http://www.w3.org/2000/svg" xmlns:xlink="http://www.w3.org/1999/xlink" x="0px" y="0px"
	 viewBox="0 0 512 512" style="enable-background:new 0 0 512 512;" xml:space="preserve">
<g>
	<g>
		<g>
			<path d="M394.667,234.667c5.888,0,10.667-4.779,10.667-10.667s-4.779-10.667-10.667-10.667S384,218.112,384,224
				S388.779,234.667,394.667,234.667z"/>
			<path d="M74.667,42.667c-17.643,0-32,14.357-32,32c0,17.643,14.357,32,32,32c17.643,0,32-14.357,32-32
				C106.667,57.024,92.309,42.667,74.667,42.667z M74.667,85.333c-5.888,0-10.667-4.8-10.667-10.667C64,68.8,68.779,64,74.667,64
				s10.667,4.8,10.667,10.667C85.333,80.533,80.555,85.333,74.667,85.333z"/>
			<path d="M501.312,345.941h-86.848l-26.837-82.603c-2.859-8.789-17.429-8.789-20.288,0l-26.837,82.603h-86.848
				c-4.629,0-8.725,2.987-10.155,7.381c-1.429,4.395,0.149,9.216,3.883,11.925l70.379,51.115l-25.131,81.835
				c-1.344,4.395,0.256,9.152,4.011,11.819c1.856,1.323,4.011,1.984,6.187,1.984c2.219,0,4.437-0.683,6.293-2.069l68.373-50.112
				l68.373,50.112c3.691,2.709,8.747,2.731,12.48,0.085c3.733-2.667,5.355-7.424,4.011-11.819l-25.131-81.835l70.357-51.115
				c3.755-2.709,5.312-7.531,3.883-11.925C510.037,348.928,505.941,345.941,501.312,345.941z M418.517,403.627
				c-3.691,2.667-5.269,7.403-3.925,11.755l17.92,58.347l-48.725-35.712c-1.856-1.387-4.075-2.069-6.293-2.069
				s-4.416,0.683-6.336,2.069l-48.725,35.712l17.92-58.347c1.344-4.352-0.235-9.088-3.925-11.755l-49.963-36.288h61.76
				c4.629,0,8.725-2.987,10.155-7.381l19.093-58.752l19.093,58.752c1.429,4.395,5.525,7.381,10.155,7.381h61.76L418.517,403.627z"/>
			<path d="M309.333,42.667c-5.888,0-10.667,4.779-10.667,10.667V96c0,5.888,4.779,10.667,10.667,10.667S320,101.888,320,96V53.333
				C320,47.445,315.221,42.667,309.333,42.667z"/>
			<path d="M362.667,224c0-5.888-4.779-10.667-10.667-10.667c-5.888,0-10.667,4.779-10.667,10.667s4.779,10.667,10.667,10.667
				C357.888,234.667,362.667,229.888,362.667,224z"/>
			<path d="M394.667,42.667c-5.888,0-10.667,4.779-10.667,10.667V96c0,5.888,4.779,10.667,10.667,10.667s10.667-4.779,10.667-10.667
				V53.333C405.333,47.445,400.555,42.667,394.667,42.667z"/>
			<path d="M437.333,277.333c5.888,0,10.667-4.779,10.667-10.667V224c0-5.888-4.779-10.667-10.667-10.667
				c-5.888,0-10.667,4.779-10.667,10.667v42.667C426.667,272.555,431.445,277.333,437.333,277.333z"/>
			<path d="M352,42.667c-5.888,0-10.667,4.779-10.667,10.667V96c0,5.888,4.779,10.667,10.667,10.667
				c5.888,0,10.667-4.779,10.667-10.667V53.333C362.667,47.445,357.888,42.667,352,42.667z"/>
			<path d="M42.667,245.333c0,17.643,14.357,32,32,32c17.643,0,32-14.357,32-32c0-17.643-14.357-32-32-32
				C57.024,213.333,42.667,227.691,42.667,245.333z M85.333,245.333c0,5.867-4.779,10.667-10.667,10.667S64,251.2,64,245.333
				c0-5.867,4.779-10.667,10.667-10.667S85.333,239.467,85.333,245.333z"/>
			<path d="M298.667,224v42.667c0,5.888,4.779,10.667,10.667,10.667S320,272.555,320,266.667V224
				c0-5.888-4.779-10.667-10.667-10.667S298.667,218.112,298.667,224z"/>
			<path d="M437.333,42.667c-5.888,0-10.667,4.779-10.667,10.667V96c0,5.888,4.779,10.667,10.667,10.667
				c5.888,0,10.667-4.779,10.667-10.667V53.333C448,47.445,443.221,42.667,437.333,42.667z"/>
			<path d="M458.667,149.333C488.064,149.333,512,125.419,512,96V53.333C512,23.915,488.064,0,458.667,0H53.333
				C23.936,0,0,23.915,0,53.333V96c0,29.419,23.936,53.333,53.333,53.333H192v21.333H53.333C23.936,170.667,0,194.581,0,224v42.667
				C0,296.085,23.936,320,53.333,320H192v21.333h-10.667c-5.888,0-10.667,4.779-10.667,10.667v10.667H160
				c-5.888,0-10.667,4.779-10.667,10.667V384h-96c-5.888,0-10.667,4.779-10.667,10.667s4.779,10.667,10.667,10.667h96V416
				c0,5.888,4.779,10.667,10.667,10.667h85.333c5.888,0,10.667-4.779,10.667-10.667v-11.797c0-5.888-4.779-10.667-10.667-10.667
				s-10.667,4.779-10.667,10.667v1.131h-64V384h10.667c5.888,0,10.667-4.779,10.667-10.667v-10.667h16.213
				c5.888,0,10.667-4.779,10.667-10.667c0-3.989-2.283-7.339-5.547-9.173V320h105.451c5.888,0,10.667-4.779,10.667-10.667
				s-4.779-10.667-10.667-10.667H53.333c-17.643,0-32-14.357-32-32V224c0-17.643,14.357-32,32-32h405.333c17.643,0,32,14.357,32,32
				v42.667c0,17.643-14.357,32-32,32h-22.443c-5.888,0-10.667,4.779-10.667,10.667S430.336,320,436.224,320h22.443
				C488.064,320,512,296.085,512,266.667V224c0-29.419-23.936-53.333-53.333-53.333H213.333v-21.333H458.667z M53.333,128
				c-17.643,0-32-14.357-32-32V53.333c0-17.643,14.357-32,32-32h405.333c17.643,0,32,14.357,32,32V96c0,17.643-14.357,32-32,32
				H53.333z"/>
		</g>
	</g>
</g>
<g>
</g>
<g>
</g>
<g>
</g>
<g>
</g>
<g>
</g>
<g>
</g>
<g>
</g>
<g>
</g>
<g>
</g>
<g>
</g>
<g>
</g>
<g>
</g>
<g>
</g>
<g>
</g>
<g>
</g>
</svg>
