<?xml version="1.0" encoding="iso-8859-1"?>
<!-- Generator: Adobe Illustrator 19.0.0, SVG Export Plug-In . SVG Version: 6.00 Build 0)  -->
<svg version="1.1" id="Capa_1" xmlns="http://www.w3.org/2000/svg" xmlns:xlink="http://www.w3.org/1999/xlink" x="0px" y="0px"
	 viewBox="0 0 512 512" style="enable-background:new 0 0 512 512;" xml:space="preserve">
<g>
	<g>
		<g>
			<path d="M511.471,353.323c-1.451-4.395-5.525-7.381-10.155-7.381h-86.848l-26.837-82.603c-2.88-8.789-17.408-8.789-20.288,0
				l-26.837,82.603h-86.848c-4.629,0-8.725,2.987-10.155,7.381c-1.408,4.395,0.149,9.216,3.883,11.925l70.379,51.115l-25.131,81.835
				c-1.344,4.395,0.256,9.152,4.011,11.819c3.733,2.624,8.768,2.624,12.501-0.085l68.352-50.112l68.352,50.112
				c1.877,1.387,4.096,2.069,6.315,2.069c2.176,0,4.331-0.661,6.165-1.984c3.755-2.667,5.355-7.424,4.011-11.819l-25.131-81.835
				l70.379-51.115C511.343,362.539,512.9,357.717,511.471,353.323z M418.543,403.627c-3.691,2.667-5.269,7.403-3.925,11.755
				l17.92,58.347l-48.704-35.712c-1.877-1.387-4.096-2.069-6.315-2.069c-2.197,0-4.437,0.683-6.357,2.069l-48.704,35.712
				l17.92-58.347c1.344-4.352-0.235-9.088-3.925-11.755l-49.984-36.288h61.781c4.629,0,8.725-2.987,10.155-7.381l19.093-58.752
				l19.093,58.752c1.451,4.395,5.525,7.381,10.155,7.381h61.781L418.543,403.627z"/>
			<path d="M248.836,489.259c-11.499,0.896-23.339,1.408-35.499,1.408c-113.152,0-192-39.36-192-74.667v-64.384
				c34.197,32.043,106.368,53.717,192,53.717c5.888,0,10.667-4.779,10.667-10.667S219.226,384,213.338,384
				c-113.152,0-192-39.36-192-74.667v-64.384c34.197,32.043,106.368,53.717,192,53.717c37.824,0,75.136-4.437,107.883-12.843
				c5.696-1.451,9.131-7.253,7.68-12.971c-1.451-5.675-7.296-9.173-12.971-7.68c-31.04,7.957-66.539,12.16-102.592,12.16
				c-113.152,0-192-39.36-192-74.667v-64.384C55.535,170.325,127.706,192,213.338,192s157.803-21.675,192-53.717v91.883
				c0,5.888,4.779,10.667,10.667,10.667c5.888,0,10.667-4.779,10.667-10.667V96c0-53.824-93.717-96-213.333-96
				S0.004,42.176,0.004,96v320c0,53.824,93.717,96,213.333,96c12.693,0,25.067-0.555,37.12-1.451
				c5.867-0.448,10.283-5.589,9.835-11.456C259.844,493.227,254.554,488.853,248.836,489.259z M213.338,21.333
				c113.152,0,192,39.36,192,74.667c0,35.307-78.827,74.667-192,74.667s-192-39.36-192-74.667
				C21.338,60.693,100.186,21.333,213.338,21.333z"/>
		</g>
	</g>
</g>
<g>
</g>
<g>
</g>
<g>
</g>
<g>
</g>
<g>
</g>
<g>
</g>
<g>
</g>
<g>
</g>
<g>
</g>
<g>
</g>
<g>
</g>
<g>
</g>
<g>
</g>
<g>
</g>
<g>
</g>
</svg>
