<?xml version="1.0" encoding="iso-8859-1"?>
<!-- Generator: Adobe Illustrator 19.0.0, SVG Export Plug-In . SVG Version: 6.00 Build 0)  -->
<svg version="1.1" id="Capa_1" xmlns="http://www.w3.org/2000/svg" xmlns:xlink="http://www.w3.org/1999/xlink" x="0px" y="0px"
	 viewBox="0 0 512 512" style="enable-background:new 0 0 512 512;" xml:space="preserve">
<g>
	<g>
		<g>
			<path d="M448,247.488V224c0-5.888-4.779-10.667-10.667-10.667c-5.888,0-10.667,4.779-10.667,10.667v23.488
				c0,5.888,4.779,10.667,10.667,10.667C443.221,258.155,448,253.376,448,247.488z"/>
			<path d="M405.333,247.488V224c0-5.888-4.779-10.667-10.667-10.667S384,218.112,384,224v23.488
				c0,5.888,4.779,10.667,10.667,10.667S405.333,253.376,405.333,247.488z"/>
			<path d="M362.667,266.667V224c0-5.888-4.779-10.667-10.667-10.667c-5.888,0-10.667,4.779-10.667,10.667v42.667
				c0,5.888,4.779,10.667,10.667,10.667C357.888,277.333,362.667,272.555,362.667,266.667z"/>
			<path d="M405.333,444.736v13.931c0,5.888,4.779,10.667,10.667,10.667c5.888,0,10.667-4.779,10.667-10.667v-13.931
				c6.272-3.712,10.667-10.261,10.667-18.069c0-11.776-9.557-21.333-21.333-21.333s-21.333,9.557-21.333,21.333
				C394.667,434.475,399.083,441.024,405.333,444.736z"/>
			<path d="M42.667,245.333c0,17.643,14.336,32,32,32c17.621,0,32-14.357,32-32c0-17.643-14.379-32-32-32
				C57.003,213.333,42.667,227.691,42.667,245.333z M85.333,245.333c0,5.888-4.821,10.667-10.667,10.667
				C68.779,256,64,251.221,64,245.333s4.779-10.667,10.667-10.667C80.512,234.667,85.333,239.445,85.333,245.333z"/>
			<path d="M458.667,149.333C488.064,149.333,512,125.397,512,96V53.333C512,23.936,488.064,0,458.667,0H53.333
				C23.893,0,0,23.936,0,53.333V96c0,29.397,23.893,53.333,53.333,53.333H192v21.333H53.333C23.893,170.667,0,194.603,0,224v42.667
				C0,296.064,23.893,320,53.333,320H192v21.333h-10.667c-5.888,0-10.667,4.779-10.667,10.667v10.667H160
				c-5.888,0-10.667,4.779-10.667,10.667V384h-96c-5.888,0-10.667,4.779-10.667,10.667s4.779,10.667,10.667,10.667h96V416
				c0,5.888,4.779,10.667,10.667,10.667h85.333c5.888,0,10.667-4.779,10.667-10.667v-10.667h32c5.888,0,10.667-4.779,10.667-10.667
				S293.888,384,288,384h-32v-10.667c0-5.888-4.779-10.667-10.667-10.667h-10.667V352c0-5.888-4.779-10.667-10.667-10.667h-10.667
				V320h105.045c5.888,0,10.667-4.757,10.667-10.645s-4.779-10.667-10.667-10.667H202.752c-0.021,0-0.064-0.021-0.085-0.021
				c-0.021,0-0.064,0.021-0.107,0.021H53.333c-17.643,0-32-14.357-32-32v-42.667c0-17.643,14.357-32,32-32h405.333
				c17.643,0,32,14.357,32,32v42.667c0,4.437-0.96,8.811-2.859,13.013c-2.411,5.355-0.021,11.691,5.355,14.101
				c5.312,2.368,11.691,0.043,14.101-5.355c3.136-6.976,4.736-14.315,4.736-21.781V224c0-29.397-23.936-53.333-53.333-53.333
				H213.333v-21.333H458.667z M213.333,362.667v10.667c0,5.888,4.779,10.667,10.667,10.667h10.667v21.333h-64V384h10.667
				c5.888,0,10.667-4.779,10.667-10.667v-10.667H213.333z M53.333,128c-17.664,0-32-14.357-32-32V53.333c0-17.643,14.336-32,32-32
				h405.333c17.621,0,32,14.357,32,32V96c0,17.643-14.379,32-32,32H53.333z"/>
			<path d="M501.333,362.667h-10.667V352c0-41.173-33.493-74.667-74.667-74.667S341.333,310.827,341.333,352v10.667h-10.667
				c-5.888,0-10.667,4.779-10.667,10.667v128c0,5.888,4.779,10.667,10.667,10.667h170.667c5.888,0,10.667-4.779,10.667-10.667v-128
				C512,367.445,507.221,362.667,501.333,362.667z M362.667,352c0-29.397,23.915-53.333,53.333-53.333
				c29.419,0,53.333,23.936,53.333,53.333v10.667H362.667V352z M490.667,490.667H341.333V384h149.333V490.667z"/>
			<path d="M394.667,42.667c-5.888,0-10.667,4.779-10.667,10.667V96c0,5.888,4.779,10.667,10.667,10.667s10.667-4.779,10.667-10.667
				V53.333C405.333,47.445,400.555,42.667,394.667,42.667z"/>
			<path d="M437.333,42.667c-5.888,0-10.667,4.779-10.667,10.667V96c0,5.888,4.779,10.667,10.667,10.667
				c5.888,0,10.667-4.779,10.667-10.667V53.333C448,47.445,443.221,42.667,437.333,42.667z"/>
			<path d="M298.667,224v42.667c0,5.888,4.779,10.667,10.667,10.667S320,272.555,320,266.667V224
				c0-5.888-4.779-10.667-10.667-10.667S298.667,218.112,298.667,224z"/>
			<path d="M352,42.667c-5.888,0-10.667,4.779-10.667,10.667V96c0,5.888,4.779,10.667,10.667,10.667
				c5.888,0,10.667-4.779,10.667-10.667V53.333C362.667,47.445,357.888,42.667,352,42.667z"/>
			<path d="M309.333,42.667c-5.888,0-10.667,4.779-10.667,10.667V96c0,5.888,4.779,10.667,10.667,10.667S320,101.888,320,96V53.333
				C320,47.445,315.221,42.667,309.333,42.667z"/>
			<path d="M74.667,42.667c-17.664,0-32,14.357-32,32c0,17.643,14.336,32,32,32c17.621,0,32-14.357,32-32
				C106.667,57.024,92.288,42.667,74.667,42.667z M74.667,85.333C68.779,85.333,64,80.555,64,74.667S68.779,64,74.667,64
				c5.845,0,10.667,4.779,10.667,10.667S80.512,85.333,74.667,85.333z"/>
		</g>
	</g>
</g>
<g>
</g>
<g>
</g>
<g>
</g>
<g>
</g>
<g>
</g>
<g>
</g>
<g>
</g>
<g>
</g>
<g>
</g>
<g>
</g>
<g>
</g>
<g>
</g>
<g>
</g>
<g>
</g>
<g>
</g>
</svg>
