<?xml version="1.0" encoding="iso-8859-1"?>
<!-- Generator: Adobe Illustrator 19.0.0, SVG Export Plug-In . SVG Version: 6.00 Build 0)  -->
<svg version="1.1" id="Capa_1" xmlns="http://www.w3.org/2000/svg" xmlns:xlink="http://www.w3.org/1999/xlink" x="0px" y="0px"
	 viewBox="0 0 512.021 512.021" style="enable-background:new 0 0 512.021 512.021;" xml:space="preserve">
<g>
	<g>
		<g>
			<path d="M405.355,444.747v13.931c0,5.888,4.779,10.667,10.667,10.667c5.888,0,10.667-4.779,10.667-10.667v-13.931
				c6.251-3.712,10.667-10.261,10.667-18.069c0-11.776-9.557-21.333-21.333-21.333s-21.333,9.557-21.333,21.333
				C394.688,434.485,399.083,441.035,405.355,444.747z"/>
			<path d="M501.355,362.677h-10.667v-10.667c0-41.173-33.493-74.667-74.667-74.667s-74.667,33.493-74.667,74.667v10.667h-10.667
				c-5.888,0-10.667,4.779-10.667,10.667v128c0,5.888,4.779,10.667,10.667,10.667h170.667c5.888,0,10.667-4.779,10.667-10.667v-128
				C512.021,367.456,507.243,362.677,501.355,362.677z M362.688,352.011c0-29.419,23.915-53.333,53.333-53.333
				c29.419,0,53.333,23.915,53.333,53.333v10.667H362.688V352.011z M490.688,490.677H341.355V384.011h149.333V490.677z"/>
			<path d="M213.333,405.344c26.155,0,51.861-2.091,76.459-6.208c5.781-0.981,9.728-6.485,8.747-12.288
				c-0.981-5.803-6.421-9.749-12.288-8.747c-23.424,3.904-47.979,5.909-72.917,5.909c-113.152,0-192-39.36-192-74.667V244.96
				c34.176,32.043,106.347,53.717,192,53.717s157.803-21.675,192-53.717v0.384c0,5.888,4.779,10.667,10.667,10.667
				c5.888,0,10.667-4.779,10.667-10.667V96.011c0-53.824-93.717-96-213.333-96S0,42.187,0,96.011v320c0,53.824,93.717,96,213.333,96
				c26.155,0,51.861-2.091,76.459-6.208c5.781-0.981,9.728-6.485,8.747-12.288c-0.981-5.803-6.421-9.771-12.288-8.747
				c-23.424,3.904-47.979,5.909-72.917,5.909c-113.152,0-192-39.36-192-74.667v-64.384
				C55.509,383.669,127.68,405.344,213.333,405.344z M213.333,21.344c113.152,0,192,39.36,192,74.667
				c0,35.307-78.848,74.667-192,74.667s-192-39.36-192-74.667C21.333,60.704,100.16,21.344,213.333,21.344z M21.333,138.293
				c34.176,32.043,106.347,53.717,192,53.717s157.803-21.675,192-53.717v64.384c0,35.307-78.848,74.667-192,74.667
				s-192-39.36-192-74.667V138.293z"/>
		</g>
	</g>
</g>
<g>
</g>
<g>
</g>
<g>
</g>
<g>
</g>
<g>
</g>
<g>
</g>
<g>
</g>
<g>
</g>
<g>
</g>
<g>
</g>
<g>
</g>
<g>
</g>
<g>
</g>
<g>
</g>
<g>
</g>
</svg>
