<?xml version="1.0" encoding="iso-8859-1"?>
<!-- Generator: Adobe Illustrator 19.0.0, SVG Export Plug-In . SVG Version: 6.00 Build 0)  -->
<svg version="1.1" id="Capa_1" xmlns="http://www.w3.org/2000/svg" xmlns:xlink="http://www.w3.org/1999/xlink" x="0px" y="0px"
	 viewBox="0 0 512 512" style="enable-background:new 0 0 512 512;" xml:space="preserve">
<g>
	<g>
		<g>
			<path d="M508.87,408.448l-85.333-85.333c-4.16-4.16-10.923-4.16-15.083,0l-85.333,85.333c-3.051,3.051-3.968,7.637-2.304,11.627
				c1.643,3.989,5.547,6.592,9.856,6.592h10.667v74.667c0,5.888,4.779,10.667,10.667,10.667h42.667
				c5.888,0,10.667-4.779,10.667-10.667V448h21.333v53.333c0,5.888,4.779,10.667,10.667,10.667h42.667
				c5.888,0,10.667-4.779,10.667-10.667v-74.667h10.667c4.309,0,8.213-2.603,9.835-6.592
				C512.838,416.085,511.921,411.499,508.87,408.448z M469.339,416v74.667h-21.333v-53.333c0-5.888-4.779-10.667-10.667-10.667
				h-42.667c-5.888,0-10.667,4.779-10.667,10.667v53.333h-21.333V416c0-4.565-2.88-8.469-6.933-9.984l60.267-60.267l60.267,60.267
				C472.219,407.531,469.339,411.435,469.339,416z"/>
			<path d="M306.971,480.747c-28.565,6.485-60.928,9.92-93.632,9.92c-113.152,0-192-39.36-192-74.667v-64.384
				c34.197,32.043,106.347,53.717,192,53.717c30.677,0,60.501-2.859,88.683-8.491c5.76-1.152,9.515-6.763,8.363-12.544
				c-1.131-5.76-6.72-9.579-12.544-8.363c-26.795,5.355-55.232,8.064-84.501,8.064c-113.152,0-192-39.36-192-74.667v-64.384
				c34.197,32.043,106.347,53.717,192,53.717s157.803-21.675,192-53.717v25.365c0,5.888,4.779,10.667,10.667,10.667
				c5.888,0,10.667-4.757,10.667-10.667V96c0-53.824-93.717-96-213.333-96S0.006,42.176,0.006,96v320c0,53.824,93.717,96,213.333,96
				c34.261,0,68.267-3.605,98.368-10.432c5.739-1.323,9.344-7.019,8.043-12.779C318.427,483.051,312.731,479.424,306.971,480.747z
				 M213.339,21.333c113.152,0,192,39.36,192,74.667c0,35.307-78.848,74.667-192,74.667s-192-39.36-192-74.667
				C21.339,60.693,100.187,21.333,213.339,21.333z M21.339,138.283C55.537,170.325,127.686,192,213.339,192
				s157.803-21.675,192-53.717v64.384c0,35.307-78.848,74.667-192,74.667s-192-39.36-192-74.667V138.283z"/>
		</g>
	</g>
</g>
<g>
</g>
<g>
</g>
<g>
</g>
<g>
</g>
<g>
</g>
<g>
</g>
<g>
</g>
<g>
</g>
<g>
</g>
<g>
</g>
<g>
</g>
<g>
</g>
<g>
</g>
<g>
</g>
<g>
</g>
</svg>
