<?xml version="1.0" encoding="iso-8859-1"?>
<!-- Generator: Adobe Illustrator 19.0.0, SVG Export Plug-In . SVG Version: 6.00 Build 0)  -->
<svg version="1.1" id="Capa_1" xmlns="http://www.w3.org/2000/svg" xmlns:xlink="http://www.w3.org/1999/xlink" x="0px" y="0px"
	 viewBox="0 0 512 512" style="enable-background:new 0 0 512 512;" xml:space="preserve">
<g>
	<g>
		<g>
			<path d="M53.333,362.667c-5.888,0-10.667,4.779-10.667,10.667c0,5.888,4.779,10.667,10.667,10.667S64,379.221,64,373.333
				C64,367.445,59.221,362.667,53.333,362.667z"/>
			<path d="M53.333,448c-5.888,0-10.667,4.779-10.667,10.667s4.779,10.667,10.667,10.667S64,464.555,64,458.667
				S59.221,448,53.333,448z"/>
			<path d="M96,298.667c5.888,0,10.667-4.779,10.667-10.752V181.248c0-17.643,14.357-32,32-32h80.917l-3.115,3.115
				c-4.16,4.16-4.16,10.923,0,15.083c4.16,4.16,10.923,4.16,15.083,0l21.269-21.269c0.213-0.213,0.427-0.448,0.64-0.683
				c1.387-1.643,2.219-3.605,2.453-5.632c0.064-0.619,0.085-1.259,0.043-1.877c-0.149-2.475-1.173-4.928-3.051-6.848
				c-0.021-0.021-0.021-0.021-0.021-0.021l-21.333-21.333c-4.16-4.16-10.923-4.16-15.083,0c-2.069,2.091-3.115,4.821-3.115,7.552
				c0,2.731,1.024,5.461,3.115,7.552l3.115,3.115h-80.917c-29.397,0-53.333,23.936-53.333,53.333V288
				C85.333,293.888,90.112,298.667,96,298.667z"/>
			<path d="M330.667,448h-85.333c-5.888,0-10.667,4.779-10.667,10.667s4.779,10.667,10.667,10.667h85.333
				c5.888,0,10.667-4.779,10.667-10.667S336.555,448,330.667,448z"/>
			<path d="M480,256.085c-5.888,0-10.667,4.779-10.667,10.667v128c0,5.888-4.779,10.667-10.667,10.667h-16.917l3.115-3.115
				c4.16-4.16,4.16-10.923,0-15.083c-4.16-4.16-10.923-4.16-15.083,0l-21.269,21.269c-0.213,0.213-0.427,0.448-0.64,0.683
				c-1.387,1.643-2.219,3.605-2.453,5.632c-0.064,0.619-0.085,1.259-0.043,1.877c0.149,2.475,1.173,4.928,3.051,6.848
				c0.021,0.021,0.021,0.021,0.021,0.021l21.333,21.333c2.091,2.069,4.821,3.115,7.552,3.115c2.731,0,5.461-0.939,7.531-3.029
				c2.069-2.091,3.115-4.821,3.115-7.552c0-2.731-1.024-5.461-3.115-7.552l-3.115-3.115h16.917c17.643,0,32-14.357,32-32v-128
				C490.667,260.864,485.888,256.085,480,256.085z"/>
			<path d="M512,117.333C512,52.629,459.371,0,394.667,0S277.333,52.629,277.333,117.333s52.629,117.333,117.333,117.333
				S512,182.037,512,117.333z M490.667,117.333c0,8.576-16.363,19.584-44.032,26.219c0.875-8.683,1.365-17.472,1.365-26.219
				c0-8.747-0.491-17.536-1.365-26.219C474.304,97.749,490.667,108.757,490.667,117.333z M483.669,81.813
				c-11.307-5.781-25.216-10.155-40.341-13.141c-2.987-15.125-7.36-29.035-13.141-40.341
				C454.549,38.08,473.92,57.451,483.669,81.813z M394.667,21.333c8.576,0,19.584,16.363,26.219,44.032
				C412.203,64.491,403.413,64,394.667,64s-17.536,0.491-26.219,1.365C375.083,37.696,386.091,21.333,394.667,21.333z
				 M298.667,117.333c0-8.576,16.363-19.584,44.032-26.219c-0.875,8.683-1.365,17.472-1.365,26.219
				c0,8.747,0.491,17.536,1.365,26.219C315.029,136.917,298.667,125.909,298.667,117.333z M305.664,152.853
				c11.307,5.781,25.216,10.155,40.341,13.141c2.987,15.125,7.381,29.035,13.141,40.341
				C334.784,196.587,315.413,177.195,305.664,152.853z M346.005,68.672c-15.125,2.987-29.035,7.36-40.341,13.141
				c9.749-24.363,29.141-43.733,53.483-53.483C353.387,39.637,348.992,53.547,346.005,68.672z M394.667,213.333
				c-8.576,0-19.584-16.363-26.219-44.032c8.683,0.875,17.472,1.365,26.219,1.365s17.536-0.491,26.219-1.365
				C414.251,196.971,403.243,213.333,394.667,213.333z M424.704,147.371c-9.301,1.152-19.157,1.963-30.037,1.963
				s-20.736-0.811-30.037-1.963c-1.152-9.301-1.963-19.157-1.963-30.037s0.811-20.736,1.963-30.037
				c9.301-1.152,19.157-1.963,30.037-1.963s20.736,0.811,30.037,1.963c1.152,9.301,1.963,19.157,1.963,30.037
				S425.856,138.069,424.704,147.371z M430.187,206.336c5.781-11.307,10.155-25.216,13.141-40.341
				c15.125-2.987,29.035-7.381,40.341-13.141C473.92,177.195,454.549,196.587,430.187,206.336z"/>
			<path d="M352,320H32c-17.643,0-32,14.357-32,32v42.667C0,402.88,3.2,410.325,8.32,416C3.2,421.675,0,429.12,0,437.333V480
				c0,17.643,14.357,32,32,32h320c17.643,0,32-14.357,32-32v-42.667c0-8.213-3.2-15.659-8.32-21.333
				c5.12-5.675,8.32-13.12,8.32-21.333V352C384,334.357,369.643,320,352,320z M362.667,480c0,5.888-4.779,10.667-10.667,10.667H32
				c-5.888,0-10.667-4.779-10.667-10.667v-42.667c0-5.888,4.779-10.667,10.667-10.667h320c5.888,0,10.667,4.779,10.667,10.667V480z
				 M362.667,394.667c0,5.888-4.779,10.667-10.667,10.667H32c-5.888,0-10.667-4.779-10.667-10.667V352
				c0-5.888,4.779-10.667,10.667-10.667h320c5.888,0,10.667,4.779,10.667,10.667V394.667z"/>
			<path d="M330.667,362.667h-85.333c-5.888,0-10.667,4.779-10.667,10.667c0,5.888,4.779,10.667,10.667,10.667h85.333
				c5.888,0,10.667-4.779,10.667-10.667C341.333,367.445,336.555,362.667,330.667,362.667z"/>
		</g>
	</g>
</g>
<g>
</g>
<g>
</g>
<g>
</g>
<g>
</g>
<g>
</g>
<g>
</g>
<g>
</g>
<g>
</g>
<g>
</g>
<g>
</g>
<g>
</g>
<g>
</g>
<g>
</g>
<g>
</g>
<g>
</g>
</svg>
