<?xml version="1.0" encoding="iso-8859-1"?>
<!-- Generator: Adobe Illustrator 19.0.0, SVG Export Plug-In . SVG Version: 6.00 Build 0)  -->
<svg version="1.1" id="Capa_1" xmlns="http://www.w3.org/2000/svg" xmlns:xlink="http://www.w3.org/1999/xlink" x="0px" y="0px"
	 viewBox="0 0 512.043 512.043" style="enable-background:new 0 0 512.043 512.043;" xml:space="preserve">
<g>
	<g>
		<g>
			<path d="M170.688,373.355c0-5.888-4.779-10.667-10.667-10.667h-14.123c-10.496-32.107-16.597-68.757-17.579-106.667h351.701
				c5.888,0,10.667-4.779,10.667-10.667c0-0.043-0.021-0.085-0.021-0.128C490.581,110.016,380.587,0.043,245.376,0.021h-0.021
				c0,0,0,0-0.021,0C110.059,0.021,0,110.08,0,245.355c0,101.632,61.12,191.296,155.733,228.437c1.28,0.512,2.603,0.747,3.904,0.747
				c4.267,0,8.277-2.56,9.92-6.763c2.155-5.483-0.555-11.669-6.037-13.824c-38.187-14.997-70.357-39.381-94.421-69.931h61.483
				c5.077,13.184,10.901,25.6,17.472,37.013c1.984,3.413,5.568,5.333,9.259,5.333c1.813,0,3.648-0.448,5.312-1.408
				c5.12-2.944,6.891-9.451,3.947-14.571c-4.672-8.128-8.853-17.067-12.736-26.368h6.187
				C165.909,384.021,170.688,379.243,170.688,373.355z M468.8,234.688h-85.077c-0.896-38.72-6.485-74.923-16.064-106.667h68.117
				C455.147,159.339,466.944,195.691,468.8,234.688z M420.928,106.688h-60.523c-11.605-30.464-27.072-55.659-45.184-74.027
				C357.376,46.549,393.941,72.619,420.928,106.688z M256.021,22.421c32.192,5.845,61.035,37.781,80.619,84.267h-80.619V22.421z
				 M256.021,128.021h88.533c10.432,31.509,16.832,67.947,17.835,106.667H256.021V128.021z M234.688,234.688H128.32
				c1.003-38.72,7.403-75.157,17.835-106.667h88.533V234.688z M234.688,22.421v84.267h-80.619
				C173.653,60.203,202.496,28.267,234.688,22.421z M175.509,32.64c-18.112,18.368-33.579,43.584-45.205,74.048H69.739
				C96.725,72.597,133.333,46.528,175.509,32.64z M54.891,128.021h68.16c-9.579,31.744-15.168,67.947-16.064,106.667h-85.12
				C23.723,195.691,35.52,159.339,54.891,128.021z M54.357,362.688c-19.349-31.531-30.827-67.989-32.619-106.667h85.248
				c0.896,37.931,6.357,74.24,16.256,106.667H54.357z"/>
			<path d="M490.688,364.651v-55.296c0-17.643-14.357-32-32-32H245.355c-17.643,0-32,14.357-32,32v12.629
				c-12.395,4.416-21.333,16.149-21.333,30.037v128c0,17.643,14.357,32,32,32h256c17.643,0,32-14.357,32.021-32v-85.333
				C512.043,380.8,503.083,369.067,490.688,364.651z M234.688,309.355c0-5.888,4.8-10.667,10.667-10.667h213.333
				c5.867,0,10.667,4.779,10.667,10.667v53.333H340.139c-3.968-0.235-13.739-11.925-19.008-18.197
				c-10.517-12.587-20.459-24.469-33.109-24.469h-53.333V309.355z M490.688,480.021c0,5.888-4.8,10.667-10.667,10.667h-256
				c-5.867,0-10.667-4.779-10.667-10.667v-128c0-5.888,4.8-10.667,10.667-10.667l63.744-0.021
				c3.563,0.768,11.989,10.816,17.003,16.853c10.624,12.693,21.611,25.835,35.328,25.835h139.925
				c5.867,0,10.667,4.779,10.667,10.667V480.021z"/>
		</g>
	</g>
</g>
<g>
</g>
<g>
</g>
<g>
</g>
<g>
</g>
<g>
</g>
<g>
</g>
<g>
</g>
<g>
</g>
<g>
</g>
<g>
</g>
<g>
</g>
<g>
</g>
<g>
</g>
<g>
</g>
<g>
</g>
</svg>
