<?xml version="1.0" encoding="iso-8859-1"?>
<!-- Generator: Adobe Illustrator 19.0.0, SVG Export Plug-In . SVG Version: 6.00 Build 0)  -->
<svg version="1.1" id="Capa_1" xmlns="http://www.w3.org/2000/svg" xmlns:xlink="http://www.w3.org/1999/xlink" x="0px" y="0px"
	 viewBox="0 0 512 512" style="enable-background:new 0 0 512 512;" xml:space="preserve">
<g>
	<g>
		<g>
			<path d="M512,341.333c0-56.021-192-56.021-192,0c0,0.384,0.213,0.704,0.235,1.088c-0.043,0.405-0.235,0.768-0.235,1.195v123.435
				C320,497.941,369.771,512,416,512c46.229,0,96-14.059,96-44.949V343.616c0-0.427-0.192-0.789-0.235-1.195
				C511.787,342.037,512,341.717,512,341.333z M490.667,467.051c0,9.621-29.077,23.616-74.667,23.616s-74.667-13.995-74.667-23.616
				v-13.653c18.517,10.432,46.571,15.936,74.667,15.936c28.096,0,56.149-5.504,74.667-15.936V467.051z M490.667,424.384
				c0,8.32-28.352,23.616-74.667,23.616c-46.315,0-74.667-15.296-74.667-23.616v-12.139c18.517,10.432,46.571,15.936,74.667,15.936
				c28.096,0,56.149-5.504,74.667-15.936V424.384z M490.667,383.232c0,8.32-28.352,23.616-74.667,23.616
				c-46.315,0-74.667-15.296-74.667-23.616v-14.357C359.851,378.773,387.904,384,416,384c28.096,0,56.149-5.227,74.667-15.125
				V383.232z M416,362.667c-48.491,0-74.667-15.147-74.667-21.333c0-6.187,26.176-21.333,74.667-21.333
				c48.491,0,74.667,15.147,74.667,21.333C490.667,347.52,464.491,362.667,416,362.667z"/>
			<path d="M288,362.667h-32V256h106.411c-0.085,3.264-0.085,6.571-0.235,9.813c-0.277,5.867,4.267,10.88,10.155,11.157
				c5.611,0.512,10.88-4.267,11.157-10.155c0.171-3.563,0.171-7.211,0.256-10.816h85.099c-0.149,3.243-0.149,6.507-0.427,9.707
				c-0.533,5.867,3.797,11.051,9.664,11.584c5.717,0.576,11.072-3.797,11.584-9.664c0.661-7.339,1.003-14.784,1.003-22.293
				C490.667,110.059,380.608,0,245.333,0S0,110.059,0,245.333s110.059,245.333,245.333,245.333c7.531,0,14.976-0.341,22.336-1.003
				c5.867-0.533,10.197-5.717,9.664-11.584s-5.739-10.133-11.584-9.664c-3.2,0.277-6.507,0.277-9.749,0.448V384h32
				c5.888,0,10.667-4.779,10.667-10.667C298.667,367.445,293.888,362.667,288,362.667z M468.8,234.667h-85.099
				c-0.896-38.72-6.485-74.923-16.064-106.667h68.139C455.147,159.317,466.944,195.669,468.8,234.667z M420.928,106.667h-60.544
				c-11.605-30.464-27.093-55.68-45.184-74.027C357.355,46.528,393.941,72.576,420.928,106.667z M256,22.421
				c32.192,5.845,61.035,37.76,80.597,84.245H256V22.421z M256,128h88.533c10.432,31.509,16.832,67.947,17.856,106.667H256V128z
				 M175.467,32.64c-18.091,18.347-33.579,43.563-45.184,74.027H69.739C96.725,72.576,133.312,46.528,175.467,32.64z M54.891,128
				h68.139c-9.579,31.744-15.168,67.947-16.064,106.667H21.867C23.723,195.669,35.52,159.317,54.891,128z M21.867,256h85.099
				c0.896,38.72,6.485,74.923,16.064,106.667H54.891C35.52,331.349,23.723,294.997,21.867,256z M69.739,384h60.544
				c11.605,30.464,27.093,55.68,45.184,74.027C133.312,444.139,96.725,418.091,69.739,384z M234.667,468.288
				c-32.192-5.845-61.056-37.781-80.619-84.288h80.619V468.288z M234.667,362.667h-88.533
				C135.701,331.157,129.301,294.72,128.299,256h106.368V362.667z M234.667,234.667H128.299
				c1.003-38.72,7.424-75.157,17.835-106.667h88.533V234.667z M234.667,106.667h-80.597c19.563-46.485,48.405-78.4,80.597-84.245
				V106.667z"/>
		</g>
	</g>
</g>
<g>
</g>
<g>
</g>
<g>
</g>
<g>
</g>
<g>
</g>
<g>
</g>
<g>
</g>
<g>
</g>
<g>
</g>
<g>
</g>
<g>
</g>
<g>
</g>
<g>
</g>
<g>
</g>
<g>
</g>
</svg>
