<?xml version="1.0" encoding="iso-8859-1"?>
<!-- Generator: Adobe Illustrator 19.0.0, SVG Export Plug-In . SVG Version: 6.00 Build 0)  -->
<svg version="1.1" id="Capa_1" xmlns="http://www.w3.org/2000/svg" xmlns:xlink="http://www.w3.org/1999/xlink" x="0px" y="0px"
	 viewBox="0 0 512.1 512.1" style="enable-background:new 0 0 512.1 512.1;" xml:space="preserve">
<g>
	<g>
		<path d="M437.3,362.7c-5.9,0-10.7,4.8-10.7,10.7s4.8,10.7,10.7,10.7s10.7-4.8,10.7-10.7C448,367.4,443.2,362.7,437.3,362.7z"/>
	</g>
</g>
<g>
	<g>
		<path d="M416,384c-5.9,0-10.7,4.8-10.7,10.7s4.8,10.7,10.7,10.7s10.7-4.8,10.7-10.7S421.9,384,416,384z"/>
	</g>
</g>
<g>
	<g>
		<path d="M394.7,298.7h-85.3c-89.5,0-117.3,101.7-117.3,138.7c0,49.5,14.4,74.7,42.7,74.7c44.2,0,66-41.5,72.2-55.8
			c7.3-2.7,24.7-8.2,45.1-8.2c20.4,0,37.8,5.5,45.1,8.2c6.2,14.3,28,55.8,72.2,55.8c28.3,0,42.7-25.1,42.7-74.7
			C512,400.3,484.2,298.7,394.7,298.7z M469.3,490.7c-37.1,0-53.8-45.8-53.9-46.2c-1-2.7-3-4.9-5.6-6.1c-1-0.5-25.8-11.6-57.8-11.6
			s-56.7,11.2-57.8,11.6c-2.6,1.2-4.7,3.4-5.6,6.1c-0.1,0.5-16.9,46.2-53.9,46.2c-5.3,0-21.3,0-21.3-53.3
			c0-18.2,17.7-117.3,96-117.3h85.3c78.3,0,96,99.1,96,117.3C490.7,490.7,474.6,490.7,469.3,490.7z"/>
	</g>
</g>
<g>
	<g>
		<path d="M309.3,362.7h-10.7V352c0-5.9-4.8-10.7-10.7-10.7c-5.9,0-10.7,4.8-10.7,10.7v10.7h-10.7c-5.9,0-10.7,4.8-10.7,10.7
			s4.8,10.7,10.7,10.7h10.7v10.7c0,5.9,4.8,10.7,10.7,10.7c5.9,0,10.7-4.8,10.7-10.7V384h10.7c5.9,0,10.7-4.8,10.7-10.7
			S315.2,362.7,309.3,362.7z"/>
	</g>
</g>
<g>
	<g>
		<path d="M309.3,213.3c-5.9,0-10.7,4.8-10.7,10.7v42.7c0,5.9,4.8,10.7,10.7,10.7c5.9,0,10.7-4.8,10.7-10.7V224
			C320,218.1,315.2,213.3,309.3,213.3z"/>
	</g>
</g>
<g>
	<g>
		<path d="M179.4,364.8c0,0-2-2.2-6.1-2.1H160c-5.9,0-10.7,4.8-10.7,10.7V384h-96c-5.9,0-10.7,4.8-10.7,10.7s4.8,10.7,10.7,10.7h96
			V416c0,5.9,6.7,10.7,12.6,10.7c5.9,0,9.7-4.8,9.7-10.7c0-1.5-0.4-2.8-1-4.1V384h2.7c5.9,0,10.7-4.8,10.7-10.7
			C184,369.7,182.1,366.7,179.4,364.8z"/>
	</g>
</g>
<g>
	<g>
		<path d="M394.7,362.7c-5.9,0-10.7,4.8-10.7,10.7s4.8,10.7,10.7,10.7s10.7-4.8,10.7-10.7C405.3,367.4,400.6,362.7,394.7,362.7z"/>
	</g>
</g>
<g>
	<g>
		<path d="M416,341.3c-5.9,0-10.7,4.8-10.7,10.7c0,5.9,4.8,10.7,10.7,10.7c5.9,0,10.7-4.8,10.7-10.7S421.9,341.3,416,341.3z"/>
	</g>
</g>
<g>
	<g>
		<path d="M394.7,42.7c-5.9,0-10.7,4.8-10.7,10.7V96c0,5.9,4.8,10.7,10.7,10.7s10.7-4.8,10.7-10.7V53.3
			C405.3,47.4,400.6,42.7,394.7,42.7z"/>
	</g>
</g>
<g>
	<g>
		<path d="M458.7,149.4v-0.1c29.4,0,53.3-23.9,53.3-53.3V53.3C512,23.9,488.1,0,458.7,0H53.3C23.9,0,0,23.9,0,53.3V96
			c0,29.4,23.9,53.3,53.3,53.3H192v21.3H53.3C23.9,170.6,0,194.5,0,223.9v42.7c0,29.4,23.9,53.3,53.3,53.3h158.1
			c5.9,0,10.7-4.8,10.7-10.7s-4.8-10.7-10.7-10.7H53.3c-17.6,0-32-14.4-32-32V224c0-17.6,14.4-32,32-32h405.3c17.6,0,32,14.4,32,32
			v42.7c0,10.2-4.8,19.5-13.1,25.7c-4.7,3.5-5.7,10.2-2.2,14.9c3.5,4.7,10.2,5.7,14.9,2.2c13.8-10.2,21.8-25.8,21.8-42.9V224
			c0-29.4-23.9-53.3-53.3-53.3H213.3v-21.3H458.7z M53.3,128c-17.6,0-32-14.4-32-32V53.3c0-17.6,14.4-32,32-32h405.3
			c17.6,0,32,14.4,32,32V96c0,17.6-14.4,32-32,32H53.3z"/>
	</g>
</g>
<g>
	<g>
		<path d="M352,213.3c-5.9,0-10.7,4.8-10.7,10.7v42.7c0,5.9,4.8,10.7,10.7,10.7c5.9-0.1,10.7-4.8,10.7-10.7V224
			C362.7,218.1,357.9,213.3,352,213.3z"/>
	</g>
</g>
<g>
	<g>
		<path d="M352,42.7c-5.9,0-10.7,4.8-10.7,10.7V96c0,5.9,4.8,10.7,10.7,10.7s10.7-4.8,10.7-10.7V53.3
			C362.7,47.4,357.9,42.7,352,42.7z"/>
	</g>
</g>
<g>
	<g>
		<path d="M74.7,213.3c-17.6,0-32,14.4-32,32c0,17.6,14.4,32,32,32c17.6,0,32-14.4,32-32S92.3,213.3,74.7,213.3z M74.7,256
			c-5.9,0-10.7-4.8-10.7-10.7s4.8-10.7,10.7-10.7c5.9,0,10.7,4.8,10.7,10.7S80.5,256,74.7,256z"/>
	</g>
</g>
<g>
	<g>
		<path d="M437.3,42.7c-5.9,0-10.7,4.8-10.7,10.7V96c0,5.9,4.8,10.7,10.7,10.7S448,101.9,448,96V53.3
			C448,47.4,443.2,42.7,437.3,42.7z"/>
	</g>
</g>
<g>
	<g>
		<path d="M394.6,213.3c-5.9,0-10.7,4.8-10.7,10.7v42.7c0,5.9,4.8,10.7,10.7,10.7c6-0.1,10.7-4.8,10.7-10.7V224
			C405.3,218.1,400.5,213.3,394.6,213.3z"/>
	</g>
</g>
<g>
	<g>
		<path d="M437.3,213.3c-5.9,0-10.7,4.8-10.7,10.7v42.7c0,5.9,4.8,10.7,10.7,10.7s10.7-4.8,10.7-10.7V224
			C448,218.1,443.2,213.3,437.3,213.3z"/>
	</g>
</g>
<g>
	<g>
		<path d="M74.7,42.7c-17.6,0-32,14.4-32,32c0,17.6,14.4,32,32,32c17.6,0,32-14.4,32-32C106.7,57,92.3,42.7,74.7,42.7z M74.7,85.3
			c-5.9,0-10.7-4.8-10.7-10.7C64,68.7,68.8,64,74.7,64c5.9,0,10.7,4.8,10.7,10.7C85.4,80.6,80.5,85.3,74.7,85.3z"/>
	</g>
</g>
<g>
	<g>
		<path d="M309.3,42.7c-5.9,0-10.7,4.8-10.7,10.7V96c0,5.9,4.8,10.7,10.7,10.7c5.9,0,10.7-4.8,10.7-10.7V53.3
			C320,47.4,315.2,42.7,309.3,42.7z"/>
	</g>
</g>
<g>
</g>
<g>
</g>
<g>
</g>
<g>
</g>
<g>
</g>
<g>
</g>
<g>
</g>
<g>
</g>
<g>
</g>
<g>
</g>
<g>
</g>
<g>
</g>
<g>
</g>
<g>
</g>
<g>
</g>
</svg>
