<?xml version="1.0" encoding="iso-8859-1"?>
<!-- Generator: Adobe Illustrator 19.0.0, SVG Export Plug-In . SVG Version: 6.00 Build 0)  -->
<svg version="1.1" id="Capa_1" xmlns="http://www.w3.org/2000/svg" xmlns:xlink="http://www.w3.org/1999/xlink" x="0px" y="0px"
	 viewBox="0 0 512.021 512.021" style="enable-background:new 0 0 512.021 512.021;" xml:space="preserve">
<g>
	<g>
		<g>
			<path d="M394.688,277.344c-32.256,0-61.525,13.099-82.752,34.24c-0.064,0.064-0.149,0.085-0.213,0.149s-0.085,0.149-0.149,0.213
				c-21.141,21.227-34.219,50.475-34.219,82.731c0,64.683,52.629,117.333,117.333,117.333c32.213,0,61.44-13.077,82.667-34.176
				c0.085-0.085,0.213-0.107,0.299-0.192c0.085-0.085,0.107-0.213,0.192-0.299c21.099-21.227,34.176-50.453,34.176-82.667
				C512.021,329.995,459.392,277.344,394.688,277.344z M394.688,490.677c-52.928,0-96-43.072-96-96
				c0-22.613,8.192-43.157,21.333-59.584l134.251,134.251C437.845,482.485,417.301,490.677,394.688,490.677z M469.355,454.261
				L335.083,320.011c16.427-13.141,36.971-21.333,59.605-21.333c52.949,0,96,43.072,96,96
				C490.688,417.291,482.496,437.835,469.355,454.261z"/>
			<path d="M283.371,485.195c-22.741,3.648-46.315,5.483-70.037,5.483c-113.152,0-192-39.36-192-74.667v-64.384
				c34.176,32.043,106.347,53.717,192,53.717c11.179,0,22.08-0.448,32.789-1.195c5.867-0.384,10.325-5.483,9.92-11.371
				c-0.405-5.867-5.568-10.347-11.371-9.92c-10.24,0.704-20.651,1.152-31.339,1.152c-113.152,0-192-39.36-192-74.667V244.96
				c34.176,32.043,106.347,53.717,192,53.717c30.421,0,60.032-2.816,88.043-8.341c5.781-1.152,9.536-6.741,8.405-12.523
				c-1.152-5.803-6.763-9.621-12.544-8.405c-26.645,5.269-54.869,7.936-83.904,7.936c-113.152,0-192-39.36-192-74.667v-64.384
				c34.176,32.043,106.347,53.717,192,53.717s157.803-21.675,192-53.717v64.512c-0.064,14.421-12.715,26.581-23.36,34.219
				c-4.779,3.456-5.867,10.112-2.432,14.891c2.069,2.901,5.355,4.437,8.661,4.437c2.155,0,4.331-0.661,6.229-1.984
				c4.117-2.965,7.552-6.123,10.901-9.28v1.963c0,5.888,4.779,10.667,10.667,10.667c5.888,0,10.667-4.779,10.667-10.667v-44.203
				c0-0.043,0.021-0.107,0.021-0.149s-0.021-0.064-0.021-0.107V96.011c0-53.824-93.717-96-213.333-96S0,42.187,0,96.011v320
				c0,53.824,93.717,96,213.333,96c24.853,0,49.536-1.941,73.387-5.739c5.824-0.939,9.771-6.4,8.853-12.224
				C294.656,488.245,289.152,484.32,283.371,485.195z M213.333,21.344c113.152,0,192,39.36,192,74.667
				c0,35.307-78.848,74.667-192,74.667s-192-39.36-192-74.667C21.333,60.704,100.16,21.344,213.333,21.344z"/>
		</g>
	</g>
</g>
<g>
</g>
<g>
</g>
<g>
</g>
<g>
</g>
<g>
</g>
<g>
</g>
<g>
</g>
<g>
</g>
<g>
</g>
<g>
</g>
<g>
</g>
<g>
</g>
<g>
</g>
<g>
</g>
<g>
</g>
</svg>
