<?xml version="1.0" encoding="iso-8859-1"?>
<!-- Generator: Adobe Illustrator 19.0.0, SVG Export Plug-In . SVG Version: 6.00 Build 0)  -->
<svg version="1.1" id="Capa_1" xmlns="http://www.w3.org/2000/svg" xmlns:xlink="http://www.w3.org/1999/xlink" x="0px" y="0px"
	 viewBox="0 0 512 512" style="enable-background:new 0 0 512 512;" xml:space="preserve">
<g>
	<g>
		<g>
			<path d="M386.987,451.179c-1.92,1.941-2.987,4.715-2.987,7.488s1.045,5.547,3.179,7.467c1.941,2.133,4.715,3.2,7.488,3.2
				s5.547-1.067,7.467-3.221c2.133-1.92,3.2-4.693,3.2-7.467c0-2.773-1.045-5.525-3.2-7.68
				C398.293,447.147,391.253,446.933,386.987,451.179z"/>
			<path d="M283.349,485.184c-22.72,3.648-46.293,5.483-70.016,5.483c-113.152,0-192-39.36-192-74.667v-64.384
				c34.197,32.043,106.347,53.717,192,53.717c11.179,0,22.059-0.448,32.789-1.195c5.888-0.384,10.325-5.483,9.92-11.371
				c-0.363-5.888-5.419-10.283-11.371-9.92c-10.24,0.704-20.651,1.152-31.339,1.152c-113.152,0-192-39.36-192-74.667v-64.384
				c34.197,32.043,106.347,53.717,192,53.717c30.421,0,60.032-2.816,88.043-8.341c5.803-1.152,9.557-6.741,8.405-12.523
				c-1.131-5.803-6.805-9.6-12.523-8.405c-26.667,5.269-54.912,7.936-83.925,7.936c-113.152,0-192-39.36-192-74.667v-64.384
				C55.531,170.325,127.68,192,213.333,192s157.803-21.675,192-53.717v64.405c0,14.464-12.715,26.667-23.381,34.325
				c-4.779,3.456-5.867,10.112-2.432,14.891c2.091,2.901,5.355,4.437,8.661,4.437c2.176,0,4.352-0.661,6.229-2.005
				c4.139-2.965,7.552-6.123,10.923-9.28v1.984c0,5.888,4.779,10.667,10.667,10.667c5.888,0,10.667-4.779,10.667-10.667V96
				c0-53.824-93.717-96-213.333-96S0,42.176,0,96v320c0,53.824,93.717,96,213.333,96c24.853,0,49.536-1.941,73.387-5.739
				c5.803-0.939,9.771-6.4,8.853-12.224C294.613,488.213,289.237,484.352,283.349,485.184z M213.333,21.333
				c113.152,0,192,39.36,192,74.667c0,35.307-78.848,74.667-192,74.667s-192-39.36-192-74.667
				C21.333,60.693,100.181,21.333,213.333,21.333z"/>
			<path d="M394.667,320c-5.888,0-10.667,4.779-10.667,10.667V416c0,5.888,4.779,10.667,10.667,10.667s10.667-4.779,10.667-10.667
				v-85.333C405.333,324.779,400.555,320,394.667,320z"/>
			<path d="M394.667,277.333c-64.683,0-117.333,52.651-117.333,117.333S329.984,512,394.667,512S512,459.349,512,394.667
				S459.349,277.333,394.667,277.333z M394.667,490.667c-52.928,0-96-43.072-96-96s43.072-96,96-96s96,43.072,96,96
				C490.667,447.595,447.595,490.667,394.667,490.667z"/>
		</g>
	</g>
</g>
<g>
</g>
<g>
</g>
<g>
</g>
<g>
</g>
<g>
</g>
<g>
</g>
<g>
</g>
<g>
</g>
<g>
</g>
<g>
</g>
<g>
</g>
<g>
</g>
<g>
</g>
<g>
</g>
<g>
</g>
</svg>
