<?xml version="1.0" encoding="iso-8859-1"?>
<!-- Generator: Adobe Illustrator 19.0.0, SVG Export Plug-In . SVG Version: 6.00 Build 0)  -->
<svg version="1.1" id="Capa_1" xmlns="http://www.w3.org/2000/svg" xmlns:xlink="http://www.w3.org/1999/xlink" x="0px" y="0px"
	 viewBox="0 0 512 512" style="enable-background:new 0 0 512 512;" xml:space="preserve">
<g>
	<g>
		<g>
			<path d="M420.395,342.379c-0.128-0.064-0.171-0.192-0.299-0.256c-0.021-0.021-0.064,0-0.085,0
				c-1.707-0.704-3.541-0.768-5.355-0.533c-0.469,0.064-0.896,0.149-1.365,0.256c-1.749,0.448-3.413,1.195-4.779,2.56
				c-0.021,0.021-0.043,0.021-0.043,0.021l-0.021,0.021l-42.645,42.645c-4.16,4.16-4.16,10.923,0,15.083s10.923,4.16,15.083,0
				l24.448-24.427v80.917c0,5.888,4.779,10.667,10.667,10.667c5.888,0,10.667-4.779,10.688-10.667v-80.875l24.427,24.427
				c2.091,2.069,4.821,3.115,7.552,3.115s5.461-1.045,7.531-3.115c4.16-4.16,4.16-10.923,0-15.083l-42.667-42.667
				C422.613,343.552,421.525,342.912,420.395,342.379z"/>
			<path d="M501.333,448c-5.888,0-10.667,4.779-10.667,10.667v32H341.333v-32c0-5.888-4.779-10.667-10.667-10.667
				S320,452.779,320,458.667v42.667c0,5.888,4.779,10.667,10.667,10.667h170.667c5.888,0,10.667-4.779,10.667-10.667v-42.667
				C512,452.779,507.221,448,501.333,448z"/>
			<path d="M286.229,484.757c-23.424,3.904-47.957,5.909-72.896,5.909c-113.152,0-192-39.36-192-74.667v-64.384
				c34.197,32.043,106.347,53.717,192,53.717c52.181,0,102.315-8.32,141.163-23.424c5.504-2.112,8.213-8.299,6.08-13.781
				c-2.133-5.504-8.32-8.235-13.803-6.08C310.336,376.213,262.955,384,213.333,384c-113.152,0-192-39.36-192-74.667v-64.384
				c34.197,32.043,106.347,53.717,192,53.717s157.803-21.675,192-53.717v64.384c0,5.888,4.779,10.667,10.667,10.667
				c5.888,0,10.667-4.779,10.667-10.667V96c0-53.824-93.717-96-213.333-96S0,42.176,0,96v320c0,53.824,93.717,96,213.333,96
				c26.133,0,51.84-2.091,76.416-6.208c5.824-0.981,9.749-6.485,8.768-12.288C297.536,487.701,291.947,483.733,286.229,484.757z
				 M213.333,21.333c113.152,0,192,39.36,192,74.667c0,35.307-78.848,74.667-192,74.667s-192-39.36-192-74.667
				C21.333,60.693,100.181,21.333,213.333,21.333z M21.333,138.283C55.531,170.325,127.68,192,213.333,192
				s157.803-21.675,192-53.717v64.384c0,35.307-78.848,74.667-192,74.667s-192-39.36-192-74.667V138.283z"/>
		</g>
	</g>
</g>
<g>
</g>
<g>
</g>
<g>
</g>
<g>
</g>
<g>
</g>
<g>
</g>
<g>
</g>
<g>
</g>
<g>
</g>
<g>
</g>
<g>
</g>
<g>
</g>
<g>
</g>
<g>
</g>
<g>
</g>
</svg>
