<?xml version="1.0" encoding="iso-8859-1"?>
<!-- Generator: Adobe Illustrator 19.0.0, SVG Export Plug-In . SVG Version: 6.00 Build 0)  -->
<svg version="1.1" id="Capa_1" xmlns="http://www.w3.org/2000/svg" xmlns:xlink="http://www.w3.org/1999/xlink" x="0px" y="0px"
	 viewBox="0 0 512 512" style="enable-background:new 0 0 512 512;" xml:space="preserve">
<g>
	<g>
		<g>
			<path d="M291.605,483.883c-24.832,4.501-51.157,6.784-78.272,6.784c-113.152,0-192-39.36-192-74.667v-64.384
				c34.197,32.043,106.368,53.717,192,53.717c11.584,0,22.869-0.469,33.941-1.28c5.867-0.405,10.304-5.525,9.877-11.392
				c-0.405-5.888-5.333-10.517-11.392-9.899c-10.581,0.768-21.333,1.237-32.427,1.237c-113.152,0-192-39.36-192-74.667v-64.384
				c34.197,32.043,106.368,53.717,192,53.717s157.803-21.675,192-53.717v57.408c0,5.888,4.779,10.667,10.667,10.667
				c5.888,0,10.667-4.779,10.667-10.667V96c0-53.824-93.717-96-213.333-96S0,42.176,0,96v320c0,53.824,93.717,96,213.333,96
				c28.373,0,55.979-2.389,82.069-7.125c5.803-1.067,9.643-6.613,8.597-12.395C302.955,486.699,297.429,482.88,291.605,483.883z
				 M213.333,21.333c113.152,0,192,39.36,192,74.667c0,35.307-78.827,74.667-192,74.667s-192-39.36-192-74.667
				C21.333,60.693,100.181,21.333,213.333,21.333z M21.333,138.283C55.531,170.325,127.701,192,213.333,192
				s157.803-21.675,192-53.717v64.384c0,35.307-78.848,74.667-192,74.667s-192-39.36-192-74.667V138.283z"/>
			<path d="M437.333,330.667c-5.888,0-10.667,4.779-10.667,10.667c0,5.888,4.779,10.667,10.667,10.667
				c29.397,0,53.333,23.915,53.333,53.333c0,29.419-23.936,53.333-53.333,53.333h-16.917l13.781-13.781
				c4.16-4.16,4.16-10.923,0-15.083c-4.16-4.16-10.923-4.16-15.083,0l-32,32c-0.085,0.085-0.107,0.213-0.213,0.299
				c-0.853,0.917-1.6,1.963-2.091,3.136c-1.088,2.624-1.088,5.568,0,8.192c0.299,0.704,0.811,1.237,1.237,1.856
				c0.363,0.533,0.576,1.109,1.045,1.579l32,32c2.112,2.091,4.843,3.136,7.573,3.136c2.709,0,5.44-1.045,7.531-3.136
				c4.16-4.16,4.16-10.923,0-15.083L420.395,480h16.939C478.485,480,512,446.507,512,405.333S478.507,330.667,437.333,330.667z"/>
			<path d="M402.773,348.032c0.661-0.811,1.323-1.621,1.728-2.603c0.363-0.853,0.427-1.792,0.555-2.688
				c0.043-0.491,0.277-0.917,0.277-1.408c0-1.067-0.32-2.027-0.597-2.987c-0.107-0.341-0.064-0.704-0.213-1.024
				c-0.555-1.387-1.387-2.603-2.453-3.627l-31.872-31.872c-4.16-4.16-10.923-4.16-15.083,0s-4.16,10.923,0,15.083l13.76,13.76H352
				c-41.173,0-74.667,33.493-74.667,74.667S310.827,480,352,480c5.888,0,10.667-4.779,10.667-10.667s-4.779-10.667-10.667-10.667
				c-29.397,0-53.333-23.915-53.333-53.333S322.603,352,352,352h16.917l-13.803,13.803c-4.16,4.16-4.16,10.923,0,15.083
				c2.091,2.069,4.821,3.115,7.552,3.115c2.709,0,5.44-1.045,7.531-3.093l32-32C402.453,348.651,402.539,348.309,402.773,348.032z"
				/>
		</g>
	</g>
</g>
<g>
</g>
<g>
</g>
<g>
</g>
<g>
</g>
<g>
</g>
<g>
</g>
<g>
</g>
<g>
</g>
<g>
</g>
<g>
</g>
<g>
</g>
<g>
</g>
<g>
</g>
<g>
</g>
<g>
</g>
</svg>
