<?xml version="1.0" encoding="iso-8859-1"?>
<!-- Generator: Adobe Illustrator 19.0.0, SVG Export Plug-In . SVG Version: 6.00 Build 0)  -->
<svg version="1.1" id="Capa_1" xmlns="http://www.w3.org/2000/svg" xmlns:xlink="http://www.w3.org/1999/xlink" x="0px" y="0px"
	 viewBox="0 0 512 512" style="enable-background:new 0 0 512 512;" xml:space="preserve">
<g>
	<g>
		<g>
			<path d="M416,320c-5.888,0-10.667,4.779-10.667,10.667v10.667c-47.061,0-85.333,38.272-85.333,85.333S358.272,512,405.333,512
				c47.061,0,85.333-38.272,85.333-85.333h10.667c5.888,0,10.667-4.779,10.667-10.667C512,363.072,468.928,320,416,320z
				 M405.333,490.667c-35.285,0-64-28.715-64-64s28.715-64,64-64V416c0,5.888,4.779,10.667,10.667,10.667h53.333
				C469.333,461.952,440.619,490.667,405.333,490.667z M426.667,405.333V342.08c32.64,4.715,58.539,30.613,63.232,63.253H426.667z"
				/>
			<path d="M305.323,481.088c-28.267,6.272-60.075,9.579-91.989,9.579c-113.152,0-192-39.36-192-74.667v-64.384
				c34.197,32.043,106.347,53.717,192,53.717c28.8,0,56.896-2.496,83.52-7.445c5.781-1.067,9.6-6.635,8.533-12.416
				c-1.067-5.803-6.613-9.621-12.437-8.533c-25.323,4.693-52.117,7.061-79.616,7.061c-113.152,0-192-39.36-192-74.667v-64.384
				c34.197,32.043,106.347,53.717,192,53.717s157.803-21.675,192-53.717V288c0,5.888,4.779,10.667,10.667,10.667
				c5.888,0,10.667-4.779,10.667-10.667V96c0-53.824-93.717-96-213.333-96S0,42.176,0,96v320c0,53.824,93.717,96,213.333,96
				c33.92,0,66.432-3.392,96.619-10.069c5.76-1.28,9.387-6.976,8.107-12.736S311.125,479.787,305.323,481.088z M213.333,21.333
				c113.152,0,192,39.36,192,74.667c0,35.307-78.848,74.667-192,74.667s-192-39.36-192-74.667
				C21.333,60.693,100.181,21.333,213.333,21.333z M21.333,138.283C55.531,170.325,127.68,192,213.333,192
				s157.803-21.675,192-53.717v64.384c0,35.307-78.848,74.667-192,74.667s-192-39.36-192-74.667V138.283z"/>
		</g>
	</g>
</g>
<g>
</g>
<g>
</g>
<g>
</g>
<g>
</g>
<g>
</g>
<g>
</g>
<g>
</g>
<g>
</g>
<g>
</g>
<g>
</g>
<g>
</g>
<g>
</g>
<g>
</g>
<g>
</g>
<g>
</g>
</svg>
