<?xml version="1.0" encoding="iso-8859-1"?>
<!-- Generator: Adobe Illustrator 19.0.0, SVG Export Plug-In . SVG Version: 6.00 Build 0)  -->
<svg version="1.1" id="Capa_1" xmlns="http://www.w3.org/2000/svg" xmlns:xlink="http://www.w3.org/1999/xlink" x="0px" y="0px"
	 viewBox="0 0 512 512" style="enable-background:new 0 0 512 512;" xml:space="preserve">
<g>
	<g>
		<g>
			<path d="M437.333,490.667h-63.147l71.467-89.344c2.581-3.2,3.072-7.573,1.28-11.285c-1.771-3.691-5.504-6.037-9.6-6.037H352
				c-5.888,0-10.667,4.779-10.667,10.667s4.779,10.667,10.667,10.667h63.147l-71.467,89.344c-2.581,3.2-3.072,7.573-1.28,11.285
				c1.771,3.691,5.504,6.037,9.6,6.037h85.333c5.888,0,10.667-4.779,10.667-10.667C448,495.445,443.221,490.667,437.333,490.667z"/>
			<path d="M306.987,374.101C278.4,380.587,246.016,384,213.333,384c-113.152,0-192-39.36-192-74.667v-64.384
				c34.197,32.043,106.347,53.717,192,53.717s157.803-21.675,192-53.717v64.384c0,14.357-12.48,26.453-22.933,34.048
				c-4.757,3.456-5.803,10.112-2.347,14.891c2.069,2.88,5.333,4.395,8.619,4.395c2.176,0,4.373-0.661,6.272-2.048
				c3.925-2.859,7.168-5.888,10.389-8.939V352c0,5.888,4.779,10.667,10.667,10.667c5.888,0,10.667-4.779,10.667-10.667V96
				c0-53.824-93.717-96-213.333-96S0,42.176,0,96v320c0,53.824,93.717,96,213.333,96c32.683,0,64.213-3.179,93.675-9.472
				c5.76-1.237,9.451-6.891,8.213-12.672c-1.259-5.76-6.976-9.301-12.672-8.213c-28.011,5.973-58.027,9.024-89.216,9.024
				c-113.152,0-192-39.36-192-74.667v-64.384c34.197,32.043,106.347,53.717,192,53.717c34.24,0,68.245-3.605,98.368-10.432
				c5.76-1.301,9.365-6.997,8.043-12.757C318.421,376.384,312.789,372.693,306.987,374.101z M213.333,21.333
				c113.152,0,192,39.36,192,74.667c0,35.307-78.848,74.667-192,74.667s-192-39.36-192-74.667
				C21.333,60.693,100.181,21.333,213.333,21.333z M21.333,138.283C55.531,170.325,127.68,192,213.333,192
				s157.803-21.675,192-53.717v64.384c0,35.307-78.848,74.667-192,74.667s-192-39.36-192-74.667V138.283z"/>
			<path d="M501.333,405.333h-22.72l31.595-47.424c2.176-3.285,2.389-7.488,0.512-10.965c-1.835-3.456-5.44-5.632-9.387-5.632
				h-42.667c-5.888,0-10.667,4.779-10.667,10.667s4.779,10.667,10.667,10.667h22.72l-31.595,47.424
				c-2.176,3.285-2.389,7.488-0.512,10.965c1.835,3.456,5.44,5.632,9.387,5.632h42.667c5.888,0,10.667-4.779,10.667-10.667
				C512,410.112,507.221,405.333,501.333,405.333z"/>
		</g>
	</g>
</g>
<g>
</g>
<g>
</g>
<g>
</g>
<g>
</g>
<g>
</g>
<g>
</g>
<g>
</g>
<g>
</g>
<g>
</g>
<g>
</g>
<g>
</g>
<g>
</g>
<g>
</g>
<g>
</g>
<g>
</g>
</svg>
