<?xml version="1.0" encoding="iso-8859-1"?>
<!-- Generator: Adobe Illustrator 19.0.0, SVG Export Plug-In . SVG Version: 6.00 Build 0)  -->
<svg version="1.1" id="Capa_1" xmlns="http://www.w3.org/2000/svg" xmlns:xlink="http://www.w3.org/1999/xlink" x="0px" y="0px"
	 viewBox="0 0 512.018 512.018" style="enable-background:new 0 0 512.018 512.018;" xml:space="preserve">
<g>
	<g>
		<g>
			<path d="M288.149,484.467c-23.936,4.117-49.109,6.208-74.816,6.208c-113.152,0-192-39.36-192-74.667v-64.384
				c34.176,32.043,106.347,53.717,192,53.717c12.459,0,24.576-0.533,36.459-1.408c5.867-0.427,10.283-5.568,9.856-11.435
				c-0.427-5.867-5.568-10.325-11.435-9.856c-11.328,0.832-22.955,1.365-34.88,1.365c-113.152,0-192-39.36-192-74.667v-63.808
				c29.333,27.413,86.827,47.083,159.296,51.947c0.235,0.021,0.469,0.021,0.725,0.021c5.568,0,10.24-4.309,10.624-9.963
				c0.384-5.867-4.075-10.944-9.941-11.349c-90.112-6.037-160.704-38.336-160.704-73.515v-64.384
				c34.176,32.043,106.347,53.717,192,53.717s157.803-21.675,192-53.717v64.384c0,19.413-23.168,39.595-61.952,53.995
				c-5.525,2.048-8.341,8.192-6.293,13.717c1.6,4.309,5.675,6.955,10.005,6.955c1.216,0,2.475-0.213,3.691-0.661
				c23.488-8.704,41.749-19.328,54.549-31.253v21.248c0,5.888,4.779,10.667,10.667,10.667c5.888,0,10.667-4.779,10.667-10.667
				V96.009c0-53.824-93.717-96-213.333-96S0,42.185,0,96.009v320c0,53.824,93.717,96,213.333,96c26.923,0,53.291-2.197,78.443-6.507
				c5.781-1.003,9.685-6.528,8.704-12.331C299.477,487.369,294.037,483.465,288.149,484.467z M213.333,21.342
				c113.152,0,192,39.36,192,74.667c0,35.307-78.848,74.667-192,74.667s-192-39.36-192-74.667
				C21.333,60.702,100.181,21.342,213.333,21.342z"/>
			<path d="M352,448.009c-17.643,0-32,14.357-32,32c0,17.643,14.357,32,32,32c17.643,0,32-14.357,32-32
				C384,462.366,369.643,448.009,352,448.009z M352,490.675c-5.867,0-10.667-4.8-10.667-10.667c0-5.867,4.8-10.667,10.667-10.667
				c5.867,0,10.667,4.8,10.667,10.667C362.667,485.875,357.867,490.675,352,490.675z"/>
			<path d="M509.76,302.771c-2.027-2.581-5.141-4.096-8.427-4.096H280.32l-3.307-13.248c-1.173-4.757-5.461-8.085-10.347-8.085H224
				c-5.888,0-10.667,4.779-10.667,10.667s4.779,10.667,10.667,10.667h34.325l40.661,162.581c1.195,4.864,5.547,8.085,10.347,8.085
				c0.853,0,1.728-0.107,2.581-0.32c5.717-1.429,9.173-7.211,7.765-12.928l-7.723-30.912l169.301-19.925
				c4.395-0.491,8.021-3.691,9.109-8l21.333-85.333C512.491,308.723,511.787,305.353,509.76,302.771z M471.445,384.947
				l-164.715,19.392l-21.077-84.331h202.005L471.445,384.947z"/>
			<path d="M437.333,448.009c-17.643,0-32,14.357-32,32c0,17.643,14.357,32,32,32c17.643,0,32-14.357,32-32
				C469.333,462.366,454.976,448.009,437.333,448.009z M437.333,490.675c-5.867,0-10.667-4.8-10.667-10.667
				c0-5.867,4.8-10.667,10.667-10.667c5.867,0,10.667,4.8,10.667,10.667C448,485.875,443.2,490.675,437.333,490.675z"/>
		</g>
	</g>
</g>
<g>
</g>
<g>
</g>
<g>
</g>
<g>
</g>
<g>
</g>
<g>
</g>
<g>
</g>
<g>
</g>
<g>
</g>
<g>
</g>
<g>
</g>
<g>
</g>
<g>
</g>
<g>
</g>
<g>
</g>
</svg>
