<?xml version="1.0" encoding="iso-8859-1"?>
<!-- Generator: Adobe Illustrator 19.0.0, SVG Export Plug-In . SVG Version: 6.00 Build 0)  -->
<svg version="1.1" id="Capa_1" xmlns="http://www.w3.org/2000/svg" xmlns:xlink="http://www.w3.org/1999/xlink" x="0px" y="0px"
	 viewBox="0 0 512.038 512.038" style="enable-background:new 0 0 512.038 512.038;" xml:space="preserve">
<g>
	<g>
		<g>
			<path d="M510.014,198.396c-1.6-12.437-8.661-23.253-19.328-29.675c-10.517-6.357-23.168-7.509-34.837-3.115
				c-9.173,3.456-19.691-1.301-23.915-10.752c-4.971-11.136-11.115-21.803-18.219-31.68c-6.165-8.576-5.013-19.84,2.667-26.155
				c9.493-7.808,14.784-19.349,14.549-31.637c-0.256-12.48-6.144-24-16.149-31.573c-16.299-12.352-34.091-22.635-52.885-30.549
				c-11.648-4.907-24.619-4.245-35.563,1.792c-10.731,5.931-18.069,16.277-20.075,28.373c-1.643,9.856-10.923,16.384-21.44,15.339
				c-11.947-1.259-24.363-1.259-36.309,0c-10.731,0.896-19.776-5.504-21.419-15.36c-2.027-12.096-9.344-22.443-20.096-28.352
				c-10.987-6.037-23.936-6.677-35.541-1.792c-18.773,7.915-36.587,18.197-52.885,30.549c-9.984,7.573-15.872,19.072-16.128,31.552
				c-0.235,12.288,5.077,23.829,14.571,31.659c7.68,6.315,8.832,17.536,2.645,26.133c-7.104,9.899-13.248,20.565-18.219,31.68
				c-4.224,9.451-14.763,14.187-24.149,10.667c-10.069-3.755-20.992-3.349-30.72,1.131c-9.771,4.523-17.472,12.949-21.099,23.125
				c-2.005,5.547,0.896,11.648,6.443,13.632c5.525,1.984,11.648-0.896,13.632-6.443c1.728-4.821,5.355-8.811,9.984-10.965
				c4.501-2.112,9.579-2.304,14.485-0.427c19.712,7.381,42.048-2.283,50.901-22.016c4.373-9.813,9.792-19.221,16.064-27.947
				c12.8-17.835,10.048-41.515-6.421-55.083c-4.437-3.627-6.891-9.003-6.784-14.72c0.107-5.909,2.901-11.392,7.68-14.997
				c14.891-11.285,31.125-20.672,48.277-27.883c5.589-2.368,11.776-2.048,16.981,0.832c5.077,2.795,8.384,7.467,9.344,13.184
				c3.52,21.141,22.763,35.371,44.693,33.045c10.475-1.088,21.419-1.088,31.872,0c22.08,2.304,41.173-11.883,44.693-33.045
				c0.96-5.696,4.288-10.389,9.344-13.184c5.205-2.901,11.371-3.2,16.981-0.832c17.152,7.232,33.408,16.619,48.277,27.883
				c4.779,3.627,7.595,9.088,7.701,14.997c0.128,5.739-2.347,11.115-6.784,14.763c-16.448,13.547-19.221,37.227-6.4,55.061
				c6.272,8.725,11.669,18.133,16.064,27.947c8.853,19.733,31.211,29.419,51.115,21.931c5.376-2.027,11.243-1.451,16.128,1.472
				c5.056,3.051,8.384,8.213,9.152,14.144c1.216,9.323,1.813,18.752,1.813,28.032c0,9.28-0.597,18.709-1.813,28.032
				c-0.747,5.952-4.096,11.093-9.152,14.144c-4.907,2.944-10.773,3.477-16.363,1.387c-19.712-7.381-42.048,2.304-50.88,22.037
				c-4.395,9.835-9.813,19.221-16.085,27.968c-12.8,17.835-10.048,41.493,6.421,55.061c4.437,3.627,6.891,8.981,6.784,14.72
				c-0.107,5.931-2.901,11.392-7.68,15.019c-14.891,11.285-31.125,20.672-48.277,27.883c-5.589,2.325-11.755,2.027-16.981-0.832
				c-5.077-2.795-8.405-7.467-9.344-13.184c-3.52-21.141-22.805-35.349-44.715-33.045c-5.227,0.555-10.539,0.832-15.915,0.832
				c-5.888,0-10.667,4.779-10.667,10.667s4.779,10.667,10.667,10.667c6.144,0,12.203-0.32,18.155-0.96
				c10.752-0.981,19.797,5.504,21.44,15.339c2.005,12.096,9.323,22.443,20.075,28.373c6.101,3.349,12.821,5.056,19.584,5.056
				c5.376,0,10.816-1.067,15.957-3.221c18.773-7.915,36.587-18.197,52.885-30.549c10.005-7.595,15.872-19.115,16.128-31.595
				c0.235-12.288-5.077-23.808-14.571-31.637c-7.68-6.315-8.832-17.557-2.667-26.133c7.125-9.899,13.269-20.565,18.24-31.701
				c4.245-9.472,14.848-14.165,24.149-10.667c11.499,4.309,24.107,3.136,34.624-3.2c10.667-6.421,17.707-17.237,19.307-29.675
				c1.323-10.219,1.984-20.565,1.984-30.763C511.998,218.961,511.336,208.614,510.014,198.396z"/>
			<path d="M266.707,303.825c-5.888,0-10.667,4.779-10.667,10.667s4.779,10.667,10.667,10.667c52.928,0,96.021-43.072,96.021-96
				s-43.072-96-96-96c-36.075,0-68.757,20.203-85.291,52.715c-2.667,5.248-0.576,11.669,4.672,14.336
				c5.248,2.624,11.669,0.597,14.336-4.672c12.864-25.323,38.251-41.045,66.261-41.045c41.173,0,74.667,33.493,74.667,74.667
				S307.88,303.825,266.707,303.825z"/>
			<path d="M117.374,213.372c-56.896,0-117.333,18.688-117.333,53.333v192c0,34.645,60.437,53.333,117.333,53.333
				s117.333-18.688,117.333-53.333v-192C234.707,232.06,174.27,213.372,117.374,213.372z M213.374,458.705c0,13.056-37.397,32-96,32
				s-96-18.944-96-32v-32.448c22.635,14.272,59.989,21.781,96,21.781s73.365-7.509,96-21.781V458.705z M213.374,394.705
				c0,13.056-37.397,32-96,32s-96-18.944-96-32v-32.448c22.635,14.272,59.989,21.781,96,21.781s73.365-7.509,96-21.781V394.705z
				 M213.374,330.705c0,13.056-37.397,32-96,32s-96-18.944-96-32v-32.448c22.635,14.272,59.989,21.781,96,21.781
				s73.365-7.509,96-21.781V330.705z M117.374,298.705c-58.603,0-96-18.944-96-32c0-13.056,37.397-32,96-32s96,18.944,96,32
				C213.374,279.761,175.976,298.705,117.374,298.705z"/>
		</g>
	</g>
</g>
<g>
</g>
<g>
</g>
<g>
</g>
<g>
</g>
<g>
</g>
<g>
</g>
<g>
</g>
<g>
</g>
<g>
</g>
<g>
</g>
<g>
</g>
<g>
</g>
<g>
</g>
<g>
</g>
<g>
</g>
</svg>
