<?xml version="1.0" encoding="iso-8859-1"?>
<!-- Generator: Adobe Illustrator 19.0.0, SVG Export Plug-In . SVG Version: 6.00 Build 0)  -->
<svg version="1.1" id="Capa_1" xmlns="http://www.w3.org/2000/svg" xmlns:xlink="http://www.w3.org/1999/xlink" x="0px" y="0px"
	 viewBox="0 0 512 512" style="enable-background:new 0 0 512 512;" xml:space="preserve">
<g>
	<g>
		<g>
			<path d="M416,149.333c29.419,0,53.333-23.936,53.333-53.333S445.419,42.667,416,42.667c-29.419,0-53.333,23.936-53.333,53.333
				S386.581,149.333,416,149.333z M416,64c17.643,0,32,14.357,32,32c0,17.643-14.357,32-32,32c-17.643,0-32-14.357-32-32
				C384,78.357,398.357,64,416,64z"/>
			<path d="M406.805,293.419c1.92,3.243,5.419,5.248,9.195,5.248s7.275-2.005,9.195-5.248C434.091,278.336,512,144.619,512,96
				c0-52.928-43.072-96-96-96c-52.928,0-96,43.072-96,96C320,144.619,397.909,278.336,406.805,293.419z M416,21.333
				c41.173,0,74.667,33.493,74.667,74.667c0,32.171-47.616,122.923-74.667,170.645C388.949,218.923,341.333,128.171,341.333,96
				C341.333,54.827,374.827,21.333,416,21.333z"/>
			<path d="M416,341.333c-2.389,0-4.459,0.939-6.229,2.24c0.043-2.731-0.96-5.461-3.008-7.573
				c-4.053-4.245-10.816-4.331-15.083-0.277C361.344,365.056,291.328,384,213.333,384c-113.152,0-192-39.36-192-74.667v-64.384
				c34.197,32.043,106.347,53.717,192,53.717c53.739,0,104.917-8.725,144.149-24.555c5.44-2.219,8.107-8.427,5.888-13.888
				c-2.219-5.483-8.469-8.107-13.888-5.909c-36.736,14.848-85.077,23.019-136.149,23.019c-113.152,0-192-39.36-192-74.667v-64.384
				C55.531,170.325,127.68,192,213.333,192c33.771,0,67.435-3.541,97.344-10.24c5.76-1.28,9.365-6.976,8.085-12.736
				c-1.323-5.717-6.955-9.344-12.757-8.064c-28.395,6.357-60.437,9.707-92.672,9.707c-113.152,0-192-39.36-192-74.667
				c0-35.307,78.848-74.667,192-74.667c33.664,0,66.987,3.648,96.32,10.581c5.803,1.323,11.477-2.219,12.821-7.936
				c1.365-5.739-2.176-11.499-7.936-12.843C283.627,3.861,248.619,0,213.333,0C93.717,0,0,42.176,0,96v320
				c0,53.824,93.717,96,213.333,96s213.333-42.176,213.333-96v-64C426.667,346.112,421.888,341.333,416,341.333z M405.333,416
				c0,35.307-78.848,74.667-192,74.667s-192-39.36-192-74.667v-64.384c34.197,32.043,106.347,53.717,192,53.717
				c82.389,0,157.397-20.928,192-53.312V416z"/>
		</g>
	</g>
</g>
<g>
</g>
<g>
</g>
<g>
</g>
<g>
</g>
<g>
</g>
<g>
</g>
<g>
</g>
<g>
</g>
<g>
</g>
<g>
</g>
<g>
</g>
<g>
</g>
<g>
</g>
<g>
</g>
<g>
</g>
</svg>
