<?xml version="1.0" encoding="iso-8859-1"?>
<!-- Generator: Adobe Illustrator 19.0.0, SVG Export Plug-In . SVG Version: 6.00 Build 0)  -->
<svg version="1.1" id="Capa_1" xmlns="http://www.w3.org/2000/svg" xmlns:xlink="http://www.w3.org/1999/xlink" x="0px" y="0px"
	 viewBox="0 0 512 512" style="enable-background:new 0 0 512 512;" xml:space="preserve">
<g>
	<g>
		<g>
			<path d="M283.349,485.184c-22.741,3.648-46.293,5.483-70.016,5.483c-113.152,0-192-39.36-192-74.667v-64.384
				c34.197,32.043,106.368,53.717,192,53.717c11.179,0,22.059-0.448,32.768-1.195c5.888-0.384,10.325-5.483,9.92-11.371
				c-0.384-5.888-5.547-10.347-11.371-9.92c-10.197,0.704-20.629,1.152-31.317,1.152c-113.152,0-192-39.36-192-74.667v-64.384
				c34.197,32.043,106.368,53.717,192,53.717c30.4,0,60.011-2.816,88.021-8.341c5.803-1.152,9.557-6.741,8.405-12.523
				c-1.131-5.803-6.805-9.621-12.523-8.405c-26.667,5.269-54.891,7.936-83.904,7.936c-113.152,0-192-39.36-192-74.667v-64.384
				C55.531,170.325,127.701,192,213.333,192s157.803-21.675,192-53.717v64.405c0,14.464-12.715,26.667-23.381,34.325
				c-4.779,3.456-5.867,10.112-2.432,14.891c2.091,2.901,5.355,4.437,8.661,4.437c2.176,0,4.352-0.661,6.229-2.005
				c4.139-2.965,7.552-6.123,10.923-9.28v1.984c0,5.888,4.779,10.667,10.667,10.667c5.888,0,10.667-4.779,10.667-10.667V96
				c0-53.824-93.717-96-213.333-96S0,42.176,0,96v320c0,53.824,93.717,96,213.333,96c24.832,0,49.515-1.941,73.387-5.739
				c5.803-0.939,9.771-6.4,8.853-12.224C294.635,488.235,289.216,484.267,283.349,485.184z M213.333,21.333
				c113.152,0,192,39.36,192,74.667c0,35.307-78.827,74.667-192,74.667s-192-39.36-192-74.667
				C21.333,60.693,100.181,21.333,213.333,21.333z"/>
			<path d="M394.667,277.333c-64.683,0-117.333,52.651-117.333,117.333S329.984,512,394.667,512S512,459.349,512,394.667
				S459.328,277.333,394.667,277.333z M394.667,490.667c-52.928,0-96-43.072-96-96s43.072-96,96-96s96,43.072,96,96
				S447.573,490.667,394.667,490.667z"/>
			<path d="M420.736,342.443c-5.248-2.603-11.669-0.491-14.315,4.779l-42.667,85.333c-2.624,5.269-0.491,11.669,4.779,14.315
				c1.579,0.768,3.179,1.131,4.8,1.131c3.904,0,7.659-2.176,9.536-5.909l42.667-85.333
				C428.16,351.488,426.005,345.088,420.736,342.443z"/>
			<path d="M426.667,405.333c-11.776,0-21.333,9.557-21.333,21.333S414.891,448,426.667,448S448,438.443,448,426.667
				S438.443,405.333,426.667,405.333z"/>
			<path d="M384,362.667c0-11.776-9.557-21.333-21.333-21.333s-21.333,9.557-21.333,21.333S350.891,384,362.667,384
				S384,374.443,384,362.667z"/>
		</g>
	</g>
</g>
<g>
</g>
<g>
</g>
<g>
</g>
<g>
</g>
<g>
</g>
<g>
</g>
<g>
</g>
<g>
</g>
<g>
</g>
<g>
</g>
<g>
</g>
<g>
</g>
<g>
</g>
<g>
</g>
<g>
</g>
</svg>
