<?xml version="1.0" encoding="iso-8859-1"?>
<!-- Generator: Adobe Illustrator 19.0.0, SVG Export Plug-In . SVG Version: 6.00 Build 0)  -->
<svg version="1.1" id="Capa_1" xmlns="http://www.w3.org/2000/svg" xmlns:xlink="http://www.w3.org/1999/xlink" x="0px" y="0px"
	 viewBox="0 0 512 512" style="enable-background:new 0 0 512 512;" xml:space="preserve">
<g>
	<g>
		<g>
			<path d="M442.24,298.645c-38.464,0-69.76,31.296-69.76,69.76c0,3.136,0.256,6.315,0.725,9.6l-71.445,71.467
				c-1.984,2.005-3.115,4.715-3.115,7.552v44.309c0,5.888,4.779,10.667,10.667,10.667H353.6c2.837,0,5.547-1.131,7.552-3.136
				l71.488-71.467c42.987,6.699,79.36-27.371,79.36-68.992C512,329.941,480.704,298.645,442.24,298.645z M442.24,416.811
				c-3.413,0-6.933-0.448-10.773-1.323c-3.605-0.875-7.36,0.256-9.941,2.859l-72.341,72.32h-29.227v-29.205l72.32-72.32
				c2.603-2.603,3.691-6.357,2.859-9.941c-0.896-3.904-1.344-7.424-1.344-10.773c0-26.688,21.739-48.427,48.427-48.427
				c26.688,0,48.448,21.717,48.448,48.405S468.928,416.811,442.24,416.811z"/>
			<path d="M458.645,341.333c-5.888,0-10.667,4.779-10.667,10.667c0,5.888,4.779,10.667,10.667,10.667
				c5.888,0,10.667-4.779,10.667-10.667C469.312,346.112,464.533,341.333,458.645,341.333z"/>
			<path d="M265.408,487.637c-17.365,2.005-34.88,3.029-52.075,3.029c-113.152,0-192-39.36-192-74.667v-64.384
				c34.197,32.043,106.347,53.717,192,53.717c41.067,0,80.896-5.077,115.179-14.699c5.696-1.579,8.981-7.467,7.403-13.141
				c-1.579-5.675-7.488-8.96-13.141-7.403C290.304,379.179,252.48,384,213.333,384c-113.152,0-192-39.36-192-74.667v-64.384
				c34.197,32.043,106.347,53.717,192,53.717s157.803-21.675,192-53.717v25.579c0,5.888,4.779,10.667,10.667,10.667
				c5.888,0,10.667-4.779,10.667-10.667V96c0-53.824-93.717-96-213.333-96S0,42.176,0,96v320c0,53.824,93.717,96,213.333,96
				c18.005,0,36.352-1.067,54.549-3.157c5.824-0.704,10.048-5.995,9.365-11.84S271.147,487.061,265.408,487.637z M213.333,21.333
				c113.152,0,192,39.36,192,74.667c0,35.307-78.848,74.667-192,74.667s-192-39.36-192-74.667
				C21.333,60.693,100.181,21.333,213.333,21.333z M21.333,138.283C55.531,170.325,127.68,192,213.333,192
				s157.803-21.675,192-53.717v64.384c0,35.307-78.848,74.667-192,74.667s-192-39.36-192-74.667V138.283z"/>
		</g>
	</g>
</g>
<g>
</g>
<g>
</g>
<g>
</g>
<g>
</g>
<g>
</g>
<g>
</g>
<g>
</g>
<g>
</g>
<g>
</g>
<g>
</g>
<g>
</g>
<g>
</g>
<g>
</g>
<g>
</g>
<g>
</g>
</svg>
