<?xml version="1.0" encoding="iso-8859-1"?>
<!-- Generator: Adobe Illustrator 19.0.0, SVG Export Plug-In . SVG Version: 6.00 Build 0)  -->
<svg version="1.1" id="Capa_1" xmlns="http://www.w3.org/2000/svg" xmlns:xlink="http://www.w3.org/1999/xlink" x="0px" y="0px"
	 viewBox="0 0 512.009 512.009" style="enable-background:new 0 0 512.009 512.009;" xml:space="preserve">
<g>
	<g>
		<g>
			<path d="M103.54,322.794c-4.16-4.16-10.923-4.16-15.083,0L3.124,408.127c-3.051,3.051-3.968,7.637-2.304,11.627
				c1.643,3.989,5.547,6.592,9.856,6.592h10.667v74.667c0,5.888,4.779,10.667,10.667,10.667h42.667
				c5.888,0,10.667-4.779,10.667-10.667v-53.333h21.333v53.333c0,5.888,4.779,10.667,10.667,10.667h42.667
				c5.888,0,10.667-4.779,10.645-10.667v-74.667h10.667c4.309,0,8.213-2.603,9.856-6.592c1.664-3.989,0.747-8.576-2.304-11.627
				L103.54,322.794z M149.343,415.679v74.667H128.01v-53.333c0-5.888-4.779-10.667-10.667-10.667H74.676
				c-5.888,0-10.667,4.779-10.667,10.667v53.333H42.676v-74.667c0-4.565-2.88-8.469-6.933-9.984l60.267-60.267l60.267,60.267
				C152.223,407.21,149.343,411.114,149.343,415.679z"/>
			<path d="M416.009,277.098c-5.888,0-10.667,4.779-10.667,10.667v106.667c0,17.643-14.357,32-32,32h-80.917l3.115-3.115
				c4.16-4.16,4.16-10.923,0-15.083c-4.16-4.16-10.923-4.16-15.083,0l-21.269,21.269c-0.213,0.213-0.427,0.448-0.64,0.683
				c-1.387,1.643-2.219,3.605-2.453,5.632c-0.064,0.619-0.085,1.259-0.043,1.877c0.149,2.475,1.173,4.928,3.051,6.848
				c0.021,0.021,0.021,0.021,0.021,0.021l21.333,21.333c2.091,2.069,4.821,3.115,7.552,3.115c2.731,0,5.461-0.939,7.531-3.029
				s3.115-4.821,3.115-7.552s-1.024-5.461-3.115-7.552l-3.115-3.115h80.917c29.397,0,53.333-23.936,53.333-53.333V287.765
				C426.676,281.877,421.897,277.098,416.009,277.098z"/>
			<path d="M512.01,42.346c0-56.021-192-56.021-192,0c0,0.384,0.213,0.704,0.235,1.088c-0.043,0.405-0.235,0.768-0.235,1.195
				v123.435c0,30.891,49.771,44.949,96,44.949c46.229,0,96-14.059,96-44.949V44.629c0-0.427-0.192-0.789-0.235-1.195
				C511.796,43.05,512.01,42.73,512.01,42.346z M490.676,168.063c0,9.621-29.077,23.616-74.667,23.616s-74.667-13.995-74.667-23.616
				V154.41c18.517,10.432,46.571,15.936,74.667,15.936c28.096,0,56.149-5.504,74.667-15.936V168.063z M490.676,125.397
				c0,8.32-28.352,23.616-74.667,23.616c-46.315,0-74.667-15.296-74.667-23.616v-12.139c18.517,10.432,46.571,15.936,74.667,15.936
				c28.096,0,56.149-5.504,74.667-15.936V125.397z M490.676,84.245c0,8.32-28.352,23.616-74.667,23.616
				c-46.315,0-74.667-15.296-74.667-23.616V69.887c18.517,9.899,46.571,15.125,74.667,15.125c28.096,0,56.149-5.227,74.667-15.125
				V84.245z M416.009,63.679c-48.491,0-74.667-15.147-74.667-21.333c0-6.187,26.176-21.333,74.667-21.333
				c48.491,0,74.667,15.147,74.667,21.333C490.676,48.533,464.5,63.679,416.009,63.679z"/>
			<path d="M252.895,109.461l-21.333-21.333c-4.16-4.16-10.923-4.16-15.083,0c-2.069,2.091-3.115,4.821-3.115,7.552
				c0,2.731,1.024,5.461,3.115,7.552l3.115,3.115h-80.917c-29.397,0-53.333,23.936-53.333,53.333v106.667
				c0,5.888,4.779,10.667,10.667,10.667s10.667-4.779,10.667-10.752V159.594c0-17.643,14.357-32,32-32h80.917l-3.115,3.115
				c-4.16,4.16-4.16,10.923,0,15.083c4.16,4.16,10.923,4.16,15.083,0l21.269-21.269c0.213-0.213,0.427-0.448,0.64-0.683
				c1.387-1.643,2.219-3.605,2.453-5.632c0.064-0.619,0.085-1.259,0.043-1.877C255.817,113.855,254.794,111.402,252.895,109.461z"/>
		</g>
	</g>
</g>
<g>
</g>
<g>
</g>
<g>
</g>
<g>
</g>
<g>
</g>
<g>
</g>
<g>
</g>
<g>
</g>
<g>
</g>
<g>
</g>
<g>
</g>
<g>
</g>
<g>
</g>
<g>
</g>
<g>
</g>
</svg>
