<?xml version="1.0" encoding="iso-8859-1"?>
<!-- Generator: Adobe Illustrator 19.0.0, SVG Export Plug-In . SVG Version: 6.00 Build 0)  -->
<svg version="1.1" id="Capa_1" xmlns="http://www.w3.org/2000/svg" xmlns:xlink="http://www.w3.org/1999/xlink" x="0px" y="0px"
	 viewBox="0 0 512 512" style="enable-background:new 0 0 512 512;" xml:space="preserve">
<g>
	<g>
		<g>
			<path d="M334.293,473.173c-34.944,11.456-76.736,17.493-120.96,17.493c-113.152,0-192-39.36-192-74.667v-64.384
				c34.197,32.043,106.368,53.717,192,53.717c26.475,0,52.48-2.133,77.291-6.336c5.781-0.981,9.707-6.507,8.725-12.309
				c-1.003-5.781-6.549-9.643-12.309-8.725c-23.595,3.989-48.427,6.037-73.707,6.037c-113.152,0-192-39.36-192-74.667v-64.384
				c34.197,32.043,106.368,53.717,192,53.717s157.781-21.675,191.979-53.717v75.797h21.355V96c0-53.824-93.717-96-213.333-96
				S0,42.176,0,96v320c0,53.824,93.717,96,213.333,96c46.443,0,90.56-6.421,127.595-18.539c5.589-1.856,8.661-7.872,6.827-13.461
				C345.899,474.389,339.883,471.381,334.293,473.173z M213.333,21.333c113.152,0,192,39.36,192,74.667
				c0,35.307-78.827,74.667-192,74.667s-192-39.36-192-74.667C21.333,60.693,100.181,21.333,213.333,21.333z M21.333,138.283
				C55.531,170.325,127.701,192,213.333,192c85.653,0,157.803-21.675,192-53.717v64.469c-0.107,35.264-78.912,74.581-192,74.581
				c-113.152,0-192-39.36-192-74.667V138.283z"/>
			<path d="M467.52,342.059c-15.552-2.517-31.467,1.813-43.413,11.968c-3.051,2.603-5.781,5.504-8.107,8.64
				c-2.347-3.136-5.077-6.037-8.128-8.64c-11.925-10.155-27.819-14.507-43.413-11.968C339.115,346.197,320,369.792,320,398.336
				c0,14.251,5.525,27.648,15.595,37.717l72.853,72.832c2.069,2.069,4.8,3.115,7.552,3.115c2.731,0,5.461-1.045,7.552-3.136
				l72.832-72.832C506.453,425.941,512,412.565,512,396.949C512,369.792,492.885,346.176,467.52,342.059z M481.28,420.971
				L416,486.272l-65.323-65.301c-6.059-6.037-9.344-14.059-9.344-24c0-16.832,11.413-31.381,26.539-33.856
				c1.856-0.299,3.691-0.448,5.504-0.448c7.595,0,14.784,2.603,20.672,7.616c7.168,6.123,11.285,15.019,11.285,24.405
				c0,5.888,4.779,10.667,10.667,10.667c5.888,0,10.667-4.779,10.667-10.667c0-9.408,4.096-18.304,11.285-24.405
				c7.275-6.187,16.512-8.683,26.176-7.168c15.104,2.475,26.539,17.003,26.539,35.221
				C490.667,406.763,487.253,415.019,481.28,420.971z"/>
		</g>
	</g>
</g>
<g>
</g>
<g>
</g>
<g>
</g>
<g>
</g>
<g>
</g>
<g>
</g>
<g>
</g>
<g>
</g>
<g>
</g>
<g>
</g>
<g>
</g>
<g>
</g>
<g>
</g>
<g>
</g>
<g>
</g>
</svg>
