<?xml version="1.0" encoding="iso-8859-1"?>
<!-- Generator: Adobe Illustrator 19.0.0, SVG Export Plug-In . SVG Version: 6.00 Build 0)  -->
<svg version="1.1" id="Capa_1" xmlns="http://www.w3.org/2000/svg" xmlns:xlink="http://www.w3.org/1999/xlink" x="0px" y="0px"
	 viewBox="0 0 512.014 512.014" style="enable-background:new 0 0 512.014 512.014;" xml:space="preserve">
<g>
	<g>
		<g>
			<path d="M224,247.602c5.888,0,10.667-4.779,10.667-10.667v-34.752c22.635,14.272,59.989,21.781,96,21.781s73.365-7.509,96-21.781
				v32.448c0,9.173-21.888,25.152-68.885,30.357c-5.867,0.64-10.069,5.931-9.429,11.776c0.619,5.461,5.248,9.493,10.603,9.493
				c0.384,0,0.789-0.021,1.195-0.064c28.373-3.136,51.157-10.411,66.517-20.288v22.059c0,5.888,4.779,10.667,10.667,10.667
				c5.888,0,10.667-4.779,10.667-10.667V106.631c0-34.645-60.437-53.333-117.333-53.333s-117.333,18.688-117.333,53.333v130.304
				C213.333,242.823,218.112,247.602,224,247.602z M330.667,74.631c58.603,0,96,18.944,96,32c0,13.056-37.397,32-96,32
				s-96-18.944-96-32C234.667,93.575,272.064,74.631,330.667,74.631z M234.667,138.183c22.635,14.272,59.989,21.781,96,21.781
				s73.365-7.509,96-21.781v32.448c0,13.056-37.397,32-96,32s-96-18.944-96-32V138.183z"/>
			<path d="M510.891,358.62c-14.827-29.632-47.616-44.736-79.744-36.672l-69.12,17.28c-3.072-26.645-18.859-42.347-50.389-50.24
				l-185.024-41.109c0.576-4.053,1.024-7.936,1.344-11.563c0.277-3.243-0.917-6.443-3.285-8.661
				c-18.283-17.323-91.392-22.933-113.365-24.235c-3.008-0.128-5.824,0.853-7.957,2.88C1.216,208.306,0,211.122,0,214.066v192
				c0,5.888,4.779,10.667,10.667,10.667h64c4.608,0,8.704-2.987,10.133-7.36c0.277-0.853,1.749-5.355,3.925-12.288l152.832,50.944
				c17.941,6.763,30.315,10.688,44.224,10.688c21.632,0,46.976-9.451,102.656-32.277l117.333-53.333
				c2.624-1.195,4.672-3.413,5.632-6.144C512.363,364.21,512.192,361.223,510.891,358.62z M66.88,395.399H21.312V225.5
				c34.283,2.709,71.296,8.597,84.736,15.125C100.395,287.346,74.816,370.354,66.88,395.399z M379.947,406.855
				c-89.685,36.757-92.8,35.584-131.243,21.077L94.997,376.69c8.768-29.035,20.992-72.085,27.989-107.755l183.744,40.832
				c23.637,5.909,33.131,15.211,34.432,34.688l-20.48,5.12c-7.573,1.899-15.659,2.112-23.381,0.555l-92.544-18.517
				c-5.867-1.216-11.392,2.581-12.544,8.363c-1.152,5.781,2.581,11.392,8.363,12.544l92.565,18.517
				c4.8,0.96,9.728,1.429,14.635,1.429c6.101,0,12.224-0.747,18.091-2.197l28.715-7.168c0.043,0,0.064-0.043,0.107-0.043
				l81.621-20.416c18.645-4.629,37.611,1.877,49.387,16.128L379.947,406.855z"/>
		</g>
	</g>
</g>
<g>
</g>
<g>
</g>
<g>
</g>
<g>
</g>
<g>
</g>
<g>
</g>
<g>
</g>
<g>
</g>
<g>
</g>
<g>
</g>
<g>
</g>
<g>
</g>
<g>
</g>
<g>
</g>
<g>
</g>
</svg>
