<?xml version="1.0" encoding="iso-8859-1"?>
<!-- Generator: Adobe Illustrator 19.0.0, SVG Export Plug-In . SVG Version: 6.00 Build 0)  -->
<svg version="1.1" id="Capa_1" xmlns="http://www.w3.org/2000/svg" xmlns:xlink="http://www.w3.org/1999/xlink" x="0px" y="0px"
	 viewBox="0 0 512 512" style="enable-background:new 0 0 512 512;" xml:space="preserve">
<g>
	<g>
		<g>
			<path d="M309.333,362.667h-10.667V352c0-5.888-4.779-10.667-10.667-10.667s-10.667,4.779-10.667,10.667v10.667h-10.667
				c-5.888,0-10.667,4.779-10.667,10.667c0,5.888,4.779,10.667,10.667,10.667h10.667v10.667c0,5.888,4.779,10.667,10.667,10.667
				s10.667-4.779,10.667-10.667V384h10.667c5.888,0,10.667-4.779,10.667-10.667C320,367.445,315.221,362.667,309.333,362.667z"/>
			<path d="M416,362.667c5.888,0,10.667-4.779,10.667-10.667c0-5.888-4.779-10.667-10.667-10.667
				c-5.888,0-10.667,4.779-10.667,10.667C405.333,357.888,410.091,362.667,416,362.667z"/>
			<path d="M171.456,488.747C85.888,481.003,21.333,449.728,21.333,416v-63.872c27.179,25.472,78.656,44.352,144.683,50.859
				c0.341,0.021,0.704,0.043,1.045,0.043c5.419,0,10.069-4.117,10.603-9.621c0.576-5.867-3.712-11.093-9.579-11.669
				c-83.648-8.256-146.752-39.381-146.752-72.405v-64.384c34.197,32.043,106.368,53.717,192,53.717
				c8.32,0,16.469-0.256,24.512-0.661c5.888-0.277,10.432-5.291,10.133-11.179c-0.299-5.888-5.461-10.987-11.179-10.112
				c-7.68,0.363-15.509,0.619-23.467,0.619c-113.152,0-192-39.36-192-74.667v-64.384C55.531,170.325,127.701,192,213.333,192
				s157.803-21.675,192-53.717v64.384c0,19.413-23.168,39.595-61.973,53.995c-5.525,2.048-8.341,8.192-6.293,13.717
				c1.6,4.288,5.696,6.955,10.027,6.955c1.237,0,2.496-0.213,3.712-0.661c23.488-8.704,41.749-19.328,54.549-31.253v22.869
				c0,5.888,4.779,10.667,10.667,10.667c5.888,0,10.667-4.757,10.667-10.667V96c-0.021-53.824-93.739-96-213.355-96S0,42.176,0,96
				v320c0,46.315,69.717,84.949,169.557,93.995c0.32,0.021,0.64,0.043,0.96,0.043c5.461,0,10.112-4.16,10.603-9.707
				C181.675,494.485,177.344,489.28,171.456,488.747z M213.333,21.333c113.152,0,192,39.36,192,74.667
				c0,35.307-78.827,74.667-192,74.667s-192-39.36-192-74.667C21.333,60.693,100.181,21.333,213.333,21.333z"/>
			<path d="M416,384c-5.888,0-10.667,4.779-10.667,10.667s4.779,10.667,10.667,10.667c5.888,0,10.667-4.779,10.667-10.667
				S421.888,384,416,384z"/>
			<path d="M394.667,362.667c-5.888,0-10.667,4.779-10.667,10.667c0,5.888,4.779,10.667,10.667,10.667s10.667-4.779,10.667-10.667
				C405.333,367.445,400.555,362.667,394.667,362.667z"/>
			<path d="M437.333,362.667c-5.888,0-10.667,4.779-10.667,10.667c0,5.888,4.779,10.667,10.667,10.667
				c5.888,0,10.667-4.779,10.667-10.667C448,367.445,443.221,362.667,437.333,362.667z"/>
			<path d="M394.667,298.667h-85.333C219.819,298.667,192,400.32,192,437.333C192,486.869,206.357,512,234.667,512
				c44.245,0,66.005-41.515,72.192-55.787C314.219,453.483,331.541,448,352,448s37.76,5.483,45.141,8.213
				C403.285,470.485,425.067,512,469.333,512C497.643,512,512,486.869,512,437.333C512,400.32,484.16,298.667,394.667,298.667z
				 M469.333,490.667c-37.099,0-53.781-45.76-53.931-46.208c-0.981-2.731-3.008-4.949-5.632-6.165
				c-1.045-0.469-25.835-11.627-57.771-11.627c-31.979,0-56.747,11.157-57.771,11.627c-2.624,1.216-4.672,3.435-5.632,6.165
				c-0.149,0.448-16.832,46.208-53.931,46.208c-5.291,0-21.333,0-21.333-53.333c0-18.219,17.707-117.333,96-117.333h85.333
				c78.293,0,96,99.115,96,117.333C490.667,490.667,474.603,490.667,469.333,490.667z"/>
		</g>
	</g>
</g>
<g>
</g>
<g>
</g>
<g>
</g>
<g>
</g>
<g>
</g>
<g>
</g>
<g>
</g>
<g>
</g>
<g>
</g>
<g>
</g>
<g>
</g>
<g>
</g>
<g>
</g>
<g>
</g>
<g>
</g>
</svg>
