<?xml version="1.0" encoding="iso-8859-1"?>
<!-- Generator: Adobe Illustrator 19.0.0, SVG Export Plug-In . SVG Version: 6.00 Build 0)  -->
<svg version="1.1" id="Capa_1" xmlns="http://www.w3.org/2000/svg" xmlns:xlink="http://www.w3.org/1999/xlink" x="0px" y="0px"
	 viewBox="0 0 512 512" style="enable-background:new 0 0 512 512;" xml:space="preserve">
<g>
	<g>
		<g>
			<path d="M426.667,352c0-5.888-4.779-10.667-10.667-10.667c-5.888,0-10.667,4.779-10.667,10.667v80.939l-24.469-24.469
				c-4.16-4.16-10.923-4.16-15.083,0c-4.16,4.16-4.16,10.923,0,15.083l42.667,42.667c1.003,1.003,2.176,1.749,3.413,2.261
				c0.021,0,0.043,0.043,0.064,0.043h0.021c1.301,0.533,2.667,0.811,4.053,0.811c1.365,0,2.752-0.277,4.032-0.789
				c1.28-0.533,2.475-1.301,3.499-2.325l42.667-42.667c4.16-4.16,4.16-10.923,0-15.083s-10.923-4.16-15.083,0l-24.448,24.448V352z"
				/>
			<path d="M286.229,484.757c-23.424,3.904-47.957,5.909-72.896,5.909c-113.152,0-192-39.36-192-74.667v-64.384
				c34.197,32.043,106.347,53.717,192,53.717c64.619,0,124.8-12.523,165.099-34.368c5.184-2.816,7.104-9.28,4.288-14.464
				c-2.795-5.163-9.28-7.083-14.464-4.288C330.987,372.416,274.517,384,213.333,384c-113.152,0-192-39.36-192-74.667v-64.384
				c34.197,32.043,106.347,53.717,192,53.717s157.803-21.675,192-53.717v64.384c0,5.888,4.779,10.667,10.667,10.667
				c5.888,0,10.667-4.779,10.667-10.667V96c0-53.824-93.717-96-213.333-96S0,42.176,0,96v320c0,53.824,93.717,96,213.333,96
				c26.133,0,51.84-2.091,76.416-6.208c5.824-0.981,9.749-6.485,8.768-12.288C297.536,487.701,291.947,483.733,286.229,484.757z
				 M213.333,21.333c113.152,0,192,39.36,192,74.667c0,35.307-78.848,74.667-192,74.667s-192-39.36-192-74.667
				C21.333,60.693,100.181,21.333,213.333,21.333z M21.333,138.283C55.531,170.325,127.68,192,213.333,192
				s157.803-21.675,192-53.717v64.384c0,35.307-78.848,74.667-192,74.667s-192-39.36-192-74.667V138.283z"/>
			<path d="M501.333,448c-5.888,0-10.667,4.779-10.667,10.667v32H341.333v-32c0-5.888-4.779-10.667-10.667-10.667
				S320,452.779,320,458.667v42.667c0,5.888,4.779,10.667,10.667,10.667h170.667c5.888,0,10.667-4.779,10.667-10.667v-42.667
				C512,452.779,507.221,448,501.333,448z"/>
		</g>
	</g>
</g>
<g>
</g>
<g>
</g>
<g>
</g>
<g>
</g>
<g>
</g>
<g>
</g>
<g>
</g>
<g>
</g>
<g>
</g>
<g>
</g>
<g>
</g>
<g>
</g>
<g>
</g>
<g>
</g>
<g>
</g>
</svg>
