<?xml version="1.0" encoding="iso-8859-1"?>
<!-- Generator: Adobe Illustrator 19.0.0, SVG Export Plug-In . SVG Version: 6.00 Build 0)  -->
<svg version="1.1" id="Capa_1" xmlns="http://www.w3.org/2000/svg" xmlns:xlink="http://www.w3.org/1999/xlink" x="0px" y="0px"
	 viewBox="0 0 511.349 511.349" style="enable-background:new 0 0 511.349 511.349;" xml:space="preserve">
<g>
	<g>
		<g>
			<path d="M113.872,237.152c-4.16-4.16-10.923-4.16-15.083,0c-4.16,4.16-4.16,10.923,0,15.083l42.667,42.667
				c2.091,2.069,4.821,3.115,7.552,3.115c2.731,0,5.461-1.045,7.531-3.115c4.16-4.16,4.16-10.923,0-15.083L113.872,237.152z"/>
			<path d="M501.008,42.016c0-56.021-192-56.021-192,0c0,0.384,0.213,0.704,0.235,1.088c-0.043,0.405-0.235,0.768-0.235,1.195
				v123.435c0,30.891,49.771,44.949,96,44.949c46.229,0,96-14.059,96-44.949V44.299c0-0.427-0.192-0.789-0.235-1.195
				C500.795,42.72,501.008,42.4,501.008,42.016z M479.675,167.733c0,9.621-29.077,23.616-74.667,23.616
				c-45.589,0-74.667-13.995-74.667-23.616V154.08c18.517,10.432,46.571,15.936,74.667,15.936c28.096,0,56.149-5.504,74.667-15.936
				V167.733z M479.675,125.067c0,8.32-28.352,23.616-74.667,23.616c-46.315,0-74.667-15.296-74.667-23.616v-12.139
				c18.517,10.432,46.571,15.936,74.667,15.936c28.096,0,56.149-5.504,74.667-15.936V125.067z M479.675,83.915
				c0,8.32-28.352,23.616-74.667,23.616c-46.315,0-74.667-15.296-74.667-23.616V69.557c18.517,9.899,46.571,15.125,74.667,15.125
				c28.096,0,56.149-5.227,74.667-15.125V83.915z M405.008,63.349c-48.491,0-74.667-15.147-74.667-21.333
				c0-6.187,26.176-21.333,74.667-21.333c48.491,0,74.667,15.147,74.667,21.333C479.675,48.203,453.499,63.349,405.008,63.349z"/>
			<path d="M397.456,237.152l-42.667,42.667c-4.16,4.16-4.16,10.923,0,15.083c2.091,2.069,4.821,3.115,7.552,3.115
				s5.461-1.045,7.531-3.115l42.667-42.667c4.16-4.16,4.16-10.923,0-15.083C408.379,232.992,401.616,232.992,397.456,237.152z"/>
			<path d="M159.675,340.683c0,0.384,0.213,0.704,0.235,1.088c-0.043,0.405-0.235,0.768-0.235,1.195V466.4
				c0,30.891,49.771,44.949,96,44.949s96-14.059,96-44.949V342.965c0-0.427-0.192-0.789-0.235-1.195
				c0.021-0.384,0.235-0.704,0.235-1.088C351.675,284.661,159.675,284.661,159.675,340.683z M330.341,466.4
				c0,9.621-29.077,23.616-74.667,23.616s-74.667-13.995-74.667-23.616v-13.653c18.517,10.432,46.571,15.936,74.667,15.936
				s56.149-5.504,74.667-15.936V466.4z M330.341,423.733c0,8.32-28.352,23.616-74.667,23.616s-74.667-15.296-74.667-23.616v-12.139
				c18.517,10.432,46.571,15.936,74.667,15.936s56.149-5.504,74.667-15.936V423.733z M330.341,382.581
				c0,8.32-28.352,23.616-74.667,23.616s-74.667-15.296-74.667-23.616v-14.357c18.517,9.899,46.571,15.125,74.667,15.125
				s56.149-5.227,74.667-15.125V382.581z M255.675,362.016c-48.491,0-74.667-15.147-74.667-21.333s26.176-21.333,74.667-21.333
				s74.667,15.147,74.667,21.333S304.165,362.016,255.675,362.016z"/>
			<path d="M202.341,167.733V44.299c0-0.427-0.192-0.789-0.235-1.195c0.021-0.384,0.235-0.704,0.235-1.088
				c0-56.021-192-56.021-192,0c0,0.384,0.213,0.704,0.235,1.088c-0.043,0.405-0.235,0.768-0.235,1.195v123.435
				c0,30.891,49.771,44.949,96,44.949C152.571,212.683,202.341,198.624,202.341,167.733z M106.341,20.683
				c48.491,0,74.667,15.147,74.667,21.333c0,6.187-26.176,21.333-74.667,21.333S31.675,48.203,31.675,42.016
				C31.675,35.829,57.851,20.683,106.341,20.683z M31.675,69.557c18.517,9.899,46.571,15.125,74.667,15.125
				s56.149-5.227,74.667-15.125v14.357c0,8.32-28.352,23.616-74.667,23.616c-46.315,0-74.667-15.296-74.667-23.616V69.557z
				 M31.675,112.928c18.517,10.432,46.571,15.936,74.667,15.936s56.149-5.504,74.667-15.936v12.139
				c0,8.32-28.352,23.616-74.667,23.616c-46.315,0-74.667-15.296-74.667-23.616V112.928z M31.675,167.733V154.08
				c18.517,10.432,46.571,15.936,74.667,15.936s56.149-5.504,74.667-15.936v13.653c0,9.621-29.077,23.616-74.667,23.616
				C60.752,191.349,31.675,177.355,31.675,167.733z"/>
		</g>
	</g>
</g>
<g>
</g>
<g>
</g>
<g>
</g>
<g>
</g>
<g>
</g>
<g>
</g>
<g>
</g>
<g>
</g>
<g>
</g>
<g>
</g>
<g>
</g>
<g>
</g>
<g>
</g>
<g>
</g>
<g>
</g>
</svg>
