<?xml version="1.0" encoding="iso-8859-1"?>
<!-- Generator: Adobe Illustrator 19.0.0, SVG Export Plug-In . SVG Version: 6.00 Build 0)  -->
<svg version="1.1" id="Capa_1" xmlns="http://www.w3.org/2000/svg" xmlns:xlink="http://www.w3.org/1999/xlink" x="0px" y="0px"
	 viewBox="0 0 512 512" style="enable-background:new 0 0 512 512;" xml:space="preserve">
<g>
	<g>
		<path d="M384,0c-56.875,0-117.333,18.688-117.333,53.333v192c0,32.491,53.163,50.944,106.667,53.12v64.213H138.667v-64.213
			c53.504-2.176,106.667-20.629,106.667-53.12v-192C245.333,18.688,184.875,0,128,0S10.667,18.688,10.667,53.333v192
			c0,32.491,53.163,50.944,106.667,53.12v74.88c0,5.888,4.779,10.667,10.667,10.667h117.333v42.667h-10.667
			c-5.888,0-10.667,4.779-10.667,10.667V448h-10.667c-5.888,0-10.667,4.779-10.667,10.667v10.667h-96
			C100.779,469.333,96,474.112,96,480c0,5.888,4.779,10.667,10.667,10.667h96v10.667c0,5.888,4.779,10.667,10.667,10.667h85.333
			c5.888,0,10.667-4.779,10.667-10.667v-10.667h96c5.888,0,10.667-4.779,10.667-10.667c0-5.888-4.779-10.667-10.667-10.667h-96
			v-10.667c0-5.888-4.779-10.667-10.667-10.667H288v-10.667c0-5.888-4.779-10.667-10.667-10.667h-10.667V384H384
			c5.888,0,10.667-4.779,10.667-10.667v-74.88c53.504-2.176,106.667-20.629,106.667-53.12v-192C501.333,18.688,440.875,0,384,0z
			 M128,21.333c58.603,0,96,18.944,96,32c0,13.056-37.397,32-96,32s-96-18.944-96-32C32,40.277,69.397,21.333,128,21.333z
			 M32,84.885c22.635,14.272,60.011,21.781,96,21.781s73.365-7.509,96-21.781v32.448c0,13.056-37.397,32-96,32s-96-18.944-96-32
			V84.885z M32,148.885c22.635,14.272,60.011,21.781,96,21.781s73.365-7.509,96-21.781v32.448c0,13.056-37.397,32-96,32
			s-96-18.944-96-32V148.885z M32,245.333v-32.448c22.635,14.272,60.011,21.781,96,21.781s73.365-7.509,96-21.781v32.448
			c0,13.056-37.397,32-96,32S32,258.389,32,245.333z M277.333,469.333H288v21.333h-64v-21.333h10.667
			c5.888,0,10.667-4.779,10.667-10.667V448h21.333v10.667C266.667,464.555,271.445,469.333,277.333,469.333z M480,245.333
			c0,13.056-37.397,32-96,32s-96-18.944-96-32v-32.448c22.635,14.272,60.011,21.781,96,21.781c35.989,0,73.365-7.509,96-21.781
			V245.333z M480,181.333c0,13.056-37.397,32-96,32s-96-18.944-96-32v-32.448c22.635,14.272,60.011,21.781,96,21.781
			c35.989,0,73.365-7.509,96-21.781V181.333z M480,117.333c0,13.056-37.397,32-96,32s-96-18.944-96-32V84.885
			c22.635,14.272,60.011,21.781,96,21.781c35.989,0,73.365-7.509,96-21.781V117.333z M384,85.333c-58.603,0-96-18.944-96-32
			c0-13.056,37.397-32,96-32s96,18.944,96,32C480,66.389,442.603,85.333,384,85.333z"/>
	</g>
</g>
<g>
</g>
<g>
</g>
<g>
</g>
<g>
</g>
<g>
</g>
<g>
</g>
<g>
</g>
<g>
</g>
<g>
</g>
<g>
</g>
<g>
</g>
<g>
</g>
<g>
</g>
<g>
</g>
<g>
</g>
</svg>
