<?xml version="1.0" encoding="iso-8859-1"?>
<!-- Generator: Adobe Illustrator 19.0.0, SVG Export Plug-In . SVG Version: 6.00 Build 0)  -->
<svg version="1.1" id="Capa_1" xmlns="http://www.w3.org/2000/svg" xmlns:xlink="http://www.w3.org/1999/xlink" x="0px" y="0px"
	 viewBox="0 0 512 512" style="enable-background:new 0 0 512 512;" xml:space="preserve">
<g>
	<g>
		<g>
			<path d="M283.349,485.184c-22.72,3.648-46.293,5.483-70.016,5.483c-113.152,0-192-39.36-192-74.667v-64.384
				c34.197,32.043,106.347,53.717,192,53.717c11.179,0,22.059-0.448,32.789-1.195c5.888-0.384,10.325-5.483,9.92-11.371
				c-0.384-5.888-5.589-10.283-11.371-9.92c-10.24,0.704-20.651,1.152-31.339,1.152c-113.152,0-192-39.36-192-74.667v-64.384
				c34.197,32.043,106.347,53.717,192,53.717c30.421,0,60.032-2.816,88.043-8.341c5.803-1.152,9.557-6.741,8.405-12.523
				c-1.131-5.803-6.891-9.6-12.523-8.405c-26.667,5.269-54.912,7.936-83.925,7.936c-113.152,0-192-39.36-192-74.667v-64.384
				C55.531,170.325,127.68,192,213.333,192s157.803-21.675,192-53.717v64.405c0,14.464-12.715,26.667-23.381,34.325
				c-4.779,3.456-5.867,10.112-2.432,14.891c2.091,2.901,5.355,4.437,8.661,4.437c2.176,0,4.352-0.661,6.229-2.005
				c4.139-2.965,7.552-6.123,10.923-9.28v1.984c0,5.888,4.779,10.667,10.667,10.667c5.888,0,10.667-4.779,10.667-10.667V96
				c0-53.824-93.717-96-213.333-96S0,42.176,0,96v320c0,53.824,93.717,96,213.333,96c24.853,0,49.536-1.941,73.387-5.739
				c5.803-0.939,9.771-6.4,8.853-12.224C294.613,488.213,289.216,484.352,283.349,485.184z M213.333,21.333
				c113.152,0,192,39.36,192,74.667c0,35.307-78.848,74.667-192,74.667s-192-39.36-192-74.667
				C21.333,60.693,100.181,21.333,213.333,21.333z"/>
			<path d="M469.333,426.667c-14.144,0-21.333-10.773-21.333-32c0-29.419-23.915-53.333-53.333-53.333s-53.333,23.915-53.333,53.333
				S365.248,448,394.667,448c16.192,0,30.549-7.403,40.341-18.837C442.261,441.195,453.931,448,469.333,448
				C512,448,512,407.851,512,394.667c0-64.683-52.651-117.333-117.333-117.333s-117.333,52.651-117.333,117.333
				S329.984,512,394.667,512c30.656,0,59.605-11.733,81.579-33.003c4.245-4.096,4.352-10.859,0.256-15.083
				c-4.096-4.224-10.837-4.331-15.083-0.256c-17.984,17.429-41.685,27.008-66.752,27.008c-52.928,0-96-43.072-96-96s43.072-96,96-96
				s96,43.072,96,96C490.667,418.581,485.291,426.667,469.333,426.667z M394.667,426.667c-17.643,0-32-14.357-32-32s14.357-32,32-32
				s32,14.357,32,32S412.309,426.667,394.667,426.667z"/>
		</g>
	</g>
</g>
<g>
</g>
<g>
</g>
<g>
</g>
<g>
</g>
<g>
</g>
<g>
</g>
<g>
</g>
<g>
</g>
<g>
</g>
<g>
</g>
<g>
</g>
<g>
</g>
<g>
</g>
<g>
</g>
<g>
</g>
</svg>
