<?xml version="1.0" encoding="iso-8859-1"?>
<!-- Generator: Adobe Illustrator 19.0.0, SVG Export Plug-In . SVG Version: 6.00 Build 0)  -->
<svg version="1.1" id="Capa_1" xmlns="http://www.w3.org/2000/svg" xmlns:xlink="http://www.w3.org/1999/xlink" x="0px" y="0px"
	 viewBox="0 0 511.989 511.989" style="enable-background:new 0 0 511.989 511.989;" xml:space="preserve">
<g>
	<g>
		<g>
			<path d="M181.342,202.656v106.667c0,5.888,4.779,10.667,10.667,10.667h128c5.888,0,10.667-4.779,10.667-10.667V202.656
				c0-5.888-4.779-10.667-10.667-10.667h-128C186.12,191.989,181.342,196.768,181.342,202.656z M202.675,213.323h106.667v85.333
				H202.675V213.323z"/>
			<path d="M475.998,173.003L262.664,2.336c-3.904-3.115-9.429-3.115-13.333,0L35.998,173.003c-3.52,2.837-4.907,7.595-3.392,11.861
				c1.515,4.267,5.547,7.125,10.069,7.125h53.333v202.667c0,5.888,4.779,10.667,10.667,10.667h138.667v21.333h-10.667
				c-5.888,0-10.667,4.779-10.667,10.667v10.667h-10.667c-5.888,0-10.667,4.779-10.667,10.667v10.667h-96
				c-5.888,0-10.667,4.779-10.667,10.667c0,5.888,4.779,10.667,10.667,10.667h96v10.667c0,5.888,4.779,10.667,10.667,10.667h85.333
				c5.888,0,10.667-4.779,10.667-10.667v-10.667h96c5.888,0,10.667-4.779,10.667-10.667c0-5.888-4.779-10.667-10.667-10.667h-96
				v-10.667c0-5.888-4.779-10.667-10.667-10.667h-10.667v-10.667c0-5.888-4.779-10.667-10.667-10.667h-10.667v-21.333h138.667
				c5.888,0,10.667-4.779,10.667-10.667V191.989h53.333c4.523,0,8.555-2.859,10.048-7.125
				C480.883,180.597,479.539,175.84,475.998,173.003z M277.342,469.323h10.667v21.333h-64v-21.333h10.667
				c5.888,0,10.667-4.779,10.667-10.667v-10.667h21.333v10.667C266.675,464.544,271.454,469.323,277.342,469.323z M405.342,170.656
				c-5.888,0-10.667,4.779-10.667,10.667v202.667H117.342V181.323c0-5.888-4.779-10.667-10.667-10.667h-33.6L256.008,24.309
				l182.933,146.347H405.342z"/>
		</g>
	</g>
</g>
<g>
</g>
<g>
</g>
<g>
</g>
<g>
</g>
<g>
</g>
<g>
</g>
<g>
</g>
<g>
</g>
<g>
</g>
<g>
</g>
<g>
</g>
<g>
</g>
<g>
</g>
<g>
</g>
<g>
</g>
</svg>
