<?xml version="1.0" encoding="iso-8859-1"?>
<!-- Generator: Adobe Illustrator 19.0.0, SVG Export Plug-In . SVG Version: 6.00 Build 0)  -->
<svg version="1.1" id="Capa_1" xmlns="http://www.w3.org/2000/svg" xmlns:xlink="http://www.w3.org/1999/xlink" x="0px" y="0px"
	 viewBox="0 0 512 512" style="enable-background:new 0 0 512 512;" xml:space="preserve">
<g>
	<g>
		<path d="M480,128h-10.667V53.333C469.333,23.936,445.419,0,416,0H96C66.581,0,42.667,23.936,42.667,53.333V64H32
			C14.357,64,0,78.357,0,96c0,29.355,4.267,58.496,12.693,86.592l42.624,142.059c6.827,22.741,27.371,38.016,51.093,38.016h128.256
			v64H224c-5.888,0-10.667,4.779-10.667,10.667V448h-10.667c-5.888,0-10.667,4.779-10.667,10.667v10.667H96
			c-5.888,0-10.667,4.779-10.667,10.667c0,5.888,4.779,10.667,10.667,10.667h96v10.667c0,5.888,4.779,10.667,10.667,10.667H288
			c5.888,0,10.667-4.779,10.667-10.667v-10.667h96c5.888,0,10.667-4.779,10.667-10.667c0-5.888-4.779-10.667-10.667-10.667h-96
			v-10.667c0-5.888-4.779-10.667-10.667-10.667h-10.667v-10.667c0-5.888-4.779-10.667-10.667-10.667H256v-64h151.765
			c22.123,0,42.197-13.909,49.92-34.603l46.165-123.029C509.248,190.571,512,175.424,512,160C512,142.357,497.643,128,480,128z
			 M64,53.333c0-17.643,14.357-32,32-32h320c17.643,0,32,14.357,32,32V128H196.715c-4.608,0-8.683-2.923-10.112-7.296
			l-11.627-34.816C170.624,72.789,158.4,64,144.619,64H64V53.333z M266.667,469.333h10.667v21.333h-64v-21.333H224
			c5.888,0,10.667-4.779,10.667-10.667V448H256v10.667C256,464.555,260.779,469.333,266.667,469.333z M483.883,197.547
			l-46.165,123.029c-4.608,12.416-16.661,20.757-29.931,20.757H106.432c-14.251,0-26.581-9.173-30.677-22.805L33.131,176.469
			C25.323,150.357,21.333,123.285,21.333,96c0-5.888,4.8-10.667,10.667-10.667h112.619c4.608,0,8.683,2.923,10.112,7.296
			l11.627,34.816c4.352,13.099,16.576,21.888,30.357,21.888H480c5.867,0,10.667,4.8,10.667,10.688
			C490.667,172.864,488.384,185.493,483.883,197.547z"/>
	</g>
</g>
<g>
</g>
<g>
</g>
<g>
</g>
<g>
</g>
<g>
</g>
<g>
</g>
<g>
</g>
<g>
</g>
<g>
</g>
<g>
</g>
<g>
</g>
<g>
</g>
<g>
</g>
<g>
</g>
<g>
</g>
</svg>
