<?xml version="1.0" encoding="iso-8859-1"?>
<!-- Generator: Adobe Illustrator 19.0.0, SVG Export Plug-In . SVG Version: 6.00 Build 0)  -->
<svg version="1.1" id="Capa_1" xmlns="http://www.w3.org/2000/svg" xmlns:xlink="http://www.w3.org/1999/xlink" x="0px" y="0px"
	 viewBox="0 0 512 512" style="enable-background:new 0 0 512 512;" xml:space="preserve">
<g>
	<g>
		<path d="M448,106.667H266.667V85.333h10.667c5.888,0,10.667-4.779,10.667-10.667V64h10.667c5.888,0,10.667-4.779,10.667-10.667
			V42.667h181.333c5.888,0,10.667-4.779,10.667-10.667s-4.779-10.667-10.667-10.667H309.333V10.667
			C309.333,4.779,304.555,0,298.667,0h-85.333c-5.888,0-10.667,4.779-10.667,10.667v10.667H21.333
			c-5.888,0-10.667,4.779-10.667,10.667s4.779,10.667,10.667,10.667h181.333v10.667c0,5.888,4.779,10.667,10.667,10.667H224v10.667
			c0,5.888,4.779,10.667,10.667,10.667h10.667v21.333H64c-29.419,0-53.333,23.936-53.333,53.333v213.333
			c0,29.397,23.915,53.333,53.333,53.333h160V448h-53.333c-29.419,0-53.333,23.936-53.333,53.333
			c0,5.888,4.779,10.667,10.667,10.667h256c5.888,0,10.667-4.779,10.667-10.667c0-29.397-23.915-53.333-53.333-53.333H288v-21.333
			h160c29.419,0,53.333-23.936,53.333-53.333V160C501.333,130.603,477.419,106.667,448,106.667z M234.667,42.667H224V21.333h64
			v21.333h-10.667c-5.888,0-10.667,4.779-10.667,10.667V64h-21.333V53.333C245.333,47.445,240.555,42.667,234.667,42.667z
			 M341.333,469.333c13.909,0,25.771,8.917,30.165,21.333H140.501c4.395-12.416,16.256-21.333,30.165-21.333H341.333z M245.333,448
			v-21.333h21.333V448H245.333z M480,373.333c0,17.643-14.357,32-32,32H64c-17.643,0-32-14.357-32-32v-10.667h448V373.333z
			 M480,341.333H32V160c0-17.643,14.357-32,32-32h384c17.643,0,32,14.357,32,32V341.333z"/>
	</g>
</g>
<g>
</g>
<g>
</g>
<g>
</g>
<g>
</g>
<g>
</g>
<g>
</g>
<g>
</g>
<g>
</g>
<g>
</g>
<g>
</g>
<g>
</g>
<g>
</g>
<g>
</g>
<g>
</g>
<g>
</g>
</svg>
