<?xml version="1.0" encoding="iso-8859-1"?>
<!-- Generator: Adobe Illustrator 19.0.0, SVG Export Plug-In . SVG Version: 6.00 Build 0)  -->
<svg version="1.1" id="Capa_1" xmlns="http://www.w3.org/2000/svg" xmlns:xlink="http://www.w3.org/1999/xlink" x="0px" y="0px"
	 viewBox="0 0 512 512" style="enable-background:new 0 0 512 512;" xml:space="preserve">
<g>
	<g>
		<g>
			<path d="M202.667,298.667H32c-17.643,0-32,14.357-32,32v106.667c0,17.643,14.357,32,32,32h74.667v21.333h-32
				c-5.888,0-10.667,4.779-10.667,10.667C64,507.221,68.779,512,74.667,512H160c5.888,0,10.667-4.779,10.667-10.667
				c0-5.888-4.779-10.667-10.667-10.667h-32v-21.333h74.667c17.643,0,32-14.357,32-32V330.667
				C234.667,313.024,220.309,298.667,202.667,298.667z M213.333,437.333c0,5.888-4.8,10.667-10.667,10.667H32
				c-5.867,0-10.667-4.779-10.667-10.667v-10.667h192V437.333z M213.333,405.333h-192v-74.667c0-5.888,4.8-10.667,10.667-10.667
				h170.667c5.867,0,10.667,4.779,10.667,10.667V405.333z"/>
			<path d="M231.616,109.803c-0.021,0-0.021,0-0.021,0c-0.021-0.021-0.043-0.021-0.043-0.021l-21.333-21.333
				c-4.16-4.16-10.923-4.16-15.083,0c-2.069,2.091-3.115,4.821-3.115,7.552s1.024,5.461,3.115,7.552l3.115,3.115h-80.917
				C87.915,106.667,64,130.603,64,160v106.667c0,5.888,4.779,10.667,10.667,10.667s10.667-4.779,10.667-10.752V159.915
				c0-17.643,14.357-32,32-32h80.939l-3.115,3.115c-4.16,4.16-4.16,10.923,0,15.083c4.16,4.16,10.923,4.16,15.083,0l21.269-21.269
				c0.213-0.213,0.427-0.448,0.64-0.683c1.387-1.643,2.219-3.605,2.453-5.632c0.085-0.619,0.107-1.259,0.064-1.877
				C234.517,114.176,233.493,111.723,231.616,109.803z"/>
			<path d="M437.333,256c-5.888,0-10.667,4.779-10.667,10.667v106.667c0,17.643-14.357,32-32,32h-80.917l3.093-3.029
				c4.16-4.16,4.16-10.923,0-15.083c-4.16-4.16-10.923-4.16-15.083,0l-21.269,21.269c-0.213,0.213-0.427,0.448-0.64,0.683
				c-1.387,1.643-2.219,3.605-2.453,5.632c-0.085,0.619-0.107,1.259-0.064,1.877c0.149,2.475,1.173,4.928,3.051,6.848
				c0.021,0,0.021,0,0.021,0s0,0,0.021,0c0,0.021,0.021,0.021,0.021,0.021l21.333,21.333c2.091,2.069,4.821,3.115,7.552,3.115
				c2.731,0,5.461-1.024,7.531-3.115c2.069-2.091,3.115-4.821,3.115-7.552c0-2.731-1.024-5.461-3.115-7.552l-3.115-3.115h80.917
				c29.419,0,53.333-23.936,53.333-53.333V266.667C448,260.779,443.221,256,437.333,256z"/>
			<path d="M480,0H309.333c-17.643,0-32,14.357-32,32v106.667c0,17.643,14.357,32,32,32H384V192h-32
				c-5.888,0-10.667,4.779-10.667,10.667s4.779,10.667,10.667,10.667h85.333c5.888,0,10.667-4.779,10.667-10.667
				S443.221,192,437.333,192h-32v-21.333H480c17.643,0,32-14.357,32-32V32C512,14.357,497.643,0,480,0z M490.667,138.667
				c0,5.888-4.8,10.667-10.667,10.667H309.333c-5.867,0-10.667-4.779-10.667-10.667V128h192V138.667z M490.667,106.667h-192V32
				c0-5.888,4.8-10.667,10.667-10.667H480c5.867,0,10.667,4.779,10.667,10.667V106.667z"/>
		</g>
	</g>
</g>
<g>
</g>
<g>
</g>
<g>
</g>
<g>
</g>
<g>
</g>
<g>
</g>
<g>
</g>
<g>
</g>
<g>
</g>
<g>
</g>
<g>
</g>
<g>
</g>
<g>
</g>
<g>
</g>
<g>
</g>
</svg>
