<?xml version="1.0" encoding="iso-8859-1"?>
<!-- Generator: Adobe Illustrator 19.0.0, SVG Export Plug-In . SVG Version: 6.00 Build 0)  -->
<svg version="1.1" id="Capa_1" xmlns="http://www.w3.org/2000/svg" xmlns:xlink="http://www.w3.org/1999/xlink" x="0px" y="0px"
	 viewBox="0 0 512 512" style="enable-background:new 0 0 512 512;" xml:space="preserve">
<g>
	<g>
		<g>
			<path d="M480,298.667H309.333c-17.643,0-32,14.357-32,32v106.667c0,17.643,14.357,32,32,32H384v21.333h-32
				c-5.888,0-10.667,4.779-10.667,10.667c0,5.888,4.779,10.667,10.667,10.667h85.333c5.888,0,10.667-4.779,10.667-10.667
				c0-5.888-4.779-10.667-10.667-10.667h-32v-21.333H480c17.643,0,32-14.357,32-32V330.667C512,313.024,497.643,298.667,480,298.667
				z M490.667,437.333c0,5.888-4.779,10.667-10.667,10.667H309.333c-5.888,0-10.667-4.779-10.667-10.667v-10.667h192V437.333z
				 M490.667,405.333h-192v-74.667c0-5.888,4.779-10.667,10.667-10.667H480c5.888,0,10.667,4.779,10.667,10.667V405.333z"/>
			<path d="M213.333,298.667c10.901,0,22.272-0.725,32.704-1.408c5.888-0.384,10.325-5.461,9.941-11.349
				c-0.384-5.888-5.461-10.155-11.349-9.941c-9.984,0.661-20.885,1.365-31.296,1.365c-113.152,0-192-39.36-192-74.667v-64.384
				C55.531,170.325,127.68,192,213.333,192s157.803-21.675,192-53.717v64.384c0,19.584-23.275,39.851-62.272,54.229
				c-5.525,2.048-8.341,8.171-6.315,13.696c1.579,4.309,5.653,6.976,10.005,6.976c1.237,0,2.475-0.213,3.691-0.661
				c23.637-8.704,42.027-19.371,54.891-31.36v21.12c0,5.888,4.779,10.667,10.667,10.667c5.888,0,10.667-4.779,10.667-10.667V96
				c0-53.824-93.717-96-213.333-96S0,42.176,0,96v320c0,53.824,93.717,96,213.333,96c11.093,0,21.973-0.363,32.619-1.067
				c5.867-0.405,10.325-5.483,9.92-11.371c-0.405-5.867-5.141-10.005-11.371-9.92c-10.155,0.683-20.544,1.024-31.168,1.024
				c-113.152,0-192-39.36-192-74.667v-64.384c34.197,32.043,106.347,53.717,192,53.717c11.008,0,22.165-0.704,32.704-1.408
				c5.888-0.384,10.325-5.483,9.941-11.349c-0.384-5.888-5.461-10.176-11.349-9.941c-10.091,0.683-20.757,1.365-31.296,1.365
				c-113.152,0-192-39.36-192-74.667v-64.384C55.531,276.992,127.68,298.667,213.333,298.667z M213.333,21.333
				c113.152,0,192,39.36,192,74.667c0,35.307-78.848,74.667-192,74.667s-192-39.36-192-74.667
				C21.333,60.693,100.181,21.333,213.333,21.333z"/>
		</g>
	</g>
</g>
<g>
</g>
<g>
</g>
<g>
</g>
<g>
</g>
<g>
</g>
<g>
</g>
<g>
</g>
<g>
</g>
<g>
</g>
<g>
</g>
<g>
</g>
<g>
</g>
<g>
</g>
<g>
</g>
<g>
</g>
</svg>
