<?xml version="1.0" encoding="iso-8859-1"?>
<!-- Generator: Adobe Illustrator 19.0.0, SVG Export Plug-In . SVG Version: 6.00 Build 0)  -->
<svg version="1.1" id="Capa_1" xmlns="http://www.w3.org/2000/svg" xmlns:xlink="http://www.w3.org/1999/xlink" x="0px" y="0px"
	 viewBox="0 0 512 512" style="enable-background:new 0 0 512 512;" xml:space="preserve">
<g>
	<g>
		<g>
			<path d="M106.667,64c5.888,0,10.667-4.779,10.667-10.667s-4.779-10.667-10.667-10.667S96,47.445,96,53.333S100.779,64,106.667,64
				z"/>
			<path d="M298.667,149.333H384c5.888,0,10.667-4.779,10.667-10.667S389.888,128,384,128h-85.333
				c-5.888,0-10.667,4.779-10.667,10.667S292.779,149.333,298.667,149.333z"/>
			<path d="M298.667,64H384c5.888,0,10.667-4.779,10.667-10.667S389.888,42.667,384,42.667h-85.333
				c-5.888,0-10.667,4.779-10.667,10.667S292.779,64,298.667,64z"/>
			<path d="M384,277.333c5.888,0,10.667-4.779,10.667-10.667v-21.333c0-5.888-4.779-10.667-10.667-10.667H266.667V224
				c0-5.888-4.779-10.667-10.667-10.667c-5.888,0-10.667,4.779-10.667,10.667v10.667H128c-5.888,0-10.667,4.779-10.667,10.667
				v21.333c0,5.888,4.779,10.667,10.667,10.667c5.888,0,10.667-4.779,10.667-10.667V256h234.667v10.667
				C373.333,272.555,378.112,277.333,384,277.333z"/>
			<path d="M469.333,298.667H298.667c-17.643,0-32,14.357-32,32v106.667c0,17.643,14.357,32,32,32h74.667v21.333h-32
				c-5.888,0-10.667,4.779-10.667,10.667c0,5.888,4.779,10.667,10.667,10.667h85.333c5.888,0,10.667-4.779,10.667-10.667
				c0-5.888-4.779-10.667-10.667-10.667h-32v-21.333h74.667c17.643,0,32-14.357,32-32V330.667
				C501.333,313.024,486.976,298.667,469.333,298.667z M480,437.333c0,5.888-4.8,10.667-10.667,10.667H298.667
				C292.8,448,288,443.221,288,437.333v-10.667h192V437.333z M480,405.333H288v-74.667c0-5.888,4.8-10.667,10.667-10.667h170.667
				C475.2,320,480,324.779,480,330.667V405.333z"/>
			<path d="M213.333,298.667H42.667c-17.643,0-32,14.357-32,32v106.667c0,17.643,14.357,32,32,32h74.667v21.333h-32
				c-5.888,0-10.667,4.779-10.667,10.667c0,5.888,4.779,10.667,10.667,10.667h85.333c5.888,0,10.667-4.779,10.667-10.667
				c0-5.888-4.779-10.667-10.667-10.667h-32v-21.333h74.667c17.643,0,32-14.357,32-32V330.667
				C245.333,313.024,230.976,298.667,213.333,298.667z M224,437.333c0,5.888-4.8,10.667-10.667,10.667H42.667
				C36.8,448,32,443.221,32,437.333v-10.667h192V437.333z M224,405.333H32v-74.667C32,324.779,36.8,320,42.667,320h170.667
				C219.2,320,224,324.779,224,330.667V405.333z"/>
			<path d="M106.667,149.333c5.888,0,10.667-4.779,10.667-10.667S112.555,128,106.667,128S96,132.779,96,138.667
				S100.779,149.333,106.667,149.333z"/>
			<path d="M85.333,192h320c17.643,0,32-14.357,32-32v-42.667c0-8.213-3.2-15.659-8.32-21.333c5.12-5.675,8.32-13.12,8.32-21.333V32
				c0-17.643-14.357-32-32-32h-320c-17.643,0-32,14.357-32,32v42.667c0,8.213,3.2,15.659,8.32,21.333
				c-5.12,5.675-8.32,13.12-8.32,21.333V160C53.333,177.643,67.691,192,85.333,192z M74.667,32c0-5.888,4.8-10.667,10.667-10.667
				h320C411.2,21.333,416,26.112,416,32v42.667c0,5.888-4.8,10.667-10.667,10.667h-320c-5.867,0-10.667-4.779-10.667-10.667V32z
				 M74.667,117.333c0-5.888,4.8-10.667,10.667-10.667h320c5.867,0,10.667,4.779,10.667,10.667V160
				c0,5.888-4.8,10.667-10.667,10.667h-320c-5.867,0-10.667-4.779-10.667-10.667V117.333z"/>
		</g>
	</g>
</g>
<g>
</g>
<g>
</g>
<g>
</g>
<g>
</g>
<g>
</g>
<g>
</g>
<g>
</g>
<g>
</g>
<g>
</g>
<g>
</g>
<g>
</g>
<g>
</g>
<g>
</g>
<g>
</g>
<g>
</g>
</svg>
