<?xml version="1.0" encoding="iso-8859-1"?>
<!-- Generator: Adobe Illustrator 19.0.0, SVG Export Plug-In . SVG Version: 6.00 Build 0)  -->
<svg version="1.1" id="Capa_1" xmlns="http://www.w3.org/2000/svg" xmlns:xlink="http://www.w3.org/1999/xlink" x="0px" y="0px"
	 viewBox="0 0 512 512" style="enable-background:new 0 0 512 512;" xml:space="preserve">
<g>
	<g>
		<g>
			<path d="M309.333,213.333c-5.888,0-10.667,4.779-10.667,10.667s4.779,10.667,10.667,10.667S320,229.888,320,224
				S315.221,213.333,309.333,213.333z"/>
			<path d="M74.667,170.667c-17.643,0-32,14.357-32,32c0,17.643,14.357,32,32,32c17.643,0,32-14.357,32-32
				C106.667,185.024,92.309,170.667,74.667,170.667z M74.667,213.333C68.8,213.333,64,208.555,64,202.667S68.8,192,74.667,192
				c5.867,0,10.667,4.779,10.667,10.667S80.533,213.333,74.667,213.333z"/>
			<path d="M458.667,298.667H288c-17.643,0-32,14.357-32,32v106.667c0,17.643,14.357,32,32,32h74.667v21.333h-32
				c-5.888,0-10.667,4.779-10.667,10.667c0,5.888,4.779,10.667,10.667,10.667H416c5.888,0,10.667-4.779,10.667-10.667
				c0-5.888-4.779-10.667-10.667-10.667h-32v-21.333h74.667c17.643,0,32-14.357,32-32V330.667
				C490.667,313.024,476.309,298.667,458.667,298.667z M469.333,437.333c0,5.888-4.8,10.667-10.667,10.667H288
				c-5.867,0-10.667-4.779-10.667-10.667v-10.667h192V437.333z M469.333,405.333h-192v-74.667c0-5.888,4.8-10.667,10.667-10.667
				h170.667c5.867,0,10.667,4.779,10.667,10.667V405.333z"/>
			<path d="M224,384h-64c-17.643,0-32-14.357-32-32v-42.667c0-5.888-4.779-10.667-10.667-10.667s-10.667,4.779-10.667,10.667V352
				c0,29.397,23.915,53.333,53.333,53.333h64c5.888,0,10.667-4.779,10.667-10.667S229.888,384,224,384z"/>
			<path d="M352,213.333c-5.888,0-10.667,4.779-10.667,10.667s4.779,10.667,10.667,10.667c5.888,0,10.667-4.779,10.667-10.667
				S357.888,213.333,352,213.333z"/>
			<path d="M437.333,85.333c-5.888,0-10.667,4.779-10.667,10.667s4.779,10.667,10.667,10.667c5.888,0,10.667-4.779,10.667-10.667
				S443.221,85.333,437.333,85.333z"/>
			<path d="M394.667,85.333C388.779,85.333,384,90.112,384,96s4.779,10.667,10.667,10.667s10.667-4.779,10.667-10.667
				S400.555,85.333,394.667,85.333z"/>
			<path d="M352,85.333c-5.888,0-10.667,4.779-10.667,10.667s4.779,10.667,10.667,10.667c5.888,0,10.667-4.779,10.667-10.667
				S357.888,85.333,352,85.333z"/>
			<path d="M512,96V53.333C512,23.936,488.085,0,458.667,0H53.333C23.915,0,0,23.936,0,53.333V96
				c0,17.493,8.597,32.939,21.653,42.667C8.597,148.395,0,163.84,0,181.333V224c0,29.397,23.915,53.333,53.333,53.333h405.333
				C488.085,277.333,512,253.397,512,224v-42.667c0-17.493-8.597-32.939-21.653-42.667C503.403,128.939,512,113.493,512,96z
				 M490.667,181.333V224c0,17.643-14.357,32-32,32H53.333c-17.643,0-32-14.357-32-32v-42.667c0-17.643,14.357-32,32-32h405.333
				C476.309,149.333,490.667,163.691,490.667,181.333z M490.667,96c0,17.643-14.357,32-32,32H53.333c-17.643,0-32-14.357-32-32
				V53.333c0-17.643,14.357-32,32-32h405.333c17.643,0,32,14.357,32,32V96z"/>
			<path d="M309.333,85.333c-5.888,0-10.667,4.779-10.667,10.667s4.779,10.667,10.667,10.667S320,101.888,320,96
				S315.221,85.333,309.333,85.333z"/>
			<path d="M437.333,213.333c-5.888,0-10.667,4.779-10.667,10.667s4.779,10.667,10.667,10.667c5.888,0,10.667-4.779,10.667-10.667
				S443.221,213.333,437.333,213.333z"/>
			<path d="M394.667,213.333c-5.888,0-10.667,4.779-10.667,10.667s4.779,10.667,10.667,10.667s10.667-4.779,10.667-10.667
				S400.555,213.333,394.667,213.333z"/>
			<path d="M74.667,42.667c-17.643,0-32,14.357-32,32c0,17.643,14.357,32,32,32c17.643,0,32-14.357,32-32
				C106.667,57.024,92.309,42.667,74.667,42.667z M74.667,85.333C68.8,85.333,64,80.555,64,74.667S68.8,64,74.667,64
				c5.867,0,10.667,4.779,10.667,10.667S80.533,85.333,74.667,85.333z"/>
		</g>
	</g>
</g>
<g>
</g>
<g>
</g>
<g>
</g>
<g>
</g>
<g>
</g>
<g>
</g>
<g>
</g>
<g>
</g>
<g>
</g>
<g>
</g>
<g>
</g>
<g>
</g>
<g>
</g>
<g>
</g>
<g>
</g>
</svg>
