<?xml version="1.0" encoding="iso-8859-1"?>
<!-- Generator: Adobe Illustrator 19.0.0, SVG Export Plug-In . SVG Version: 6.00 Build 0)  -->
<svg version="1.1" id="Capa_1" xmlns="http://www.w3.org/2000/svg" xmlns:xlink="http://www.w3.org/1999/xlink" x="0px" y="0px"
	 viewBox="0 0 512 512" style="enable-background:new 0 0 512 512;" xml:space="preserve">
<g>
	<g>
		<g>
			<path d="M221.141,394.667c0.043-5.888-4.715-10.709-10.603-10.731c-113.173-0.661-189.205-39.104-189.205-74.603v-64.384
				c34.197,32.043,106.347,53.717,192,53.717s157.803-21.675,192-53.717v60.48c0,5.888,4.779,10.667,10.667,10.667
				c5.888,0,10.667-4.779,10.667-10.667V96c0-53.824-93.717-96-213.333-96S0,42.176,0,96v320c0,50.688,80.96,90.88,192.533,95.552
				h0.448c5.675,0,10.411-4.48,10.645-10.197c0.235-5.888-4.331-10.859-10.219-11.115C87.125,485.781,21.333,448.235,21.333,416
				v-63.829c33.536,31.531,103.744,52.608,189.077,53.099h0.064C216.341,405.269,221.12,400.533,221.141,394.667z M213.333,21.333
				c113.152,0,192,39.36,192,74.667c0,35.307-78.848,74.667-192,74.667s-192-39.36-192-74.667
				C21.333,60.693,100.181,21.333,213.333,21.333z M21.333,138.283C55.531,170.325,127.68,192,213.333,192
				s157.803-21.675,192-53.717v64.384c0,35.307-78.848,74.667-192,74.667s-192-39.36-192-74.667V138.283z"/>
			<path d="M437.333,362.667c-1.941,0-3.883,0.107-5.781,0.277C413.781,336.277,383.936,320,352,320
				c-49.664,0-90.645,37.909-95.509,86.315c-24.555,4.757-43.157,26.432-43.157,52.352c0,29.397,23.936,53.333,53.333,53.333
				h170.667C478.507,512,512,478.507,512,437.333S478.507,362.667,437.333,362.667z M437.333,490.667H266.667
				c-17.643,0-32-14.357-32-32s14.357-32,32-32c5.888,0,10.667-4.779,10.667-10.667c0-41.173,33.493-74.667,74.667-74.667
				c26.667,0,51.52,14.699,64.811,38.357c2.219,3.947,6.635,6.037,11.179,5.269c3.051-0.533,6.144-0.96,9.344-0.96
				c29.397,0,53.333,23.936,53.333,53.333S466.731,490.667,437.333,490.667z"/>
		</g>
	</g>
</g>
<g>
</g>
<g>
</g>
<g>
</g>
<g>
</g>
<g>
</g>
<g>
</g>
<g>
</g>
<g>
</g>
<g>
</g>
<g>
</g>
<g>
</g>
<g>
</g>
<g>
</g>
<g>
</g>
<g>
</g>
</svg>
